<svg version="1.1" xmlns="http://www.w3.org/2000/svg" viewBox="0 0 2582.1145457465545 842.7449917713698" width="5164.229091493109" height="1685.4899835427395">
  <!-- svg-source:excalidraw -->
  
  <defs>
    <style class="style-fonts">
      @font-face {
        font-family: "Virgil";
        src: url("https://excalidraw.com/Virgil.woff2");
      }
      @font-face {
        font-family: "Cascadia";
        src: url("https://excalidraw.com/Cascadia.woff2");
      }
    </style>
    
  </defs>
  <rect x="0" y="0" width="2582.1145457465545" height="842.7449917713698" fill="#ffffff"></rect><g stroke-linecap="round" transform="translate(270.868488203143 10) rotate(0 126.12481968784368 90.45299012226276)"><path d="M14.22 49.46 C14.22 49.46, 14.22 49.46, 14.22 49.46 M14.22 49.46 C14.22 49.46, 14.22 49.46, 14.22 49.46 M9.37 61.14 C18.66 51.68, 25.32 42.07, 41.51 24.16 M9.37 61.14 C19.83 49.77, 29.28 36.67, 41.51 24.16 M3.86 73.58 C14.62 60.71, 28.85 46.37, 45.84 25.28 M3.86 73.58 C20.03 55.11, 36.46 35.92, 45.84 25.28 M1.63 82.24 C16.69 67.9, 27.1 52.3, 54.11 21.86 M1.63 82.24 C17.75 61.94, 34.31 43.7, 54.11 21.86 M2.02 87.88 C18.56 66.84, 39.03 46.83, 63.04 17.7 M2.02 87.88 C22.61 64.83, 41.94 39.48, 63.04 17.7 M3.07 92.77 C20.62 73.43, 38.15 55.91, 71.96 13.53 M3.07 92.77 C30.05 61.49, 55.92 30.8, 71.96 13.53 M3.47 98.42 C23.74 77.48, 42.25 54.25, 83.51 6.34 M3.47 98.42 C26.61 70.7, 49.49 45.11, 83.51 6.34 M3.86 104.06 C33.93 69.51, 59.31 39.44, 89.15 5.95 M3.86 104.06 C38.78 65.93, 73.52 26.77, 89.15 5.95 M4.91 108.95 C38.35 69.5, 71.59 29.71, 95.45 4.8 M4.91 108.95 C33.26 75.42, 64.7 40.03, 95.45 4.8 M5.31 114.59 C31.67 83.43, 57.35 54.43, 101.09 4.4 M5.31 114.59 C23.52 92.46, 43.38 68.79, 101.09 4.4 M7.67 117.97 C44.41 79.42, 77.18 38.91, 107.39 3.25 M7.67 117.97 C29.82 94.45, 51.26 67.96, 107.39 3.25 M10.03 121.35 C49.46 76.09, 88.95 33.04, 113.03 2.86 M10.03 121.35 C33.25 95.66, 57.06 68.7, 113.03 2.86 M12.4 124.73 C54.39 75.23, 97.53 28.66, 119.33 1.71 M12.4 124.73 C52.73 80.04, 92.28 33.9, 119.33 1.71 M14.76 128.11 C47.1 87.07, 82.7 47.09, 124.98 1.31 M14.76 128.11 C40.47 97.26, 67.89 67.76, 124.98 1.31 M17.12 131.48 C52.9 93.69, 82.95 58.51, 129.96 1.67 M17.12 131.48 C47.98 93.63, 82.51 55.94, 129.96 1.67 M19.48 134.86 C64.06 85.52, 105.86 38.42, 134.95 2.03 M19.48 134.86 C45.57 106.13, 70.45 77.15, 134.95 2.03 M21.85 138.24 C50.85 106.45, 78.79 70.47, 139.94 2.39 M21.85 138.24 C63.03 88.65, 106.3 40.33, 139.94 2.39 M23.55 142.38 C66.18 93.69, 110.56 42, 144.27 3.51 M23.55 142.38 C56.79 102.9, 93.06 62.82, 144.27 3.51 M26.57 145 C72.83 91.29, 119.75 38.63, 149.26 3.87 M26.57 145 C50.69 115.64, 76.59 87.52, 149.26 3.87 M29.59 147.62 C68.09 103.32, 109.45 55.92, 153.59 4.98 M29.59 147.62 C72.93 98.44, 116.5 49.07, 153.59 4.98 M33.27 149.49 C66.23 110.17, 100.27 74.04, 158.57 5.34 M33.27 149.49 C77.32 97.64, 122.62 44.03, 158.57 5.34 M36.94 151.36 C66.48 117.09, 94.19 80.39, 163.56 5.7 M36.94 151.36 C72.76 109, 110.27 65.51, 163.56 5.7 M39.96 153.99 C87.59 102.43, 130.57 50.21, 167.89 6.82 M39.96 153.99 C65.53 122.72, 91.45 92.59, 167.89 6.82 M43.63 155.86 C82.85 112.11, 122.34 65.48, 174.19 5.67 M43.63 155.86 C89.84 101.8, 136.92 49.35, 174.19 5.67 M46.65 158.48 C73.54 128.14, 102.9 96.62, 177.87 7.54 M46.65 158.48 C97 97.9, 149.3 38.69, 177.87 7.54 M50.33 160.35 C80.38 122.64, 115.21 84.57, 181.54 9.41 M50.33 160.35 C97.52 106, 145.56 51.37, 181.54 9.41 M53.35 162.98 C85.46 124.84, 116.3 90.21, 185.22 11.28 M53.35 162.98 C87.13 121.96, 122.06 81.82, 185.22 11.28 M57.02 164.84 C87.36 130.43, 116.88 97.81, 188.89 13.15 M57.02 164.84 C95.77 119.03, 135.48 73.56, 188.89 13.15 M60.7 166.71 C107.06 115.44, 151.08 63.51, 192.56 15.02 M60.7 166.71 C88.69 135.02, 116.35 101.85, 192.56 15.02 M64.37 168.58 C109.42 115.38, 153.64 66.45, 196.24 16.89 M64.37 168.58 C109.56 117.37, 153.16 67.31, 196.24 16.89 M68.7 169.7 C109.19 128.57, 144.5 83.25, 199.91 18.76 M68.7 169.7 C113.04 121.52, 154.94 71.75, 199.91 18.76 M73.03 170.81 C107.84 128.38, 143 88.21, 204.25 19.87 M73.03 170.81 C98.78 139.09, 126.68 107.51, 204.25 19.87 M76.71 172.68 C120.5 123.96, 161.27 73.38, 207.92 21.74 M76.71 172.68 C121.52 121.41, 167.09 68.73, 207.92 21.74 M81.04 173.8 C118.8 128.12, 159.26 86.41, 211.6 23.61 M81.04 173.8 C107.78 139.66, 137.82 105.89, 211.6 23.61 M85.37 174.91 C136.14 117.76, 185.71 57.66, 214.61 26.23 M85.37 174.91 C120.26 133.36, 156.72 90.86, 214.61 26.23 M89.05 176.78 C124.27 138.49, 156.96 100.13, 217.63 28.86 M89.05 176.78 C123.04 140.67, 155.71 101.49, 217.63 28.86 M93.38 177.9 C133.23 134.18, 169.48 91.03, 220 32.24 M93.38 177.9 C121.54 143.78, 150.94 111.73, 220 32.24 M97.71 179.01 C147.31 123.54, 194.54 70.27, 223.01 34.86 M97.71 179.01 C143.87 127.3, 190.2 73.83, 223.01 34.86 M102.04 180.13 C144.15 132.68, 181.83 86.63, 226.03 37.49 M102.04 180.13 C145.74 130.14, 190.26 79.37, 226.03 37.49 M107.03 180.49 C138.18 145.26, 169.27 107.87, 228.4 40.87 M107.03 180.49 C150.04 128.33, 196.03 75.77, 228.4 40.87 M112.67 180.09 C138.8 147.86, 168.54 112.18, 231.42 43.49 M112.67 180.09 C147.22 139.93, 181.23 99.78, 231.42 43.49 M117.66 180.45 C149.73 142.99, 180.38 107.22, 234.43 46.11 M117.66 180.45 C148.43 145.01, 178.99 109.34, 234.43 46.11 M122.64 180.81 C153.28 145.36, 188.08 106.93, 236.8 49.49 M122.64 180.81 C161.85 134.37, 200.03 89.86, 236.8 49.49 M128.29 180.42 C168.14 134.22, 212.38 85.03, 239.82 52.12 M128.29 180.42 C154.07 151.79, 177.66 122.1, 239.82 52.12 M133.27 180.78 C173.22 132.81, 216.95 85.8, 241.52 56.25 M133.27 180.78 C164.27 144.27, 195.49 107.96, 241.52 56.25 M138.92 180.38 C170.59 141.3, 203.42 107.68, 243.23 60.38 M138.92 180.38 C177.67 133.49, 218.34 89.05, 243.23 60.38 M143.9 180.74 C180.12 142.77, 211.1 102.66, 244.94 64.52 M143.9 180.74 C182.91 135.12, 221.09 90.15, 244.94 64.52 M148.23 181.86 C188.43 139.63, 225.05 93.6, 246.64 68.65 M148.23 181.86 C174.3 153.34, 198.4 126.54, 246.64 68.65 M155.19 179.95 C175.86 158.73, 193.14 135.12, 248.35 72.79 M155.19 179.95 C187.08 141.27, 217.89 105.15, 248.35 72.79 M162.14 178.05 C188.62 145.47, 214.3 118.4, 250.06 76.92 M162.14 178.05 C189.05 149, 215.27 118.35, 250.06 76.92 M169.1 176.15 C199.25 140.41, 229.22 107.41, 251.76 81.05 M169.1 176.15 C199.23 142.82, 228.96 107.34, 251.76 81.05 M175.4 175 C199.16 148.2, 224.15 118.83, 254.13 84.43 M175.4 175 C193.05 155.41, 208.59 137.34, 254.13 84.43 M182.35 173.09 C198 152.74, 215.62 131.78, 252.55 92.34 M182.35 173.09 C204.71 148.61, 227.2 123.44, 252.55 92.34 M189.31 171.19 C206.69 150.09, 224.27 128.99, 251.63 99.49 M189.31 171.19 C212.24 144.8, 237.35 115.76, 251.63 99.49 M194.95 170.79 C215.86 146.56, 235.69 126.03, 250.06 107.4 M194.95 170.79 C211.9 150.47, 229.31 131.15, 250.06 107.4 M206.5 163.61 C213.84 153.67, 222.86 141.67, 247.18 116.82 M206.5 163.61 C216.14 152.03, 224.24 143.12, 247.18 116.82" stroke="#ffc9c9" stroke-width="0.5" fill="none"></path><path d="M173.88 5.82 C188.12 8.29, 201.99 16.84, 212.92 24.52 C223.85 32.2, 232.93 42.2, 239.46 51.88 C245.98 61.55, 250.96 71.9, 252.07 82.55 C253.19 93.2, 250.41 105.12, 246.15 115.79 C241.89 126.45, 235.57 137.73, 226.53 146.56 C217.48 155.38, 205.18 163.13, 191.87 168.73 C178.57 174.33, 161.82 178.33, 146.72 180.15 C131.62 181.97, 115.88 182.05, 101.26 179.65 C86.64 177.25, 71.82 171.82, 59.02 165.77 C46.21 159.72, 33.51 152, 24.42 143.35 C15.32 134.7, 8.43 124.16, 4.44 113.85 C0.46 103.54, -1.17 92.26, 0.48 81.5 C2.12 70.75, 7.3 59.07, 14.33 49.33 C21.37 39.6, 31.45 30.44, 42.67 23.1 C53.88 15.76, 67.43 9.28, 81.62 5.31 C95.81 1.33, 110.98 -1.57, 127.81 -0.75 C144.65 0.08, 172.39 7.56, 182.64 10.27 C192.89 12.97, 190.28 14.2, 189.32 15.47 M161.06 2.47 C175.62 4.34, 190.16 12.96, 202.06 19.57 C213.95 26.17, 224.39 32.84, 232.45 42.09 C240.51 51.33, 247.71 64.03, 250.42 75.03 C253.14 86.02, 251.49 97.6, 248.75 108.06 C246.01 118.51, 241.57 128.62, 233.99 137.74 C226.41 146.86, 215.63 156.36, 203.3 162.79 C190.96 169.21, 174.9 173.11, 159.99 176.28 C145.07 179.45, 128.96 182.8, 113.8 181.8 C98.63 180.81, 82.4 175.46, 68.99 170.31 C55.58 165.17, 43.31 158.58, 33.34 150.92 C23.37 143.26, 14.81 134.13, 9.17 124.34 C3.54 114.55, -0.37 103.39, -0.47 92.19 C-0.58 80.99, 2.94 67.67, 8.56 57.14 C14.17 46.6, 22.93 36.89, 33.21 28.97 C43.49 21.05, 56.7 14.56, 70.24 9.63 C83.78 4.7, 99.45 0.48, 114.46 -0.61 C129.48 -1.7, 153.02 2.04, 160.31 3.1 C167.61 4.15, 158.74 4, 158.23 5.72" stroke="#1e1e1e" stroke-width="1" fill="none"></path></g><g transform="translate(315.87892855128166 84.39306742821097) rotate(0 80.9306640625 16.099999999999998)"><text x="80.9306640625" y="0" font-family="Helvetica, Segoe UI Emoji" font-size="28px" fill="#1e1e1e" text-anchor="middle" style="white-space: pre;" direction="ltr" dominant-baseline="text-before-edge">JoinOperator</text></g><g stroke-linecap="round" transform="translate(10 651.8390115268442) rotate(0 120.4391187965748 90.45299012226275)"><path d="M16.85 43.8 C16.85 43.8, 16.85 43.8, 16.85 43.8 M16.85 43.8 C16.85 43.8, 16.85 43.8, 16.85 43.8 M10.68 56.99 C15.54 49.51, 19.37 44.88, 33.64 30.57 M10.68 56.99 C15.05 52.15, 20.61 45.45, 33.64 30.57 M3.86 70.93 C14.38 57.98, 29.17 41.49, 47.82 20.37 M3.86 70.93 C16.88 56.32, 29.63 40.75, 47.82 20.37 M2.94 78.08 C21.39 58.87, 39.65 36.6, 56.08 16.95 M2.94 78.08 C23.19 55.08, 43.33 31.31, 56.08 16.95 M3.34 83.73 C16.16 69.42, 30.49 49.77, 64.35 13.54 M3.34 83.73 C19.68 65.83, 35.22 46.96, 64.35 13.54 M3.08 90.12 C18.31 73.08, 34.32 52.89, 72.62 10.13 M3.08 90.12 C21.83 69.95, 39.27 49.62, 72.62 10.13 M3.47 95.77 C21.21 76.31, 39.76 55.47, 81.54 5.96 M3.47 95.77 C20.47 75.79, 37.04 57.16, 81.54 5.96 M3.21 102.17 C30.59 72.08, 60.27 37.3, 89.15 3.3 M3.21 102.17 C24.61 76.56, 47.48 52.97, 89.15 3.3 M2.95 108.56 C24.65 86.03, 46.54 60.39, 94.8 2.9 M2.95 108.56 C23.06 84.08, 43.73 61.32, 94.8 2.9 M4.65 112.7 C36.21 76.3, 63.92 41.55, 100.44 2.51 M4.65 112.7 C27.15 85.31, 50.52 59.78, 100.44 2.51 M7.02 116.08 C41.67 72.01, 81.27 29.4, 106.08 2.11 M7.02 116.08 C40.64 76.31, 72.62 37.77, 106.08 2.11 M8.72 120.21 C32.71 94.01, 56.26 65.34, 111.07 2.47 M8.72 120.21 C46.99 73.78, 86.54 28.18, 111.07 2.47 M11.09 123.59 C49.94 80.62, 87.74 35.29, 116.71 2.08 M11.09 123.59 C49.36 76.94, 89.11 31.87, 116.71 2.08 M12.79 127.72 C44.2 91.42, 80.36 52.1, 122.35 1.69 M12.79 127.72 C47.58 88.61, 83.32 49.73, 122.35 1.69 M14.5 131.86 C44.07 95.67, 78.59 59.29, 128 1.29 M14.5 131.86 C52.43 89.35, 88.43 47.06, 128 1.29 M16.86 135.23 C55.41 92.04, 91.09 51.59, 132.98 1.65 M16.86 135.23 C55.2 91.5, 92.84 47.68, 132.98 1.65 M18.57 139.37 C63.93 88.42, 111.74 34.74, 137.97 2.01 M18.57 139.37 C59.5 94.54, 99.8 46.06, 137.97 2.01 M22.24 141.24 C53.92 101.36, 87.37 62.25, 142.3 3.13 M22.24 141.24 C69.82 87.83, 117.18 31.42, 142.3 3.13 M25.26 143.86 C64.7 99.29, 103.33 55.94, 146.63 4.24 M25.26 143.86 C70.81 92.5, 113.86 41.42, 146.63 4.24 M28.28 146.49 C66.99 104.95, 101.63 62.99, 151.62 4.6 M28.28 146.49 C73.68 95.55, 118.18 45.79, 151.62 4.6 M31.3 149.11 C69.96 103.4, 109.56 57.74, 155.95 5.72 M31.3 149.11 C69.75 106.25, 107.13 62.26, 155.95 5.72 M34.32 151.73 C78.2 101.64, 126.2 48.61, 160.94 6.08 M34.32 151.73 C77.42 103.19, 119.08 54.4, 160.94 6.08 M37.99 153.6 C83.02 101.04, 128.27 50.45, 165.27 7.19 M37.99 153.6 C65.69 122.99, 93.54 89.75, 165.27 7.19 M41.01 156.23 C81.96 107.65, 121.55 60.46, 169.6 8.31 M41.01 156.23 C81.61 107.93, 122.26 60.63, 169.6 8.31 M44.03 158.85 C74.38 124.33, 102.47 90.5, 173.93 9.42 M44.03 158.85 C94.63 102.91, 142.71 45.31, 173.93 9.42 M47.05 161.48 C89.89 111.78, 135.42 61, 177.61 11.29 M47.05 161.48 C93.74 108.85, 140.18 55.12, 177.61 11.29 M50.73 163.35 C87.25 122.48, 123.42 80.76, 181.28 13.16 M50.73 163.35 C101.64 104.05, 152.7 45.14, 181.28 13.16 M54.4 165.22 C104.47 105.88, 156.19 44.42, 184.96 15.03 M54.4 165.22 C107.45 107.91, 156.7 48.81, 184.96 15.03 M58.73 166.33 C90.09 130.21, 118.19 95.03, 188.63 16.9 M58.73 166.33 C92.26 130.25, 123.1 93, 188.63 16.9 M62.41 168.2 C90.4 135.47, 119.38 103.78, 192.31 18.77 M62.41 168.2 C89.65 136.37, 118.2 102.99, 192.31 18.77 M66.74 169.31 C95.76 135.97, 121.24 102.44, 195.32 21.39 M66.74 169.31 C107.04 123.58, 148.31 75.66, 195.32 21.39 M70.41 171.18 C120.04 115.59, 172.05 56.7, 199 23.26 M70.41 171.18 C110.86 125.08, 150.79 77.41, 199 23.26 M74.74 172.3 C113.71 127.23, 154.61 80.68, 202.67 25.13 M74.74 172.3 C117.35 124.47, 158.98 75.16, 202.67 25.13 M79.07 173.41 C119.62 126.04, 159.73 78.84, 206.35 27 M79.07 173.41 C110.27 139.64, 137.88 105.96, 206.35 27 M82.75 175.28 C133.82 119.58, 181.81 62.79, 210.02 28.87 M82.75 175.28 C109.77 146.07, 134.11 115.73, 210.02 28.87 M87.08 176.4 C135.97 121.05, 183.51 64.31, 212.39 32.25 M87.08 176.4 C134.47 121.08, 181.03 66.5, 212.39 32.25 M91.41 177.51 C127.93 136.36, 159.18 99.21, 214.75 35.63 M91.41 177.51 C117.59 148.83, 141.26 118.05, 214.75 35.63 M96.4 177.87 C140.29 127.32, 183.6 75.05, 217.11 39.01 M96.4 177.87 C128.73 143.28, 159.55 108.31, 217.11 39.01 M101.38 178.23 C129.2 148.75, 156.48 116.57, 220.13 41.63 M101.38 178.23 C149.43 123.6, 196.67 68.28, 220.13 41.63 M106.37 178.59 C150.38 128.96, 189.85 81.83, 222.49 45.01 M106.37 178.59 C132.14 149.44, 156.73 121.15, 222.49 45.01 M111.36 178.95 C134.34 154.57, 159.05 124.62, 224.86 48.39 M111.36 178.95 C154.33 127.85, 200.91 74.97, 224.86 48.39 M116.35 179.31 C154.4 135.42, 192.15 93.49, 227.22 51.77 M116.35 179.31 C150.31 139.19, 185.32 100.92, 227.22 51.77 M121.33 179.67 C145.67 152.42, 165.43 126.68, 229.58 55.15 M121.33 179.67 C141.44 154.11, 164.02 129.14, 229.58 55.15 M125.66 180.79 C157.59 140.3, 193.18 101.91, 231.95 58.53 M125.66 180.79 C150.32 153.85, 173.48 126.5, 231.95 58.53 M130.65 181.15 C152.87 157.65, 173.53 131.07, 233.65 62.66 M130.65 181.15 C170.23 135.57, 208.18 91.74, 233.65 62.66 M135.64 181.51 C158.18 155.32, 184.03 127.81, 234.7 67.55 M135.64 181.51 C169.36 141.32, 202.88 101.1, 234.7 67.55 M142.59 179.6 C173.59 145.93, 200.3 112.81, 236.41 71.68 M142.59 179.6 C167.54 150.71, 192.99 123.04, 236.41 71.68 M148.89 178.46 C175.53 147.92, 203.58 116.68, 237.46 76.57 M148.89 178.46 C178.99 145.68, 207.92 111.24, 237.46 76.57 M155.85 176.55 C177.25 154.04, 197.24 127.18, 239.17 80.7 M155.85 176.55 C186.75 140.88, 218.54 105.63, 239.17 80.7 M162.15 175.4 C192.53 139.02, 223.85 106.76, 240.22 85.59 M162.15 175.4 C184.48 149.21, 205.34 123.28, 240.22 85.59 M169.1 173.5 C193.81 149.5, 216.17 120.29, 241.92 89.73 M169.1 173.5 C196.75 141.62, 224.39 108.6, 241.92 89.73 M177.37 170.08 C192.18 154.14, 205.58 137.05, 239.69 98.39 M177.37 170.08 C190.45 154.92, 204.6 139.28, 239.69 98.39 M187.6 164.41 C203.85 145.05, 222.51 122.97, 238.12 106.29 M187.6 164.41 C205.37 144.47, 223.83 123.46, 238.12 106.29 M198.5 157.98 C209.7 147.13, 219.89 133.55, 235.89 114.96 M198.5 157.98 C213.91 141.31, 227.23 125.16, 235.89 114.96 M208.73 152.3 C213.23 146.83, 219.58 136.64, 233.66 123.62 M208.73 152.3 C217.02 142.56, 224.36 134.95, 233.66 123.62" stroke="#a5d8ff" stroke-width="0.5" fill="none"></path><path d="M86.36 3.32 C99.05 -0.97, 116.2 0.21, 130.72 1.08 C145.25 1.95, 160.42 3.98, 173.53 8.55 C186.65 13.13, 199.73 20.34, 209.4 28.52 C219.08 36.7, 226.31 47.5, 231.57 57.64 C236.84 67.78, 240.72 78.47, 241 89.37 C241.28 100.27, 238.24 112.76, 233.24 123.03 C228.24 133.29, 220.8 142.85, 211.02 150.97 C201.24 159.09, 187.46 166.71, 174.55 171.74 C161.64 176.76, 147.81 180.23, 133.55 181.14 C119.3 182.05, 103.13 180.24, 89.03 177.18 C74.93 174.13, 60.81 169.28, 48.96 162.83 C37.1 156.37, 25.61 147.56, 17.9 138.46 C10.2 129.36, 5.3 118.94, 2.73 108.22 C0.17 97.5, 0.19 84.82, 2.51 74.12 C4.83 63.43, 9.18 53.12, 16.63 44.04 C24.09 34.97, 35.33 26.33, 47.26 19.67 C59.19 13, 80.76 6.61, 88.21 4.04 C95.66 1.47, 91.24 2.81, 91.98 4.25 M165.69 7.41 C179.1 10.18, 190.81 17.66, 201.38 25.17 C211.94 32.68, 222.61 42.82, 229.06 52.47 C235.52 62.12, 239.02 72.65, 240.11 83.07 C241.2 93.49, 239.72 104.55, 235.61 114.99 C231.5 125.43, 224.37 136.97, 215.44 145.7 C206.52 154.44, 194.47 161.66, 182.04 167.42 C169.61 173.18, 154.92 178.44, 140.85 180.27 C126.77 182.1, 111.84 180.82, 97.58 178.4 C83.33 175.98, 67.66 171.36, 55.31 165.77 C42.96 160.18, 32.19 153.48, 23.47 144.87 C14.75 136.26, 6.65 124.91, 3 114.12 C-0.65 103.33, -0.11 91.01, 1.57 80.12 C3.24 69.22, 6.76 58.39, 13.06 48.73 C19.36 39.08, 28.31 29.46, 39.38 22.19 C50.46 14.92, 65.77 9.02, 79.52 5.11 C93.27 1.2, 107.32 -1.63, 121.87 -1.28 C136.42 -0.94, 159.94 5.8, 166.8 7.17 C173.67 8.54, 164.27 5.42, 163.04 6.92" stroke="#1e1e1e" stroke-width="1" fill="none"></path></g><g transform="translate(61.02091836288446 726.2320789550552) rotate(0 69.2548828125 16.100000000000023)"><text x="69.2548828125" y="0" font-family="Helvetica, Segoe UI Emoji" font-size="28px" fill="#1e1e1e" text-anchor="middle" style="white-space: pre;" direction="ltr" dominant-baseline="text-before-edge">leftChildOp</text></g><g stroke-linecap="round" transform="translate(503.3694865153566 645.5238841213767) rotate(0 120.4391187965748 90.45299012226275)"><path d="M30.05 30.09 C30.05 30.09, 30.05 30.09, 30.05 30.09 M30.05 30.09 C30.05 30.09, 30.05 30.09, 30.05 30.09 M8.79 60.64 C20.04 47.52, 27.42 36.15, 40.94 23.66 M8.79 60.64 C16.44 51.04, 24.26 43.4, 40.94 23.66 M7.22 68.55 C21.73 47.98, 40.68 29.13, 51.83 17.23 M7.22 68.55 C22.84 50.31, 36.53 32.8, 51.83 17.23 M4.99 77.21 C18.59 63.02, 32.08 45.92, 62.72 10.8 M4.99 77.21 C26.28 51.19, 48.45 25.58, 62.72 10.8 M3.41 85.12 C26.77 59.71, 49.5 31.71, 67.71 11.16 M3.41 85.12 C26.49 56.55, 50.85 29.18, 67.71 11.16 M1.18 93.78 C21.44 70.14, 46.3 43.83, 74.01 10.01 M1.18 93.78 C24.09 67.73, 48.17 42.27, 74.01 10.01 M2.89 97.91 C22.69 73.58, 47.17 48.74, 80.31 8.86 M2.89 97.91 C28.96 68.91, 53.41 39.91, 80.31 8.86 M3.94 102.8 C32.15 71.78, 57.48 43.24, 87.26 6.95 M3.94 102.8 C31.73 71.51, 58.58 40.08, 87.26 6.95 M5.65 106.94 C38.77 69.78, 74.5 30, 93.56 5.81 M5.65 106.94 C35.71 74.13, 65.3 37.98, 93.56 5.81 M6.7 111.82 C31.25 80.7, 57.27 50.12, 99.86 4.66 M6.7 111.82 C43.75 70.6, 80.5 26.39, 99.86 4.66 M7.75 116.71 C40.78 79.53, 72.85 43.73, 108.78 0.49 M7.75 116.71 C45.81 73.94, 81.42 31.41, 108.78 0.49 M9.46 120.85 C42.47 85.61, 71.5 50.1, 113.77 0.85 M9.46 120.85 C47.91 77.74, 85.6 35.83, 113.77 0.85 M10.51 125.74 C43.9 86.03, 78.34 46.29, 118.76 1.21 M10.51 125.74 C44.01 88.62, 76.46 50.3, 118.76 1.21 M12.87 129.11 C51.15 85.48, 93.55 38.9, 123.74 1.57 M12.87 129.11 C50.67 86.56, 87.03 43.87, 123.74 1.57 M15.89 131.74 C55.77 84.96, 95.87 40.29, 128.73 1.93 M15.89 131.74 C40.38 104.69, 65.03 75.13, 128.73 1.93 M18.25 135.12 C55.01 91.3, 90.4 48.94, 133.72 2.29 M18.25 135.12 C54.76 91.72, 91.27 49.19, 133.72 2.29 M20.61 138.5 C48.22 106.98, 73.65 76.2, 138.71 2.65 M20.61 138.5 C66.7 87.73, 110.31 35.26, 138.71 2.65 M23.63 141.12 C62.72 95.73, 104.59 49.17, 143.04 3.76 M23.63 141.12 C66.35 93.01, 108.82 43.85, 143.04 3.76 M26 144.5 C60.11 106.25, 93.94 67.21, 148.02 4.12 M26 144.5 C73.62 89.08, 121.37 33.98, 148.02 4.12 M28.36 147.88 C76.14 91.22, 125.51 32.47, 153.01 4.48 M28.36 147.88 C79.05 93.17, 126 36.7, 153.01 4.48 M30.72 151.26 C61.16 116.21, 88.33 82.08, 156.69 6.35 M30.72 151.26 C63.25 116.28, 93.12 80.15, 156.69 6.35 M33.74 153.88 C61.14 121.81, 89.53 90.8, 161.02 7.47 M33.74 153.88 C60.42 122.71, 88.41 89.98, 161.02 7.47 M37.42 155.75 C66.3 122.58, 91.64 89.22, 165.35 8.58 M37.42 155.75 C77.51 110.25, 118.58 62.57, 165.35 8.58 M40.43 158.38 C90.06 102.78, 142.07 43.89, 169.02 10.45 M40.43 158.38 C80.88 112.27, 120.81 64.6, 169.02 10.45 M44.11 160.24 C83.48 114.71, 124.78 67.69, 173.35 11.57 M44.11 160.24 C87.14 111.93, 129.21 62.12, 173.35 11.57 M47.78 162.11 C89.16 113.76, 130.14 65.57, 177.68 12.68 M47.78 162.11 C79.61 127.64, 107.82 93.28, 177.68 12.68 M51.46 163.98 C103.82 106.83, 153.08 48.58, 182.01 13.8 M51.46 163.98 C79.15 134.02, 104.16 102.92, 182.01 13.8 M55.13 165.85 C106.1 108.16, 155.68 49.08, 185.69 15.67 M55.13 165.85 C104.49 108.23, 153.03 51.36, 185.69 15.67 M58.81 167.72 C97.38 124.18, 131.19 84.21, 190.02 16.78 M58.81 167.72 C86.53 137.12, 112 104.63, 190.02 16.78 M62.48 169.59 C110.32 114.52, 157.66 57.86, 193.7 18.65 M62.48 169.59 C97.4 131.95, 130.86 93.9, 193.7 18.65 M66.16 171.46 C96.67 138.93, 126.55 103.76, 196.71 21.27 M66.16 171.46 C118.91 111.33, 170.83 50.62, 196.71 21.27 M69.83 173.33 C118.96 117.87, 163.44 64.98, 199.73 23.9 M69.83 173.33 C98.55 140.83, 126.14 109.09, 199.73 23.9 M74.16 174.45 C100.39 146.6, 128.19 113.1, 202.75 26.52 M74.16 174.45 C122.96 116.44, 175.52 56.68, 202.75 26.52 M78.5 175.56 C122.26 125.05, 165.66 76.62, 206.43 28.39 M78.5 175.56 C117.74 129.3, 157.95 85.05, 206.43 28.39 M83.48 175.92 C111.5 144.37, 135.05 114.26, 209.45 31.02 M83.48 175.92 C106.94 146.24, 133.07 117.17, 209.45 31.02 M87.81 177.04 C125.45 129.88, 166.87 84.79, 212.46 33.64 M87.81 177.04 C116.68 145.39, 143.9 113.37, 212.46 33.64 M92.14 178.15 C118.61 149.92, 143.43 118.54, 215.48 36.27 M92.14 178.15 C139.48 123.72, 185.09 71.08, 215.48 36.27 M96.48 179.27 C124.43 146.86, 155.87 112.92, 218.5 38.89 M96.48 179.27 C137.95 129.76, 179.38 80.43, 218.5 38.89 M101.46 179.63 C140.86 136.35, 175.77 93.8, 221.52 41.51 M101.46 179.63 C133.32 142.76, 165.67 107.13, 221.52 41.51 M105.79 180.74 C141.81 139.28, 179.36 97.12, 225.2 43.38 M105.79 180.74 C146.14 136.21, 185.1 90.24, 225.2 43.38 M110.78 181.1 C140.73 149.06, 168.92 112.77, 226.9 47.52 M110.78 181.1 C154.14 131.23, 198.11 81.96, 226.9 47.52 M116.42 180.71 C160.15 129.26, 204.72 81.75, 228.61 51.65 M116.42 180.71 C148.35 143.1, 178.92 106, 228.61 51.65 M122.07 180.31 C158.24 143.74, 191.76 101.69, 230.97 55.03 M122.07 180.31 C163.46 132.19, 204.95 83.23, 230.97 55.03 M127.71 179.92 C152.33 152.03, 175.98 123.15, 232.68 59.16 M127.71 179.92 C149.56 154.18, 172.96 127.9, 232.68 59.16 M133.35 179.52 C167.3 139.74, 204.12 96.77, 234.39 63.3 M133.35 179.52 C169.29 139.39, 205.69 97.73, 234.39 63.3 M139 179.13 C168.64 148.15, 196.81 113.89, 236.75 66.68 M139 179.13 C178.06 135.03, 214.76 92, 236.75 66.68 M144.64 178.73 C166.71 153.64, 190.18 123.75, 238.46 70.81 M144.64 178.73 C174.64 144.22, 203.48 111.88, 238.46 70.81 M150.28 178.34 C176 148.54, 199.61 120.49, 240.82 74.19 M150.28 178.34 C181.41 144.37, 210.61 109.12, 240.82 74.19 M155.92 177.94 C172.66 157.18, 189.62 136.03, 240.56 80.59 M155.92 177.94 C175.9 154.32, 197.34 128.5, 240.56 80.59 M164.19 174.53 C190.8 141.99, 218.09 112.62, 240.95 86.23 M164.19 174.53 C185.25 150.97, 205.43 127.41, 240.95 86.23 M171.8 171.87 C187.23 153.17, 201.43 136.3, 241.35 91.87 M171.8 171.87 C195.42 143.31, 219.82 114.99, 241.35 91.87 M180.07 168.46 C194.77 153.96, 206.38 139.4, 241.74 97.52 M180.07 168.46 C196.15 151.01, 213.47 131.94, 241.74 97.52 M187.68 165.8 C202.72 145.99, 220.33 127.42, 242.14 103.16 M187.68 165.8 C205.56 144.33, 225.32 123.06, 242.14 103.16 M195.29 163.14 C212.67 142.93, 231.5 120.09, 242.53 108.8 M195.29 163.14 C207.55 148.12, 220.33 132.59, 242.53 108.8 M213.4 148.41 C222.03 137.62, 229.88 128.79, 235.71 122.75 M213.4 148.41 C220.64 139.17, 227.8 130.13, 235.71 122.75" stroke="#b2f2bb" stroke-width="0.5" fill="none"></path><path d="M151.8 3.95 C165.45 5.24, 179.32 10.3, 191.15 16.62 C202.98 22.95, 214.89 32.54, 222.76 41.89 C230.64 51.23, 235.56 62.02, 238.41 72.7 C241.27 83.38, 242.34 95.14, 239.9 105.98 C237.47 116.83, 231.47 128.38, 223.79 137.77 C216.12 147.16, 205.29 155.74, 193.87 162.34 C182.45 168.94, 169.18 174.27, 155.27 177.37 C141.36 180.48, 124.85 181.79, 110.42 180.97 C96 180.15, 81.76 177.12, 68.73 172.48 C55.7 167.83, 42.14 161.13, 32.22 153.11 C22.3 145.09, 14.57 134.51, 9.22 124.37 C3.86 114.23, 0.42 103.1, 0.1 92.25 C-0.21 81.4, 2.4 69.57, 7.33 59.28 C12.27 48.98, 20.11 38.8, 29.72 30.47 C39.33 22.15, 51.84 14.43, 65 9.33 C78.17 4.23, 93.66 0.81, 108.7 -0.14 C123.74 -1.08, 146.96 2.46, 155.22 3.66 C163.48 4.85, 158.81 5.39, 158.27 7.03 M62.74 11.1 C73.73 5.38, 90.81 3.2, 105.27 1.78 C119.73 0.37, 135.38 0.01, 149.5 2.61 C163.63 5.21, 178.28 10.82, 190.02 17.39 C201.77 23.97, 211.87 33.03, 219.96 42.05 C228.06 51.07, 235.14 61.22, 238.59 71.51 C242.05 81.81, 243.18 93.18, 240.71 103.81 C238.24 114.45, 231.43 125.62, 223.79 135.31 C216.15 145, 206.15 154.92, 194.87 161.96 C183.58 168.99, 170.06 174.39, 156.09 177.5 C142.12 180.61, 125.24 181.39, 111.04 180.62 C96.83 179.86, 83.81 177.42, 70.86 172.89 C57.91 168.36, 43.49 161.33, 33.32 153.43 C23.15 145.54, 15.61 135.45, 9.84 125.51 C4.07 115.56, -0.73 104.44, -1.3 93.76 C-1.86 83.07, 1.14 71.97, 6.44 61.38 C11.75 50.78, 21.05 38.81, 30.54 30.19 C40.03 21.57, 57.74 12.94, 63.38 9.68 C69.01 6.41, 63.54 9.14, 64.36 10.62" stroke="#1e1e1e" stroke-width="1" fill="none"></path></g><g transform="translate(545.831811128241 719.9169515495876) rotate(0 77.8134765625 16.100000000000023)"><text x="77.8134765625" y="0" font-family="Helvetica, Segoe UI Emoji" font-size="28px" fill="#1e1e1e" text-anchor="middle" style="white-space: pre;" direction="ltr" dominant-baseline="text-before-edge">rightChildOp</text></g><g stroke-linecap="round"><g transform="translate(96.59989806071098 653.2417173821789) rotate(0 150.1367528623141 -229.7762603240259)"><path d="M-0.58 0.76 C49.05 -75.84, 248.53 -381.83, 298.63 -458.53 M1.31 0.11 C51.25 -76.31, 251.15 -383.9, 300.86 -460.31" stroke="#1e1e1e" stroke-width="1" fill="none"></path></g><g transform="translate(96.59989806071098 653.2417173821789) rotate(0 150.1367528623141 -229.7762603240259)"><path d="M294.09 -431.08 C297.59 -443.34, 299.91 -451.72, 300.86 -460.31 M294.09 -431.08 C295.41 -438.87, 297.41 -446.32, 300.86 -460.31" stroke="#1e1e1e" stroke-width="1" fill="none"></path></g><g transform="translate(96.59989806071098 653.2417173821789) rotate(0 150.1367528623141 -229.7762603240259)"><path d="M276.89 -442.27 C286.8 -450.33, 295.44 -454.61, 300.86 -460.31 M276.89 -442.27 C282.84 -447.06, 289.57 -451.42, 300.86 -460.31" stroke="#1e1e1e" stroke-width="1" fill="none"></path></g></g><mask></mask><g stroke-linecap="round"><g transform="translate(661.5329483815531 649.0484014413428) rotate(0 -130.26564804211284 -228.5303118216608)"><path d="M0.52 0.53 C-42.95 -75.57, -216.92 -379.77, -260.48 -456.06 M-0.66 -0.23 C-44.27 -76.69, -217.59 -381.66, -261.06 -457.6" stroke="#1e1e1e" stroke-width="1" fill="none"></path></g><g transform="translate(661.5329483815531 649.0484014413428) rotate(0 -130.26564804211284 -228.5303118216608)"><path d="M-238.18 -438.19 C-244.98 -443.35, -251.62 -450.46, -261.06 -457.6 M-238.18 -438.19 C-244.85 -444.91, -251.16 -449.57, -261.06 -457.6" stroke="#1e1e1e" stroke-width="1" fill="none"></path></g><g transform="translate(661.5329483815531 649.0484014413428) rotate(0 -130.26564804211284 -228.5303118216608)"><path d="M-256.01 -428.02 C-256.93 -436.64, -257.64 -447.13, -261.06 -457.6 M-256.01 -428.02 C-257.29 -437.63, -258.26 -445.33, -261.06 -457.6" stroke="#1e1e1e" stroke-width="1" fill="none"></path></g></g><mask></mask><g transform="translate(2006.7044559598598 275.5889257473561) rotate(0 168.861328125 16.099999999999994)"><text x="0" y="0" font-family="Helvetica, Segoe UI Emoji" font-size="28px" fill="#1971c2" text-anchor="start" style="white-space: pre;" direction="ltr" dominant-baseline="text-before-edge">rightChildRequiredProperty</text></g><g transform="translate(2022.1567088018655 759.1923041540595) rotate(0 154.0751953125 16.100000000000023)"><text x="0" y="0" font-family="Helvetica, Segoe UI Emoji" font-size="28px" fill="#1e1e1e" text-anchor="start" style="white-space: pre;" direction="ltr" dominant-baseline="text-before-edge">rightChildOutputProperty</text></g><g stroke-linecap="round" transform="translate(2058.252518994579 476.38299364159775) rotate(0 117.4245112764902 78.01935180609979)"><path d="M147.5 19.75 C171.02 35.65, 192.03 48.16, 205.35 59.25 M147.5 19.75 C162.23 29.62, 176.01 39.5, 205.35 59.25 M205.35 59.25 C236.09 77.69, 235.38 77.88, 205.35 98.75 M205.35 59.25 C235.45 81.1, 233.22 79.09, 205.35 98.75 M205.35 98.75 C184.38 112.12, 163.52 125.51, 147.5 136.29 M205.35 98.75 C185.96 110.18, 168.57 122.21, 147.5 136.29 M147.5 136.29 C117.79 156.95, 118.48 155.45, 88.5 136.29 M147.5 136.29 C117.54 155.43, 116.87 155.43, 88.5 136.29 M88.5 136.29 C64.43 121.29, 43.37 105.25, 29.5 98.75 M88.5 136.29 C75.99 126.49, 62.9 119.33, 29.5 98.75 M29.5 98.75 C1.8 79.32, -0.23 79.49, 29.5 59.25 M29.5 98.75 C-0.09 77.25, 0.83 79.41, 29.5 59.25 M29.5 59.25 C41.09 50.89, 56.45 41.55, 88.5 19.75 M29.5 59.25 C50.31 45.98, 71.61 31.72, 88.5 19.75 M88.5 19.75 C118.55 -1.38, 118.54 -1.19, 147.5 19.75 M88.5 19.75 C120.09 -0.98, 117.54 -0.85, 147.5 19.75" stroke="#1e1e1e" stroke-width="1" fill="none"></path></g><g transform="translate(2123.3407511953246 522.1926695446477) rotate(0 52.1240234375 32.19999999999999)"><text x="52.1240234375" y="0" font-family="Helvetica, Segoe UI Emoji" font-size="28px" fill="#1e1e1e" text-anchor="middle" style="white-space: pre;" direction="ltr" dominant-baseline="text-before-edge">isSatifsy</text><text x="52.1240234375" y="32.199999999999996" font-family="Helvetica, Segoe UI Emoji" font-size="28px" fill="#1e1e1e" text-anchor="middle" style="white-space: pre;" direction="ltr" dominant-baseline="text-before-edge">?</text></g><g stroke-linecap="round"><g transform="translate(2177.9443742921785 756.5992808129431) rotate(0 -1.3671717454280952 -63.63210691788737)"><path d="M-0.13 -0.04 C-0.59 -21.23, -2.31 -105.82, -2.77 -127.02 M0.08 -0.19 C-0.38 -21.43, -2.31 -106.07, -2.81 -127.23" stroke="#1e1e1e" stroke-width="1" fill="none"></path></g><g transform="translate(2177.9443742921785 756.5992808129431) rotate(0 -1.3671717454280952 -63.63210691788737)"><path d="M8.1 -99.28 C4.99 -106.71, 2.3 -114.62, -2.81 -127.23 M8.1 -99.28 C5.66 -105.5, 3.34 -111.58, -2.81 -127.23" stroke="#1e1e1e" stroke-width="1" fill="none"></path></g><g transform="translate(2177.9443742921785 756.5992808129431) rotate(0 -1.3671717454280952 -63.63210691788737)"><path d="M-12.42 -98.8 C-9.88 -106.33, -6.92 -114.38, -2.81 -127.23 M-12.42 -98.8 C-10.29 -105.14, -8.04 -111.32, -2.81 -127.23" stroke="#1e1e1e" stroke-width="1" fill="none"></path></g></g><mask></mask><g mask="url(#mask-K_gY5mmCI_puwOMnmsN3n)" stroke-linecap="round"><g transform="translate(2176.0010504616903 479.20498214440227) rotate(0 -2.811915334629248 -81.96608988269519)"><path d="M-0.09 -0.13 C-0.1 -5.55, 0.98 -5.05, 0.01 -32.37 C-0.97 -59.69, -4.98 -142.12, -5.94 -164.08 M0.15 0.14 C0.12 -5.32, 0.94 -5.23, -0.09 -32.58 C-1.13 -59.93, -5.05 -142.04, -6.05 -163.94" stroke="#1e1e1e" stroke-width="1" fill="none"></path></g><g transform="translate(2176.0010504616903 479.20498214440227) rotate(0 -2.811915334629248 -81.96608988269519)"><path d="M5.51 -136.26 C1.23 -145.72, -2.23 -155.45, -6.05 -163.94 M5.51 -136.26 C2.54 -143.26, -0.32 -150.24, -6.05 -163.94" stroke="#1e1e1e" stroke-width="1" fill="none"></path></g><g transform="translate(2176.0010504616903 479.20498214440227) rotate(0 -2.811915334629248 -81.96608988269519)"><path d="M-14.99 -135.3 C-12.19 -145.08, -8.57 -155.14, -6.05 -163.94 M-14.99 -135.3 C-12.8 -142.53, -10.5 -149.74, -6.05 -163.94" stroke="#1e1e1e" stroke-width="1" fill="none"></path></g></g><mask id="mask-K_gY5mmCI_puwOMnmsN3n"><rect x="0" y="0" fill="#fff" width="2281.8997928990475" height="743.2024557015219"></rect><rect x="2166.6190933804237" y="430.5936191445587" fill="#000" width="18.67578125" height="32.199999999999996" opacity="1"></rect></mask><g transform="translate(2166.6190933804237 430.59361914455883) rotate(0 6.570041746637344 -33.35472688285169)"><text x="9.337890625" y="0" font-family="Helvetica, Segoe UI Emoji" font-size="28px" fill="#1e1e1e" text-anchor="middle" style="white-space: pre;" direction="ltr" dominant-baseline="text-before-edge">Y</text></g><g stroke-linecap="round" transform="translate(2417.302150948375 498.5945535255614) rotate(0 77.4061973990897 47.95024508488095)"><path d="M5.73 6.3 C5.73 6.3, 5.73 6.3, 5.73 6.3 M5.73 6.3 C5.73 6.3, 5.73 6.3, 5.73 6.3 M0.22 18.74 C5.87 12.74, 8.16 8.86, 14.65 2.13 M0.22 18.74 C4.37 13.62, 8.08 9.62, 14.65 2.13 M0.61 24.38 C5.02 19.91, 9.92 13.17, 20.29 1.74 M0.61 24.38 C7.89 17.29, 15.2 8.29, 20.29 1.74 M0.35 30.78 C9.18 23.22, 16.23 10.83, 25.94 1.34 M0.35 30.78 C5.46 25.23, 11.6 18.3, 25.94 1.34 M0.74 36.42 C10.98 21.14, 24.49 11.25, 30.92 1.7 M0.74 36.42 C11.88 24.46, 21.73 13.16, 30.92 1.7 M0.48 42.82 C13.04 29.74, 23.79 14.25, 36.57 1.31 M0.48 42.82 C11.13 31, 21.57 19.36, 36.57 1.31 M0.22 49.22 C7.86 37.89, 17.57 29.44, 41.55 1.67 M0.22 49.22 C9.29 37.51, 19.87 25.91, 41.55 1.67 M0.62 54.86 C16.98 37.35, 31.87 19.37, 47.2 1.28 M0.62 54.86 C13.75 41.41, 25.76 26.68, 47.2 1.28 M0.35 61.26 C18.35 40.69, 32.86 22.62, 52.18 1.64 M0.35 61.26 C15.05 45.69, 29.56 29.1, 52.18 1.64 M0.75 66.9 C13.51 49.06, 28.33 35.25, 57.83 1.24 M0.75 66.9 C15.4 51.27, 28.71 33.89, 57.83 1.24 M0.49 73.3 C14.97 57.35, 29.98 43.45, 62.81 1.6 M0.49 73.3 C23.97 44.68, 48.37 17.43, 62.81 1.6 M1.54 78.19 C24.03 53.04, 45.59 29.1, 68.46 1.21 M1.54 78.19 C22.64 52.57, 46.93 25.87, 68.46 1.21 M2.59 83.08 C19.02 63.84, 36.6 43.25, 73.44 1.57 M2.59 83.08 C27.71 52.56, 54.14 22.57, 73.44 1.57 M4.29 87.21 C24.94 63.65, 40.78 42.1, 79.09 1.17 M4.29 87.21 C32.31 54.41, 59.64 22.48, 79.09 1.17 M7.31 89.83 C26.22 69.11, 44.61 48.82, 84.07 1.53 M7.31 89.83 C28.95 67.33, 47.85 43.75, 84.07 1.53 M9.68 93.21 C33 65.8, 54.21 41.65, 89.06 1.89 M9.68 93.21 C39.51 58.18, 68.4 24.33, 89.06 1.89 M14.01 94.33 C38.49 63.62, 64.55 37.16, 94.7 1.5 M14.01 94.33 C33.03 72.81, 53.22 50.54, 94.7 1.5 M18.99 94.69 C39 71.79, 56.74 50.44, 99.69 1.86 M18.99 94.69 C49.33 61.95, 78.99 28.64, 99.69 1.86 M23.33 95.8 C41.82 70.85, 63.43 49.83, 105.33 1.46 M23.33 95.8 C46.3 68.27, 68.89 43.43, 105.33 1.46 M26.34 98.43 C54.08 67.21, 80.38 38.97, 110.32 1.82 M26.34 98.43 C51.19 71.82, 76.31 41.9, 110.32 1.82 M31.99 98.03 C57.17 67.96, 84.88 38.4, 115.96 1.43 M31.99 98.03 C55.92 71.25, 79.06 44.02, 115.96 1.43 M36.97 98.39 C64.11 68.26, 88.76 41.1, 120.95 1.79 M36.97 98.39 C63.06 68.87, 87.65 40.08, 120.95 1.79 M42.62 98 C67.07 70.71, 87.7 46.12, 126.59 1.39 M42.62 98 C76.8 60.77, 109.32 22.56, 126.59 1.39 M47.6 98.36 C76.82 64.12, 111.06 26.88, 132.24 1 M47.6 98.36 C75.51 67.55, 102.02 35.84, 132.24 1 M53.25 97.96 C77.88 65.6, 105.41 37.97, 136.57 2.11 M53.25 97.96 C73.1 75.59, 92.47 53.6, 136.57 2.11 M58.23 98.32 C78.64 78.17, 95.79 53.58, 140.9 3.23 M58.23 98.32 C76.82 77.04, 94.4 54.98, 140.9 3.23 M63.88 97.93 C94.18 61.11, 124.3 26.47, 145.88 3.59 M63.88 97.93 C90.59 69.23, 116.59 39.87, 145.88 3.59 M68.86 98.29 C86.91 78.2, 106.61 55.06, 148.9 6.21 M68.86 98.29 C90.75 71.81, 112.9 48.04, 148.9 6.21 M74.51 97.89 C92.29 77.55, 106.27 57.62, 151.27 9.59 M74.51 97.89 C105.58 62.36, 134.85 28.05, 151.27 9.59 M79.49 98.25 C98.61 77.68, 115.67 55.59, 152.97 13.73 M79.49 98.25 C100.76 74.33, 122.94 47.62, 152.97 13.73 M85.14 97.86 C108.96 71.82, 130.86 48.5, 154.68 17.86 M85.14 97.86 C105.57 72.88, 128.41 47.82, 154.68 17.86 M90.12 98.22 C114.54 72.84, 136.21 46.65, 157.04 21.24 M90.12 98.22 C110.27 75.57, 129.64 52.45, 157.04 21.24 M95.77 97.82 C117.97 69.57, 142.62 41.7, 157.44 26.88 M95.77 97.82 C120.21 71.15, 143.93 42.75, 157.44 26.88 M100.75 98.18 C124.53 72.59, 146.7 46.89, 157.18 33.28 M100.75 98.18 C113.61 82.2, 128.52 66.12, 157.18 33.28 M106.4 97.79 C121.85 82, 135.99 66.51, 157.57 38.92 M106.4 97.79 C125.34 74.36, 145.97 51.49, 157.57 38.92 M111.38 98.15 C120.72 84.76, 129.21 75.46, 157.31 45.32 M111.38 98.15 C124.76 83.05, 137.22 68.1, 157.31 45.32 M116.37 98.51 C127.33 88.31, 137.02 76.44, 157.7 50.96 M116.37 98.51 C133.28 80.29, 149.92 59.68, 157.7 50.96 M122.02 98.12 C131.23 88.19, 138.47 81.85, 157.44 57.36 M122.02 98.12 C134.71 85.34, 146.06 70.94, 157.44 57.36 M127 98.48 C135.23 87.25, 144.51 81.35, 157.84 63 M127 98.48 C137.44 87.58, 147.38 75.91, 157.84 63 M132.65 98.08 C140.45 87.35, 150.89 80.07, 154.95 72.42 M132.65 98.08 C139.1 90.11, 145.04 83.64, 154.95 72.42 M139.6 96.18 C141.85 92.98, 144.61 90.97, 153.38 80.33 M139.6 96.18 C144.98 89.4, 149.58 84.39, 153.38 80.33" stroke="#ffec99" stroke-width="0.5" fill="none"></path><path d="M23.98 0 C51.56 1.58, 82.81 0.62, 130.84 0 M23.98 0 C58.48 1.65, 92.33 1.16, 130.84 0 M130.84 0 C145.74 0.69, 154.58 7.83, 154.81 23.98 M130.84 0 C144.81 0.07, 154.89 9.6, 154.81 23.98 M154.81 23.98 C155.75 41.75, 154.86 58.98, 154.81 71.93 M154.81 23.98 C155.55 36.65, 155.08 50.74, 154.81 71.93 M154.81 71.93 C153.38 87.57, 147.05 97.09, 130.84 95.9 M154.81 71.93 C155.44 87.08, 147.77 94.34, 130.84 95.9 M130.84 95.9 C90.93 94.65, 55.08 95.11, 23.98 95.9 M130.84 95.9 C91.13 96.11, 53.14 96.79, 23.98 95.9 M23.98 95.9 C7.17 95.29, 1.48 87.97, 0 71.93 M23.98 95.9 C7.78 98.01, -0.86 87.89, 0 71.93 M0 71.93 C0.8 57.47, -1.28 44.26, 0 23.98 M0 71.93 C0.2 54.56, -0.86 36.23, 0 23.98 M0 23.98 C-0.14 8.2, 9.56 -0.36, 23.98 0 M0 23.98 C-1.76 6.14, 7.37 0.24, 23.98 0" stroke="#1e1e1e" stroke-width="1" fill="none"></path></g><g transform="translate(2441.7981920974653 530.4447986104424) rotate(0 52.91015625 16.099999999999994)"><text x="52.91015625" y="0" font-family="Helvetica, Segoe UI Emoji" font-size="28px" fill="#1e1e1e" text-anchor="middle" style="white-space: pre;" direction="ltr" dominant-baseline="text-before-edge">Enforcer</text></g><g mask="url(#mask-fO76dddCIPAm8l65PedQm)" stroke-linecap="round"><g transform="translate(2287.0172773859013 554.4081903354491) rotate(0 64.61065564696628 -2.0254253709210275)"><path d="M0.03 0.04 C4.75 -0.1, 6.9 -0.06, 28.45 -0.75 C50 -1.43, 112.58 -3.55, 129.36 -4.09 M-0.14 -0.07 C4.55 -0.27, 6.77 -0.35, 28.34 -1 C49.91 -1.65, 112.51 -3.5, 129.3 -3.97" stroke="#1e1e1e" stroke-width="1" fill="none"></path></g><g transform="translate(2287.0172773859013 554.4081903354491) rotate(0 64.61065564696628 -2.0254253709210275)"><path d="M101.42 7.1 C112.48 2.77, 123.49 -1.5, 129.3 -3.97 M101.42 7.1 C108.1 4.38, 114.61 1.75, 129.3 -3.97" stroke="#1e1e1e" stroke-width="1" fill="none"></path></g><g transform="translate(2287.0172773859013 554.4081903354491) rotate(0 64.61065564696628 -2.0254253709210275)"><path d="M100.82 -13.41 C112.14 -9.65, 123.39 -5.83, 129.3 -3.97 M100.82 -13.41 C107.62 -11.27, 114.27 -9.02, 129.3 -3.97" stroke="#1e1e1e" stroke-width="1" fill="none"></path></g></g><mask id="mask-fO76dddCIPAm8l65PedQm"><rect x="0" y="0" fill="#fff" width="2516.302150948375" height="658.4014089760367"></rect><rect x="2305.334897584712" y="537.5157025538933" fill="#000" width="20.220703125" height="32.199999999999996" opacity="1"></rect></mask><g transform="translate(2305.334897584712 537.5157025538932) rotate(0 46.29303544815548 14.867062410634844)"><text x="10.1103515625" y="0" font-family="Helvetica, Segoe UI Emoji" font-size="28px" fill="#1e1e1e" text-anchor="middle" style="white-space: pre;" direction="ltr" dominant-baseline="text-before-edge">N</text></g><g stroke-linecap="round"><g transform="translate(2494.7435629951315 498.8545501997737) rotate(0 -156.83444712526443 -91.54904596282876)"><path d="M-0.28 -0.03 C-52.74 -30.03, -261.85 -151, -314.35 -181.15 M1.77 -1.08 C-50.9 -31.36, -262.98 -152.76, -315.44 -183.07" stroke="#1e1e1e" stroke-width="1" fill="none"></path></g><g transform="translate(2494.7435629951315 498.8545501997737) rotate(0 -156.83444712526443 -91.54904596282876)"><path d="M-285.88 -177.92 C-295.68 -180.15, -304.79 -183.39, -315.44 -183.07 M-285.88 -177.92 C-297.13 -178.78, -306.66 -180.93, -315.44 -183.07" stroke="#1e1e1e" stroke-width="1" fill="none"></path></g><g transform="translate(2494.7435629951315 498.8545501997737) rotate(0 -156.83444712526443 -91.54904596282876)"><path d="M-296.11 -160.13 C-302.35 -168.24, -308.07 -177.37, -315.44 -183.07 M-296.11 -160.13 C-303.82 -167.23, -309.74 -175.64, -315.44 -183.07" stroke="#1e1e1e" stroke-width="1" fill="none"></path></g></g><mask></mask><g transform="translate(1490.3083968398673 263.8530353169019) rotate(0 160.30273437500023 16.099999999999994)"><text x="0" y="0" font-family="Helvetica, Segoe UI Emoji" font-size="28px" fill="#1971c2" text-anchor="start" style="white-space: pre;" direction="ltr" dominant-baseline="text-before-edge">leftChildRequiredProperty</text></g><g transform="translate(1487.445879859597 747.8854223863929) rotate(0 145.5166015625 16.100000000000023)"><text x="0" y="0" font-family="Helvetica, Segoe UI Emoji" font-size="28px" fill="#1e1e1e" text-anchor="start" style="white-space: pre;" direction="ltr" dominant-baseline="text-before-edge">leftChildOutputProperty</text></g><g stroke-linecap="round" transform="translate(1526.2341335173646 465.3062165203354) rotate(0 117.42451127648997 78.01935180609979)"><path d="M147.5 19.75 C165.59 32.69, 189.06 47.2, 205.35 59.25 M147.5 19.75 C160.07 28.59, 173.26 37.41, 205.35 59.25 M205.35 59.25 C233.9 79.45, 236.39 80.7, 205.35 98.75 M205.35 59.25 C234.9 78.64, 233.57 81.19, 205.35 98.75 M205.35 98.75 C183.86 112.25, 163.41 126.75, 147.5 136.29 M205.35 98.75 C188.69 108.38, 173.44 118.89, 147.5 136.29 M147.5 136.29 C119.77 155.05, 116.66 155.19, 88.5 136.29 M147.5 136.29 C119.5 155.45, 117.11 156.73, 88.5 136.29 M88.5 136.29 C65.1 122.21, 43.42 107.12, 29.5 98.75 M88.5 136.29 C66.85 121.87, 44.56 108.73, 29.5 98.75 M29.5 98.75 C1.59 80.14, 1.78 80.43, 29.5 59.25 M29.5 98.75 C-0.37 77.36, -2.08 79.09, 29.5 59.25 M29.5 59.25 C49.61 47.19, 65.6 33.12, 88.5 19.75 M29.5 59.25 C42.84 49.42, 55.04 41.97, 88.5 19.75 M88.5 19.75 C118.46 -0.48, 118.41 1.44, 147.5 19.75 M88.5 19.75 C119.92 -1.52, 118.71 -0.49, 147.5 19.75" stroke="#1e1e1e" stroke-width="1" fill="none"></path></g><g transform="translate(1591.3223657181093 511.1158924233854) rotate(0 52.1240234375 32.19999999999999)"><text x="52.1240234375" y="0" font-family="Helvetica, Segoe UI Emoji" font-size="28px" fill="#1e1e1e" text-anchor="middle" style="white-space: pre;" direction="ltr" dominant-baseline="text-before-edge">isSatifsy</text><text x="52.1240234375" y="32.199999999999996" font-family="Helvetica, Segoe UI Emoji" font-size="28px" fill="#1e1e1e" text-anchor="middle" style="white-space: pre;" direction="ltr" dominant-baseline="text-before-edge">?</text></g><g stroke-linecap="round"><g transform="translate(1635.3773749425854 745.2923990452765) rotate(0 1.6557396112232254 -62.96180884884575)"><path d="M0.08 -0.11 C0.64 -21.15, 2.87 -105.09, 3.38 -126.09 M-0.07 0.16 C0.48 -20.78, 2.73 -104.88, 3.32 -125.9" stroke="#1e1e1e" stroke-width="1" fill="none"></path></g><g transform="translate(1635.3773749425854 745.2923990452765) rotate(0 1.6557396112232254 -62.96180884884575)"><path d="M12.81 -97.44 C9.73 -105.67, 7.11 -114.58, 3.32 -125.9 M12.81 -97.44 C10.1 -105.42, 7.61 -113.35, 3.32 -125.9" stroke="#1e1e1e" stroke-width="1" fill="none"></path></g><g transform="translate(1635.3773749425854 745.2923990452765) rotate(0 1.6557396112232254 -62.96180884884575)"><path d="M-7.71 -98 C-4.69 -106.08, -1.23 -114.82, 3.32 -125.9 M-7.71 -98 C-4.64 -105.81, -1.35 -113.58, 3.32 -125.9" stroke="#1e1e1e" stroke-width="1" fill="none"></path></g></g><mask></mask><g mask="url(#mask-zMwtvtMRDQ77kP_vg9idu)" stroke-linecap="round"><g transform="translate(1645.737527877519 469.1001171648726) rotate(0 -0.8991855070387373 -84.70375985099466)"><path d="M0.11 -0.01 C-0.11 -5.65, -0.87 -5.7, -1.2 -33.93 C-1.54 -62.16, -1.8 -146.83, -1.9 -169.39 M-0.02 -0.15 C-0.2 -5.75, -0.67 -5.57, -0.93 -33.76 C-1.2 -61.94, -1.45 -146.69, -1.61 -169.26" stroke="#1e1e1e" stroke-width="1" fill="none"></path></g><g transform="translate(1645.737527877519 469.1001171648726) rotate(0 -0.8991855070387373 -84.70375985099466)"><path d="M8.79 -141.12 C5.17 -151.16, 1.52 -160.96, -1.61 -169.26 M8.79 -141.12 C6.16 -148.47, 3.28 -156.11, -1.61 -169.26" stroke="#1e1e1e" stroke-width="1" fill="none"></path></g><g transform="translate(1645.737527877519 469.1001171648726) rotate(0 -0.8991855070387373 -84.70375985099466)"><path d="M-11.73 -141.02 C-8.2 -151.12, -4.69 -160.95, -1.61 -169.26 M-11.73 -141.02 C-8.9 -148.41, -6.32 -156.07, -1.61 -169.26" stroke="#1e1e1e" stroke-width="1" fill="none"></path></g></g><mask id="mask-zMwtvtMRDQ77kP_vg9idu"><rect x="0" y="0" fill="#fff" width="1747.520012008736" height="738.442890252481"></rect><rect x="1635.3237431626785" y="419.094408932385" fill="#000" width="18.67578125" height="32.199999999999996" opacity="1"></rect></mask><g transform="translate(1635.3237431626785 419.094408932385) rotate(0 9.514599207801666 -34.698051618507094)"><text x="9.337890625" y="0" font-family="Helvetica, Segoe UI Emoji" font-size="28px" fill="#1e1e1e" text-anchor="middle" style="white-space: pre;" direction="ltr" dominant-baseline="text-before-edge">Y</text></g><g stroke-linecap="round" transform="translate(1248.0435222966353 495.2923827251451) rotate(0 77.4061973990897 47.95024508488095)"><path d="M5.73 6.3 C5.73 6.3, 5.73 6.3, 5.73 6.3 M5.73 6.3 C5.73 6.3, 5.73 6.3, 5.73 6.3 M0.22 18.74 C7.57 12.51, 11.37 8.25, 15.31 1.38 M0.22 18.74 C5.08 12.92, 11.19 6.1, 15.31 1.38 M0.61 24.38 C7.19 15.08, 15.81 7.3, 20.95 0.98 M0.61 24.38 C6.01 17.55, 12.64 11.65, 20.95 0.98 M0.35 30.78 C9.73 19.16, 17.81 6.88, 26.59 0.59 M0.35 30.78 C7.76 23.24, 14.34 13.9, 26.59 0.59 M0.74 36.42 C11.28 25.71, 20.53 17.08, 32.23 0.2 M0.74 36.42 C9.43 27.7, 17.74 18.24, 32.23 0.2 M0.48 42.82 C12.05 29.62, 27.96 13.45, 37.22 0.56 M0.48 42.82 C12.55 27.3, 26.73 12.88, 37.22 0.56 M0.22 49.22 C12.65 36.5, 24.77 22.5, 42.86 0.16 M0.22 49.22 C8.02 39.16, 17.84 28.77, 42.86 0.16 M0.62 54.86 C15.39 34.98, 35.56 14.35, 47.85 0.52 M0.62 54.86 C14.86 38.79, 30.21 21.26, 47.85 0.52 M0.35 61.26 C10.59 46.36, 24.59 34.63, 53.49 0.13 M0.35 61.26 C17.03 41.21, 34.17 22.75, 53.49 0.13 M0.75 66.9 C13.53 53.72, 26.57 37.73, 58.48 0.49 M0.75 66.9 C15.31 51.3, 28.3 35.19, 58.48 0.49 M0.49 73.3 C19.96 48.79, 40.2 28.45, 64.12 0.09 M0.49 73.3 C19.85 51.26, 37.54 29.92, 64.12 0.09 M0.88 78.94 C26.62 49.64, 51.66 21.83, 69.11 0.45 M0.88 78.94 C14.94 62.38, 29.93 45.55, 69.11 0.45 M2.59 83.08 C18.39 63.7, 37.51 43.07, 74.75 0.06 M2.59 83.08 C26.12 55.09, 49.68 28.43, 74.75 0.06 M4.29 87.21 C30.36 57.62, 58.43 25.92, 79.74 0.42 M4.29 87.21 C24.14 63.12, 45.91 40.26, 79.74 0.42 M7.31 89.83 C32.38 60.4, 60.59 31.17, 85.38 0.02 M7.31 89.83 C27.1 67.67, 47.47 43.09, 85.38 0.02 M9.68 93.21 C39.13 57.35, 70.96 22.89, 90.37 0.38 M9.68 93.21 C27.56 74.41, 43.3 53.66, 90.37 0.38 M14.01 94.33 C32.01 70.25, 52.05 48.24, 96.01 -0.01 M14.01 94.33 C32.28 74.54, 48.62 55.7, 96.01 -0.01 M18.99 94.69 C46.31 63.07, 78.56 28.29, 101 0.35 M18.99 94.69 C37.28 74.04, 54.61 52.87, 101 0.35 M23.33 95.8 C43.73 67.92, 68.4 43.76, 106.64 -0.05 M23.33 95.8 C52.77 61.75, 81.24 28.57, 106.64 -0.05 M28.31 96.16 C47.61 74.83, 66.83 53.59, 111.63 0.31 M28.31 96.16 C48.31 74.99, 66.36 51.48, 111.63 0.31 M33.3 96.52 C52.33 77.45, 69.58 57.63, 117.28 -0.08 M33.3 96.52 C64.38 61.46, 95.58 25.31, 117.28 -0.08 M38.94 96.13 C62.89 66.61, 85.28 39.87, 122.26 0.28 M38.94 96.13 C72.66 58.1, 103.8 21.39, 122.26 0.28 M43.93 96.49 C69.39 63.8, 99.43 35.77, 127.91 -0.11 M43.93 96.49 C78.31 58.77, 110.54 19.41, 127.91 -0.11 M49.57 96.09 C68.67 75.4, 87.06 52.02, 132.24 1 M49.57 96.09 C81.48 59.32, 112.96 23.19, 132.24 1 M54.56 96.45 C81.24 63.05, 110.22 32.1, 136.57 2.11 M54.56 96.45 C72.76 75.77, 91.57 53.94, 136.57 2.11 M60.2 96.06 C83.58 68.69, 105.11 44.47, 141.55 2.47 M60.2 96.06 C83.26 69.67, 105.37 45.77, 141.55 2.47 M65.19 96.42 C89.49 69.93, 112.4 40.6, 145.88 3.59 M65.19 96.42 C92.38 65.32, 120.41 32.35, 145.88 3.59 M70.83 96.02 C95.3 68.89, 116.06 41.33, 148.9 6.21 M70.83 96.02 C94.94 68.55, 119.36 41.99, 148.9 6.21 M75.82 96.38 C99.2 72.34, 117.89 45.78, 151.27 9.59 M75.82 96.38 C97.96 70.46, 119.31 45.74, 151.27 9.59 M81.46 95.99 C103.29 72.98, 125.2 46.1, 152.97 13.73 M81.46 95.99 C101.59 71.89, 121.54 48.35, 152.97 13.73 M86.45 96.35 C107.46 73.28, 124.45 50.66, 154.68 17.86 M86.45 96.35 C106.25 71.17, 128.17 47.9, 154.68 17.86 M92.09 95.96 C106.97 78.19, 127.32 57.11, 155.07 23.5 M92.09 95.96 C104.81 80.5, 118.05 64.84, 155.07 23.5 M97.08 96.32 C116.88 72.7, 137.53 48.45, 155.47 29.15 M97.08 96.32 C114.23 78.84, 129.9 59.21, 155.47 29.15 M102.72 95.92 C120.84 75.97, 139.92 53.82, 155.21 35.54 M102.72 95.92 C114.47 81.75, 124.29 69.47, 155.21 35.54 M107.71 96.28 C116.92 83.01, 130.18 70.65, 154.95 41.94 M107.71 96.28 C124.85 76.45, 141.94 56.46, 154.95 41.94 M113.35 95.89 C130.07 77.1, 144.89 60.92, 155.34 47.58 M113.35 95.89 C122.29 83.52, 132.91 73.78, 155.34 47.58 M118.34 96.25 C127.46 82.38, 140.38 70.48, 155.08 53.98 M118.34 96.25 C131.79 79.76, 146.57 63.94, 155.08 53.98 M123.98 95.85 C136.45 84.19, 144.67 71.73, 155.47 59.63 M123.98 95.85 C136.11 82.01, 147.61 69.44, 155.47 59.63 M128.97 96.21 C138.09 87.17, 144.71 80.09, 155.21 66.02 M128.97 96.21 C137.3 87.45, 143.61 78.66, 155.21 66.02 M134.61 95.82 C140.45 89.23, 144.25 82.6, 154.95 72.42 M134.61 95.82 C140.36 88.49, 146.35 81.54, 154.95 72.42 M141.57 93.91 C145.6 90.96, 148.52 84.65, 153.38 80.33 M141.57 93.91 C143.69 90.54, 147.2 86.66, 153.38 80.33" stroke="#ffec99" stroke-width="0.5" fill="none"></path><path d="M23.98 0 C46.31 -0.09, 70.46 2.4, 130.84 0 M23.98 0 C64.53 1.12, 106.99 -0.05, 130.84 0 M130.84 0 C146.76 0.48, 154.13 9.9, 154.81 23.98 M130.84 0 C146.38 -0.58, 155.33 8.08, 154.81 23.98 M154.81 23.98 C153.47 36.04, 153.49 43.23, 154.81 71.93 M154.81 23.98 C154.74 36.62, 155.9 48.85, 154.81 71.93 M154.81 71.93 C152.95 86.88, 147.48 95.48, 130.84 95.9 M154.81 71.93 C154.53 89.55, 144.7 96.53, 130.84 95.9 M130.84 95.9 C99.99 96.98, 69.68 97.17, 23.98 95.9 M130.84 95.9 C90.24 95.18, 51.55 95.35, 23.98 95.9 M23.98 95.9 C9.6 97.86, 0.63 87.62, 0 71.93 M23.98 95.9 C6.57 93.99, 2.27 89.02, 0 71.93 M0 71.93 C0.78 53.59, -0.01 34.76, 0 23.98 M0 71.93 C-0.09 53.87, 0.59 36.77, 0 23.98 M0 23.98 C-0.05 9.51, 7.3 1.73, 23.98 0 M0 23.98 C0.63 9.89, 9.16 1.56, 23.98 0" stroke="#1e1e1e" stroke-width="1" fill="none"></path></g><g transform="translate(1272.5395634457254 527.142627810026) rotate(0 52.91015625 16.099999999999994)"><text x="52.91015625" y="0" font-family="Helvetica, Segoe UI Emoji" font-size="28px" fill="#1e1e1e" text-anchor="middle" style="white-space: pre;" direction="ltr" dominant-baseline="text-before-edge">Enforcer</text></g><g transform="translate(1820.5166636753493 41.606754538618844) rotate(0 94.9375 16.099999999999998)"><text x="0" y="0" font-family="Helvetica, Segoe UI Emoji" font-size="28px" fill="#1e1e1e" text-anchor="start" style="white-space: pre;" direction="ltr" dominant-baseline="text-before-edge">OutputProperty</text></g><g stroke-linecap="round"><g transform="translate(1663.4611222686262 254.31701758988928) rotate(0 113.28906431320638 -87.07747671759013)"><path d="M-0.28 -0.46 C37.47 -29.32, 188.92 -143.27, 226.86 -172.09 M1.77 -1.75 C39.34 -30.4, 188.42 -145.27, 225.94 -173.69" stroke="#1e1e1e" stroke-width="1" fill="none"></path></g><g transform="translate(1663.4611222686262 254.31701758988928) rotate(0 113.28906431320638 -87.07747671759013)"><path d="M209.78 -148.42 C214.07 -156.56, 221.78 -164.01, 225.94 -173.69 M209.78 -148.42 C214.07 -156.13, 218.5 -163.12, 225.94 -173.69" stroke="#1e1e1e" stroke-width="1" fill="none"></path></g><g transform="translate(1663.4611222686262 254.31701758988928) rotate(0 113.28906431320638 -87.07747671759013)"><path d="M197.31 -164.72 C205.82 -167.5, 217.6 -169.62, 225.94 -173.69 M197.31 -164.72 C204.93 -167.96, 212.76 -170.5, 225.94 -173.69" stroke="#1e1e1e" stroke-width="1" fill="none"></path></g></g><mask></mask><g stroke-linecap="round"><g transform="translate(2169.740819372344 282.9256566795357) rotate(0 -131.4207568251013 -102.0482986306804)"><path d="M0.59 0.07 C-43.33 -34.08, -218.82 -170.25, -262.57 -204.17 M-0.56 -0.94 C-44.71 -34.96, -219.81 -168.61, -263.43 -202.7" stroke="#1e1e1e" stroke-width="1" fill="none"></path></g><g transform="translate(2169.740819372344 282.9256566795357) rotate(0 -131.4207568251013 -102.0482986306804)"><path d="M-234.84 -193.61 C-245.62 -196.62, -256.81 -199.01, -263.43 -202.7 M-234.84 -193.61 C-245.81 -197.09, -255.42 -201.09, -263.43 -202.7" stroke="#1e1e1e" stroke-width="1" fill="none"></path></g><g transform="translate(2169.740819372344 282.9256566795357) rotate(0 -131.4207568251013 -102.0482986306804)"><path d="M-247.37 -177.36 C-253.5 -186.6, -259.93 -195.15, -263.43 -202.7 M-247.37 -177.36 C-254.01 -186.43, -259.25 -196.1, -263.43 -202.7" stroke="#1e1e1e" stroke-width="1" fill="none"></path></g></g><mask></mask><g mask="url(#mask-SzFLqV_7ErvPXhzkOFlV9)" stroke-linecap="round"><g transform="translate(1525.4055311432303 543.8854058971458) rotate(0 -59.2879764035938 0.7130052171745547)"><path d="M0.04 0.14 C-3.43 0.17, -0.92 0.06, -20.68 0.26 C-40.43 0.46, -102.22 1.19, -118.5 1.34 M-0.12 0.09 C-3.55 0.13, -0.64 0.24, -20.39 0.41 C-40.14 0.58, -102.29 0.96, -118.61 1.11" stroke="#1e1e1e" stroke-width="1" fill="none"></path></g><g transform="translate(1525.4055311432303 543.8854058971458) rotate(0 -59.2879764035938 0.7130052171745547)"><path d="M-90.5 -9.36 C-100.98 -5.51, -112.2 -1.4, -118.61 1.11 M-90.5 -9.36 C-101.16 -5.36, -111.58 -1.61, -118.61 1.11" stroke="#1e1e1e" stroke-width="1" fill="none"></path></g><g transform="translate(1525.4055311432303 543.8854058971458) rotate(0 -59.2879764035938 0.7130052171745547)"><path d="M-90.35 11.16 C-100.9 7.15, -112.18 3.4, -118.61 1.11 M-90.35 11.16 C-101.08 7.46, -111.56 3.51, -118.61 1.11" stroke="#1e1e1e" stroke-width="1" fill="none"></path></g></g><mask id="mask-SzFLqV_7ErvPXhzkOFlV9"><rect x="0" y="0" fill="#fff" width="1743.8735189596428" height="645.1109704842852"></rect><rect x="1494.7059707497283" y="528.1333406498375" fill="#000" width="20.220703125" height="32.199999999999996" opacity="1"></rect></mask><g transform="translate(1494.7059707497283 528.1333406498377) rotate(0 -28.588416010091805 16.46507046448278)"><text x="10.1103515625" y="0" font-family="Helvetica, Segoe UI Emoji" font-size="28px" fill="#1e1e1e" text-anchor="middle" style="white-space: pre;" direction="ltr" dominant-baseline="text-before-edge">N</text></g><g stroke-linecap="round"><g transform="translate(1329.4327952064477 492.6651217387946) rotate(0 155.25960798766528 -96.3989167114405)"><path d="M0.49 -0.44 C52.19 -32.67, 259.58 -160.56, 311.24 -192.35 M-0.72 -1.72 C50.72 -33.23, 257.93 -158.93, 310.18 -190.8" stroke="#1e1e1e" stroke-width="1" fill="none"></path></g><g transform="translate(1329.4327952064477 492.6651217387946) rotate(0 155.25960798766528 -96.3989167114405)"><path d="M291.42 -167.39 C297.69 -176.83, 305.7 -187.2, 310.18 -190.8 M291.42 -167.39 C299.87 -176.37, 306.64 -185.73, 310.18 -190.8" stroke="#1e1e1e" stroke-width="1" fill="none"></path></g><g transform="translate(1329.4327952064477 492.6651217387946) rotate(0 155.25960798766528 -96.3989167114405)"><path d="M280.76 -184.92 C291.28 -187.66, 303.39 -191.29, 310.18 -190.8 M280.76 -184.92 C293.33 -187.04, 304.35 -189.42, 310.18 -190.8" stroke="#1e1e1e" stroke-width="1" fill="none"></path></g></g><mask></mask><g stroke-linecap="round"><g transform="translate(717.3459772138012 326.8332546664392) rotate(0 279.4859791147485 1.5411680710282099)"><path d="M-0.02 -0.14 C93.16 0.38, 466 2.53, 559.18 3.09 M-0.21 0.11 C92.94 0.67, 465.9 2.67, 559.11 3.23" stroke="#1e1e1e" stroke-width="4" fill="none"></path></g><g transform="translate(717.3459772138012 326.8332546664392) rotate(0 279.4859791147485 1.5411680710282099)"><path d="M530.86 13.33 C541.61 9.56, 552.69 5.47, 559.11 3.23 M530.86 13.33 C539.97 10.14, 548.86 6.84, 559.11 3.23" stroke="#1e1e1e" stroke-width="4" fill="none"></path></g><g transform="translate(717.3459772138012 326.8332546664392) rotate(0 279.4859791147485 1.5411680710282099)"><path d="M530.98 -7.19 C541.67 -2.95, 552.7 0.96, 559.11 3.23 M530.98 -7.19 C540.06 -3.79, 548.92 -0.5, 559.11 3.23" stroke="#1e1e1e" stroke-width="4" fill="none"></path></g></g><mask></mask></svg>