<svg version="1.1" xmlns="http://www.w3.org/2000/svg" viewBox="0 0 1905.0235856619865 816.9828516454486" width="3810.047171323973" height="1633.9657032908972">
  <!-- svg-source:excalidraw -->
  
  <defs>
    <style class="style-fonts">
      @font-face {
        font-family: "Virgil";
        src: url("https://excalidraw.com/Virgil.woff2");
      }
      @font-face {
        font-family: "Cascadia";
        src: url("https://excalidraw.com/Cascadia.woff2");
      }
    </style>
    
  </defs>
  <rect x="0" y="0" width="1905.0235856619865" height="816.9828516454486" fill="#ffffff"></rect><g stroke-linecap="round" transform="translate(1218.539285194895 27.420759441884456) rotate(0 97.31921527319969 55.52014590327133)"><path d="M3.35 41.34 C3.35 41.34, 3.35 41.34, 3.35 41.34 M3.35 41.34 C3.35 41.34, 3.35 41.34, 3.35 41.34 M3.27 50.12 C13.19 39.81, 18.75 29.76, 26.5 22.33 M1.95 47.69 C10.67 38.63, 19.13 30.26, 24.67 22.51 M2.65 54.37 C8.75 47.23, 17.44 41.1, 32.29 17.45 M0.78 56.05 C11.38 44.22, 22.69 31.56, 33.26 17.97 M-0.9 62.05 C10.94 49.18, 21.87 38.55, 41.24 14.3 M0.45 62.57 C10.45 52.16, 20.98 40.8, 41.8 13.73 M2.27 66.25 C24.36 44.51, 41.97 18.36, 56.55 4.59 M3.13 66.17 C21.65 45.93, 39.65 24.9, 55.54 7.23 M5.53 70.86 C15.63 54.04, 30.19 43.59, 60.89 5.97 M4.39 70.13 C20.68 52.88, 32.74 38.13, 61.41 5.81 M8.51 72.64 C31.74 45.62, 52.05 20.71, 66.57 5.46 M7.69 73.04 C23.54 53.95, 39.32 34.89, 66.2 5.15 M10.38 74.31 C25.29 58.07, 37.47 41.67, 70.54 6.29 M9.82 76.9 C24.51 58.75, 41.19 40.6, 71.67 4.91 M10.5 78 C28.5 61.34, 45.42 39.99, 78.21 4.4 M11.54 79.43 C30.43 60.69, 45.7 42.85, 78.39 4.29 M13.07 82.54 C41.25 55.74, 62.58 26.53, 82.81 3.85 M14.33 82.38 C37.02 58.76, 58.22 32.55, 85.18 2.36 M15.7 84.93 C41.62 59.38, 67.46 27.64, 91.24 0.21 M17.01 85.85 C44.81 55.27, 71.39 23.86, 91.04 2.31 M18.75 88.88 C48.54 55.65, 76.68 24.1, 94.17 1.45 M21.13 89.84 C48.85 54.73, 77.52 20.55, 95.3 3.35 M24.61 91.73 C47.2 67.14, 66.42 40.32, 99.83 2.71 M24.35 90.08 C44.96 67.27, 67.04 42.39, 99.44 2.42 M26.31 93.83 C53.72 62.04, 82.38 32.22, 106.12 5.56 M27.07 92.33 C49.37 68.43, 69.83 44.73, 105.31 4.33 M29.51 94.39 C47.37 75.17, 67.1 53.84, 109.14 2.81 M30.5 95.21 C62.61 60.3, 91.43 25.62, 109.72 3.55 M35.74 98.37 C51.22 76.46, 70.25 53.63, 115.2 4.62 M34 97.97 C52.74 77.02, 69.44 58.42, 114.47 5.28 M37.73 98.84 C66.84 64.71, 98.95 31.38, 120.78 4.67 M38.39 99.85 C55.51 78.66, 74.51 58.19, 118.41 6.47 M40.03 102.88 C59.57 78.75, 79.78 54.35, 123.75 6.49 M40.71 100.87 C67.63 72.49, 93.29 41.32, 124.71 5.21 M46.31 101.94 C69.19 79.15, 91.68 53.4, 128.07 5.37 M45.52 103.14 C69.06 74.41, 96.17 44.83, 129.63 5.45 M47.94 105.2 C81.23 68.08, 113.82 30.45, 135.08 6.71 M49.62 103.18 C77.43 72.44, 104.13 41.84, 133.87 6.4 M54.68 103.23 C81.6 74.01, 108.67 39.61, 138.76 8.93 M54.72 104.49 C77.48 76.82, 101.56 49.4, 137.85 8.3 M57.92 106.34 C80.44 81.58, 102.79 55.62, 143.68 11.29 M58.79 104.83 C81.28 80.7, 102.21 56.01, 141.83 9.22 M64.02 105.71 C85.23 79.63, 107.9 52.52, 146.31 10.55 M63.46 106.35 C93.59 70.14, 127.17 35.09, 147.15 10.63 M66.88 106.27 C89.73 84.24, 112.73 57.7, 151.66 10.88 M66.62 107.31 C99.16 70.55, 131.33 33.08, 151.05 12.24 M70.58 106.3 C101.79 76.83, 128.01 42.69, 155.21 15.14 M73.19 108.72 C101.35 74.81, 130.96 40.48, 154.56 14.29 M76.07 109.12 C108.4 71.57, 138.56 38.26, 158.24 16.35 M77.77 108.86 C94.73 88.12, 112.39 69.29, 157.97 15.86 M82.34 111.12 C101.99 87.29, 120.37 68.15, 161.72 17.01 M81.98 110.35 C108.63 81.07, 132.93 51.46, 162.75 17.19 M86.49 108.48 C104.7 90.29, 118.4 68.67, 166.35 19.74 M86.53 109.75 C112.05 81.58, 137 51.44, 167.66 17.25 M91.62 110.71 C120.4 77.68, 150.33 45.4, 170.48 19.19 M93.19 110.04 C117.76 80.91, 143.53 50.37, 170.72 20.53 M96.19 109.85 C123.23 82.63, 144.11 50.45, 174.05 23.57 M98.18 110.79 C121.77 83.26, 145.62 56.08, 173.22 23.62 M102.55 109.31 C120.2 90.35, 134.95 70.13, 175.22 24.64 M102.85 109.88 C121.21 90.36, 138.26 67.47, 176.44 26.02 M107.64 111.47 C133.06 84.17, 155.71 58.57, 181.03 28.74 M108.32 110.09 C127.91 88.18, 148.69 65.96, 180.3 28.2 M113.6 109.35 C128.08 89.47, 146.39 69.84, 181.34 29.24 M112.25 109.71 C129.81 92.76, 144.95 74.27, 183.46 30.91 M117.03 110.71 C143.86 83.96, 165.2 55.25, 185.44 31.36 M118.14 109.52 C140.57 82.99, 162.58 57.36, 185.9 32.99 M124.33 109.44 C146.26 86.32, 166.57 62.85, 188.02 36.58 M124.7 111.17 C149.25 80.55, 175.01 49.61, 189.01 34.72 M130.91 107.4 C143.27 91.42, 156.55 77.31, 190.46 39.23 M131.15 107.96 C147.69 88.26, 162.84 70.79, 190.96 37.3 M137.29 105.6 C152.04 89.86, 164.94 73.63, 191.5 42.18 M137.37 106.92 C150.3 90.5, 163.43 76.56, 193.33 43.53 M144.25 106.05 C158.36 88.07, 176.36 68.86, 194.41 46.62 M145.15 103.61 C159.66 86.97, 175.37 68.89, 194.46 46.47 M151.54 103.35 C165.03 85.81, 179.82 71.8, 195.08 51.26 M150.89 102.68 C169.88 82.82, 186.38 61.42, 195.55 51.67 M159.11 101.38 C173.18 85.63, 185.81 72.11, 197.22 54.18 M158.95 99.44 C173.15 85.47, 186.98 68.11, 197.92 55.84 M173.02 88.56 C180.55 80.54, 190.46 71.49, 199.74 60.19 M173.61 88.13 C178.84 82.47, 185.91 74.05, 198.45 61.27" stroke="#b2f2bb" stroke-width="0.5" fill="none"></path><path d="M53.63 6.18 C64.18 2.22, 79.43 1.14, 92.5 0.85 C105.56 0.56, 119.8 1.76, 132.03 4.43 C144.27 7.1, 156.46 11.61, 165.92 16.84 C175.39 22.08, 183.92 28.91, 188.82 35.82 C193.73 42.73, 196.05 50.91, 195.35 58.3 C194.65 65.69, 190.77 73.22, 184.63 80.13 C178.48 87.04, 168.75 94.78, 158.46 99.76 C148.18 104.73, 135.75 108.35, 122.93 109.98 C110.11 111.61, 94.68 110.79, 81.55 109.56 C68.43 108.32, 55.15 106.57, 44.17 102.55 C33.19 98.53, 22.9 91.88, 15.66 85.46 C8.42 79.03, 2.84 71.29, 0.74 63.99 C-1.36 56.69, -0.6 48.96, 3.06 41.68 C6.73 34.39, 12.7 26.57, 22.73 20.26 C32.75 13.96, 54.87 6.62, 63.22 3.83 C71.57 1.04, 72.34 2.52, 72.81 3.52 M133.56 3.66 C146.06 5.3, 158.78 10.46, 168.03 15.82 C177.29 21.19, 184.49 28.56, 189.08 35.86 C193.66 43.17, 196.67 52.22, 195.54 59.67 C194.4 67.13, 188.71 74.04, 182.28 80.58 C175.86 87.13, 167.3 94.43, 156.97 98.97 C146.65 103.51, 132.83 105.78, 120.33 107.82 C107.83 109.85, 94.88 111.91, 81.97 111.15 C69.07 110.4, 54.25 107.36, 42.91 103.29 C31.57 99.21, 20.91 93.46, 13.94 86.71 C6.98 79.97, 2.87 70.56, 1.13 62.8 C-0.6 55.04, -0.17 47.47, 3.53 40.17 C7.24 32.87, 15.17 24.83, 23.36 19 C31.55 13.17, 40.99 8.25, 52.68 5.2 C64.37 2.15, 80.06 1.08, 93.52 0.72 C106.98 0.36, 127.06 2.29, 133.45 3.04 C139.83 3.78, 132.41 4.17, 131.81 5.2" stroke="#1e1e1e" stroke-width="1" fill="none"></path></g><g transform="translate(1267.8334548417674 70.68223368448616) rotate(0 48.20996856689453 12.5)"><text x="48.20996856689453" y="0" font-family="Virgil, Segoe UI Emoji" font-size="20px" fill="#1e1e1e" text-anchor="middle" style="white-space: pre;" direction="ltr" dominant-baseline="text-before-edge">PROJECT</text></g><g stroke-linecap="round" transform="translate(944.3904625309847 273.02260743229317) rotate(0 106.70016315004477 63.13927930261343)"><path d="M15.6 30.79 C15.6 30.79, 15.6 30.79, 15.6 30.79 M15.6 30.79 C15.6 30.79, 15.6 30.79, 15.6 30.79 M2.35 53.13 C11.93 41.15, 18.86 32.92, 28.58 23.2 M2.19 51.57 C11.08 42.54, 17.46 36, 27.09 23.31 M0.44 57.38 C13.89 46.7, 21.28 36.88, 38.3 16.32 M1.36 59.58 C15.67 43.49, 29.05 28.17, 40.4 15.81 M2.81 62.89 C16.4 46.67, 31.87 32.17, 44.06 16.38 M3.78 63.36 C18.05 44.56, 33.04 28.19, 45.97 14.41 M4.19 70.51 C19.54 50.64, 32.74 35.21, 51.92 12.25 M2.54 69.14 C20.66 50.63, 36.88 30.77, 51.63 13.04 M5.47 73.76 C21.26 56.67, 38.97 36.69, 61.37 10.21 M3.98 74.09 C17.64 58.39, 31.57 44.57, 60.14 9.91 M5.21 78.23 C27.11 56.8, 46.89 30.1, 65.21 10.43 M6.03 79.86 C20.57 61.84, 35.42 44.79, 65.96 8.05 M6.96 83.97 C29.89 56.79, 51.89 29.4, 73.62 5.18 M6.57 84.96 C19.04 68.93, 33.87 53.16, 74.27 7.59 M8.58 85.54 C25.68 68.48, 43.59 50.5, 79.51 3.39 M9.59 86.93 C29.95 63.55, 51.03 37.85, 81.31 4.38 M13.77 88.02 C34.05 64.09, 54.07 40.06, 88.58 2.58 M11.76 90.35 C37.77 62.45, 60.99 34.26, 87.29 1.97 M13.98 93.74 C35.3 72.2, 53.68 48.01, 92.08 2.73 M15.18 91.73 C45.02 59.49, 73.96 25.15, 92.17 3.55 M19.15 94.02 C42.32 68.51, 64.93 44.44, 98.05 3.58 M17.12 95.19 C40.75 68.31, 64.45 42.97, 97.75 3.33 M18.43 98.47 C45.88 68.88, 68.25 41.21, 104.8 2.35 M19.68 97.91 C43.82 69.37, 68.3 41.49, 104.17 2.29 M24.19 100.64 C49.01 73.53, 72.56 47.09, 110.27 2.33 M22.68 101.82 C53.22 67.2, 83.1 33.81, 108.21 2.85 M25.47 103.16 C61.62 61.61, 96.64 22.57, 114.07 4.21 M26.11 102.79 C55.29 71.25, 85.55 37.61, 114.14 2.28 M27.93 107.34 C65.17 69.54, 97.91 29.9, 117.51 4.81 M28.97 106.31 C62.77 68.51, 95.94 31.18, 118.88 3.45 M31.28 109.81 C69.48 68.32, 102.97 29.54, 126.3 3.59 M33.69 108.18 C58.55 78.65, 83.18 48.05, 125.45 3.45 M36.65 109.38 C54.42 86.34, 76.51 66.15, 131.28 0.6 M36.39 109.46 C58.49 82.96, 82.34 58.28, 130.8 1.55 M41.97 113.47 C71.99 76.08, 106.46 37.89, 135.16 3.59 M41.2 112.86 C63.52 86.01, 85.38 60.68, 135.35 2.42 M43.3 114.62 C78.55 72.24, 110.57 34.1, 141.11 4.84 M44.57 113.51 C83.2 70.48, 119.61 28.98, 138.62 5.02 M49.6 114.26 C68.74 93.32, 88.85 69.17, 142.26 6.35 M48.93 114.57 C86.17 72.19, 121.69 32.88, 143.61 5.82 M52.06 118.71 C90.81 71.91, 124.95 31.45, 148.35 6.93 M53 117.46 C81.48 83.94, 110.24 50.46, 148.41 5.95 M54.83 118.89 C75.68 93.26, 95.25 71.01, 150.47 7.59 M55.4 119.53 C94.09 75.62, 129.09 34.93, 151.86 8.69 M61.06 122.12 C80.06 99.28, 100.56 76.11, 157.03 9.14 M59.68 120.01 C81.17 97.39, 102.01 74.05, 156.49 9.13 M62.91 120.08 C100.26 77.93, 137.83 34.37, 159.24 9.34 M63.27 121.92 C86.71 96.53, 108.62 72.55, 160.91 11.33 M69.65 122.86 C94.79 93.11, 117.93 66.79, 163.06 12.51 M68.46 122.29 C103.63 80.77, 139.95 39.15, 164.7 12.08 M72.35 124.4 C96.3 97.02, 119.92 69.17, 169.99 14.93 M74.09 123.62 C110.64 79.17, 147.16 35.67, 168.13 12.26 M77.2 122.54 C109.02 84.85, 143.02 48.24, 173.7 14.18 M77.77 123.97 C100.02 95.1, 124.99 67.71, 171.77 14.31 M82.29 124.97 C113.68 88.59, 144.23 51.1, 175.43 15.53 M83.62 123.01 C105.46 96.47, 129.91 71.43, 176.78 16.69 M88.98 123.56 C109.59 102.71, 128.44 76.8, 178.76 19.58 M86.54 124.39 C112.27 95.4, 136.96 67.23, 178.61 19.54 M93.17 124.73 C117.73 96.25, 145.28 66.5, 182.18 23.1 M92.5 126.19 C115.57 98.91, 137.6 71.92, 182.59 21.59 M98.19 127.38 C118.42 103.08, 140.62 78.36, 184.64 24.19 M96.25 126.88 C123.28 98.37, 146.68 69.39, 186.31 23.43 M101.31 125.43 C132.57 92.84, 163.11 59.15, 188.79 24.66 M100.88 125.96 C136.01 87.63, 169.02 47.95, 189.86 25.86 M105.97 126.53 C124.16 106.07, 143.82 81.79, 192.39 28.34 M106.9 128.72 C133.63 96.44, 161.37 64.34, 194.18 28.38 M113.64 125.12 C133.28 103.6, 152.96 80.39, 197.08 31.06 M113.08 127.34 C138.4 96.82, 164.6 66.15, 196.73 31.13 M116.7 124.84 C135.47 106.26, 154.45 84.25, 198.97 31.15 M118.28 125.4 C135.62 106.66, 153.14 86.23, 199.07 31.53 M125.71 124.41 C150.03 94.72, 179.75 63.45, 204.16 36.95 M123.64 125.81 C154.24 93.48, 182.81 58.7, 203.24 35.77 M131.44 125.47 C158.75 93.32, 184.36 62.52, 203.99 40.56 M131.54 124.69 C147.21 106.27, 161.97 87.99, 204.04 38.71 M138.34 121.75 C158.29 99.94, 177.55 74.63, 206.44 44.8 M135.99 122.6 C152.28 105.31, 168.23 86.3, 207.29 42.84 M143.82 121.4 C157.85 105.84, 172.99 87.29, 206.25 47.56 M142.91 123.01 C164.97 97.74, 187.21 71.98, 208.95 46.72 M149.65 121.4 C167.61 94.77, 189.38 71.13, 211.52 52.39 M148.41 120.65 C163.62 105.8, 177.64 89.32, 210.6 49.64 M153.41 122.92 C169.18 102.74, 188.27 83.21, 211.86 55.2 M153.21 123.05 C166.84 109.81, 178.11 94.06, 212.56 54.34 M162.32 117.65 C174.17 106.45, 187.37 89.34, 212.99 58.81 M161.37 118.85 C173.86 103.39, 187.65 89.81, 215.44 57.66 M168.26 117.55 C186.13 98.22, 201.59 79.45, 212.93 68.14 M170.3 115.63 C180.31 103.62, 191.01 91.62, 213.25 65.82 M178.27 112.36 C187.68 100.76, 201.85 86.39, 211.82 76 M178.15 113.54 C189.87 98.69, 203.19 82.73, 210.11 76.2" stroke="#a5d8ff" stroke-width="0.5" fill="none"></path><path d="M129.55 1.44 C143.52 2.22, 158.65 7.64, 170.42 12.68 C182.19 17.73, 192.98 24.22, 200.18 31.69 C207.38 39.16, 212.45 49.02, 213.61 57.51 C214.77 66, 211.7 74.61, 207.13 82.65 C202.56 90.68, 195.67 99.46, 186.19 105.72 C176.72 111.97, 163.77 116.65, 150.28 120.19 C136.8 123.74, 119.75 126.88, 105.26 127 C90.78 127.12, 76.41 124.64, 63.37 120.92 C50.32 117.21, 36.8 111.05, 26.97 104.69 C17.13 98.34, 8.9 90.75, 4.35 82.77 C-0.19 74.79, -2.16 65.46, -0.3 56.81 C1.56 48.17, 8.2 38.25, 15.49 30.92 C22.78 23.58, 31.7 17.79, 43.45 12.8 C55.2 7.81, 71.14 2.7, 85.99 0.97 C100.84 -0.76, 124.59 1.96, 132.57 2.42 C140.54 2.89, 134.44 2.68, 133.86 3.74 M78.04 2.64 C90.83 -0.54, 107.47 -0.97, 121.99 0.24 C136.52 1.45, 152.89 5.28, 165.19 9.89 C177.5 14.5, 188.09 20.85, 195.83 27.9 C203.56 34.94, 209.47 43.75, 211.59 52.13 C213.71 60.5, 212.06 69.91, 208.53 78.13 C205 86.36, 199.07 94.48, 190.42 101.47 C181.77 108.47, 169.47 116.24, 156.64 120.1 C143.82 123.97, 127.92 124.41, 113.48 124.66 C99.04 124.91, 83.8 124.38, 70 121.57 C56.2 118.77, 41.35 113.52, 30.69 107.85 C20.03 102.18, 11.27 95.36, 6.05 87.55 C0.84 79.74, -1.6 69.8, -0.61 60.98 C0.37 52.16, 5.24 42.63, 11.96 34.63 C18.68 26.62, 28.45 18.35, 39.7 12.95 C50.95 7.55, 72.74 4, 79.44 2.25 C86.14 0.5, 79.58 1.54, 79.92 2.45" stroke="#1e1e1e" stroke-width="1" fill="none"></path></g><g transform="translate(1025.6522341589412 323.5156741807973) rotate(0 25.48998260498047 12.5)"><text x="25.48998260498047" y="0" font-family="Virgil, Segoe UI Emoji" font-size="20px" fill="#1e1e1e" text-anchor="middle" style="white-space: pre;" direction="ltr" dominant-baseline="text-before-edge">JOIN</text></g><g stroke-linecap="round" transform="translate(1498.2987160472067 287.3939215282269) rotate(0 106.70016315004477 63.13927930261343)"><path d="M21.96 24.39 C21.96 24.39, 21.96 24.39, 21.96 24.39 M21.96 24.39 C21.96 24.39, 21.96 24.39, 21.96 24.39 M4.48 49.92 C11.69 41.01, 16.74 35.38, 32.45 21.98 M5.51 50.11 C12.82 40.71, 22.78 30.31, 30.16 20.99 M3.86 58.7 C16.69 45.69, 26.03 29.98, 40.1 16.12 M5.17 56.21 C17.58 41.67, 30.18 27.77, 41.05 14.95 M4.06 62.67 C19.47 47.47, 32.36 29.49, 50.41 10.34 M4.3 64.02 C22.53 43.55, 41.49 20.95, 49.37 12.07 M4.35 70.83 C25.6 46.12, 46.33 22.85, 59.45 8.97 M3.52 70.88 C20.61 47.82, 39.84 27.33, 57.19 7.81 M2.24 75.67 C19.17 59.85, 34.86 40.07, 63.2 8.22 M3.46 77.06 C27.35 48.92, 50.43 22.34, 64.76 7.34 M6.73 81.28 C23.9 55.58, 42.36 35.17, 70.72 4.28 M6.01 80.74 C26.09 55.57, 48.21 30.02, 69.82 4.62 M6.39 82.53 C24.08 62.08, 43.13 41.63, 75.53 4.71 M8.51 84.2 C35.53 51.68, 61.73 20.44, 77 4.68 M9.83 85.41 C39.38 56.15, 67.9 21.24, 82.23 3.6 M10.29 87.04 C25.8 69.06, 41.16 52.04, 82.48 3.74 M12.41 90.63 C38.07 64.26, 60.71 37.48, 91.13 2.87 M13.41 88.77 C38.16 60.42, 65.72 30.01, 88.71 1.48 M14.2 94.04 C37.64 65.89, 62.46 42.34, 95.47 0.95 M14.69 92.11 C33.78 71.8, 51.95 50.24, 95.72 0.61 M16.55 95.48 C35.9 73.6, 57.09 51.7, 101.53 -0.58 M18.38 96.82 C39.3 71.22, 59 48.07, 101.23 0.46 M20.12 99.16 C45.89 69.59, 73.42 41, 103.7 0.32 M20.17 99.01 C52.39 62.64, 82.93 26.44, 105.82 1.23 M23.41 100.78 C47.22 75.4, 68.61 50.09, 110.64 3.56 M23.88 101.19 C54.9 66.33, 84.84 31.65, 111.15 2.35 M27.52 101.43 C56.19 70.16, 82.3 38.04, 114.46 3.06 M28.22 103.1 C62.09 64.33, 97.13 23.18, 115.2 1.56 M32 105.19 C60.79 71.01, 95.04 32.18, 118.74 0.87 M30.72 106.26 C63.14 68.42, 95.28 32.43, 120.35 1.91 M32.84 106.99 C55.3 84.75, 73.88 59.01, 127.09 4.52 M33.76 108.78 C54.56 85.91, 73.47 64.87, 126.03 2.14 M39.09 110.52 C69.63 73.83, 98.55 38.44, 131.19 5.17 M37.32 110.18 C59.79 84.78, 79.62 62.18, 128.74 3.69 M39.51 111.37 C64.23 81.64, 91.12 52.74, 133.98 3.96 M41.62 111.46 C65 84.2, 91.06 53.53, 135.41 4.03 M45.15 116.06 C66.77 91.26, 85 64.97, 138.4 5.92 M43.78 115.14 C78.9 74.19, 114.11 32.96, 140.11 5.5 M50.03 116.05 C82.55 76.03, 115.52 38.96, 147.24 5.58 M48.58 116.1 C84.31 73.19, 123.21 30.38, 146.05 3.82 M49.73 118.77 C89.91 74.33, 124.21 34.61, 147.21 5.58 M51.12 119.62 C73.26 91.95, 97.35 65.14, 149.65 5.71 M57.31 117.23 C84.91 87.07, 112.91 53.97, 154.1 8.29 M56.76 119.93 C85.94 83.48, 118.22 48.06, 153.74 7.4 M59.38 121.25 C83.99 95.87, 102.75 73, 156.19 7.74 M61.3 120.33 C92.78 81.1, 127.35 41.65, 157.13 9.47 M65.3 121 C87.29 94.39, 107.08 69.32, 160.79 12.18 M64.21 121.7 C101.07 77.78, 138.66 34.49, 161.13 10.41 M67.82 120.88 C98.75 87.04, 127.76 54.61, 164.91 11.72 M69.35 123.33 C96.82 91.41, 123.79 59.24, 164.3 13.19 M73.04 123.42 C108.71 83.48, 139.71 46.24, 169.92 13.99 M74.98 123.73 C98.41 94.61, 125.21 64.11, 169.17 13.79 M78.42 125.65 C102.28 98.06, 124.08 68.53, 174.73 16.23 M77.85 123.93 C102.26 96.56, 124.41 70.84, 173.52 14.31 M81.31 123.98 C117.42 84.69, 151.49 44.32, 175.21 16.68 M83.77 125.33 C118.9 85.55, 153.5 45.03, 175.83 17.25 M88.98 126.54 C107.19 102.24, 129.26 77.92, 182.04 17.95 M87.74 126.97 C118.52 91.37, 148.59 57.41, 181.17 17.82 M92.57 125.09 C118.76 95.46, 146.04 64.19, 183.44 19.16 M91.87 126.37 C119.23 96.33, 146.84 65.68, 184.04 21.04 M96.36 128.18 C131.33 84.13, 169.86 45.75, 188.35 21.77 M94.88 127.58 C116.56 102.92, 138.78 77.79, 187.58 22.5 M102.38 129.39 C124.14 102.12, 144.75 78.2, 190.45 24.26 M100.57 128.48 C131.29 93.14, 162.01 58.01, 189.69 25.96 M108.42 128.88 C139.35 90.33, 170.23 54.38, 194.8 29.22 M108.08 127.14 C138.91 89.82, 172.96 51.13, 193.68 27.38 M111.98 126.39 C145.21 90.12, 178.28 51.76, 195.77 31.74 M113.75 127.82 C128.86 106.46, 147.79 86.98, 196.29 30.29 M116.85 124.93 C140.8 101.32, 162.38 72.69, 201.67 32.28 M117.87 127.6 C149.03 92.02, 179.65 56.48, 200.4 33.54 M125.1 128.87 C142.19 104.25, 160.45 83.93, 204.71 37.05 M122.68 127.37 C148.66 97, 176.59 67.23, 203.02 36.64 M128.36 126.3 C155.21 97.22, 179.02 67.02, 206.28 38.63 M129.71 127.18 C152.58 100.97, 176.52 73.16, 206.65 39.33 M138.42 124.71 C163.7 90.93, 193.4 57.99, 209.61 41.34 M136.48 124.82 C158.64 98.06, 180.5 74.42, 207.98 41.88 M144.64 120.09 C161.46 101.9, 179.69 81.14, 211.03 44.15 M143.92 121.86 C166.38 96.94, 188.82 70.91, 211.29 44.91 M151.75 120.29 C170.57 96.32, 189.78 75.85, 211.93 50.22 M152.32 117.96 C168.18 102.44, 182.97 84.79, 212.35 49.93 M157.93 117.41 C171.81 102.27, 185.36 84.71, 213.38 54.63 M159.34 116.19 C171.87 103.05, 182.37 89.6, 213.19 55.95 M165.99 114.17 C178.89 102.06, 189.95 89.63, 212.77 57.68 M167.37 114.34 C179.92 97.83, 192.8 82.03, 214.78 59.72 M172.11 109.78 C185.4 96.93, 196.79 84.72, 213.15 66.06 M174.27 111.73 C182.65 99.97, 193.56 90.07, 214.44 65.89 M177.11 114.86 C182.28 105.47, 190.31 98.95, 211.12 78.47 M176.76 113.05 C185.82 104.32, 194.49 94.41, 209.78 77.51" stroke="#a5d8ff" stroke-width="0.5" fill="none"></path><path d="M143.55 3.34 C156.95 5.24, 169.54 11.46, 180.02 17.34 C190.5 23.23, 200.81 30.8, 206.43 38.67 C212.05 46.55, 214.41 55.98, 213.76 64.59 C213.11 73.21, 208.99 82.62, 202.52 90.38 C196.05 98.14, 185.93 105.6, 174.92 111.14 C163.92 116.69, 150.11 121.17, 136.48 123.64 C122.85 126.12, 107.54 127.09, 93.14 125.99 C78.74 124.9, 62.55 121.8, 50.07 117.09 C37.59 112.38, 26.4 104.68, 18.25 97.73 C10.1 90.77, 3.58 83.54, 1.18 75.39 C-1.22 67.23, 0.35 57.31, 3.85 48.78 C7.35 40.24, 13.32 31.02, 22.17 24.16 C31.02 17.3, 44.24 11.74, 56.95 7.62 C69.66 3.5, 83.38 -0.21, 98.43 -0.56 C113.48 -0.9, 138.52 4.28, 147.26 5.55 C156 6.83, 151.49 6.41, 150.87 7.09 M152.48 5.86 C165.33 8.59, 179.19 16.59, 188.61 23.31 C198.03 30.03, 204.84 38.14, 209 46.18 C213.16 54.23, 215.46 62.93, 213.57 71.57 C211.69 80.21, 205.64 90.9, 197.67 98 C189.7 105.1, 178.11 109.41, 165.74 114.17 C153.38 118.92, 137.52 124.92, 123.48 126.53 C109.43 128.14, 95.29 126.04, 81.48 123.83 C67.67 121.61, 51.98 118.33, 40.62 113.25 C29.27 108.16, 20.11 100.79, 13.33 93.32 C6.55 85.85, 0.92 76.96, -0.04 68.45 C-1 59.94, 2.54 50.38, 7.57 42.25 C12.6 34.12, 20.01 26.19, 30.14 19.67 C40.27 13.16, 54.89 6.29, 68.34 3.16 C81.8 0.02, 96.41 0.53, 110.88 0.85 C125.34 1.17, 148.06 4.05, 155.14 5.08 C162.21 6.11, 154.33 5.95, 153.32 7.04" stroke="#1e1e1e" stroke-width="1" fill="none"></path></g><g transform="translate(1579.5604876751631 337.886988276731) rotate(0 25.48998260498047 12.5)"><text x="25.48998260498047" y="0" font-family="Virgil, Segoe UI Emoji" font-size="20px" fill="#1e1e1e" text-anchor="middle" style="white-space: pre;" direction="ltr" dominant-baseline="text-before-edge">JOIN</text></g><g stroke-linecap="round"><g transform="translate(1066.341705836291 272.66894037764564) rotate(0 115.80633213814781 -65.96399724531693)"><path d="M1.14 1.15 C39.3 -21.08, 190.72 -110.9, 229.01 -133.08 M0.29 0.71 C38.83 -21.35, 192.92 -109.16, 231.33 -131.56" stroke="#1e1e1e" stroke-width="1" fill="none"></path></g><g transform="translate(1066.341705836291 272.66894037764564) rotate(0 115.80633213814781 -65.96399724531693)"><path d="M213.93 -109.87 C217.8 -113.92, 225.63 -124.77, 229.48 -130.41 M211.77 -107.88 C219.12 -115.4, 224.89 -122.65, 231.81 -131.24" stroke="#1e1e1e" stroke-width="1" fill="none"></path></g><g transform="translate(1066.341705836291 272.66894037764564) rotate(0 115.80633213814781 -65.96399724531693)"><path d="M203.7 -127.66 C210.74 -126.37, 221.7 -131.79, 229.48 -130.41 M201.53 -125.66 C212.22 -127.44, 221.3 -128.93, 231.81 -131.24" stroke="#1e1e1e" stroke-width="1" fill="none"></path></g></g><mask></mask><g stroke-linecap="round"><g transform="translate(1587.6046595553516 287.2359590051665) rotate(0 -131.78319997614744 -74.5710722433372)"><path d="M-1.1 0.31 C-44.8 -24.27, -219.39 -122.79, -263.23 -147.46 M0.52 -0.57 C-43.23 -25.54, -220.4 -125.15, -264.09 -149.45" stroke="#1e1e1e" stroke-width="1" fill="none"></path></g><g transform="translate(1587.6046595553516 287.2359590051665) rotate(0 -131.78319997614744 -74.5710722433372)"><path d="M-233.96 -144.34 C-240.38 -147.12, -247.14 -146.35, -264.84 -148.22 M-234.79 -144.08 C-242.61 -145.07, -252.07 -146.5, -263.1 -149" stroke="#1e1e1e" stroke-width="1" fill="none"></path></g><g transform="translate(1587.6046595553516 287.2359590051665) rotate(0 -131.78319997614744 -74.5710722433372)"><path d="M-243.98 -126.43 C-248.27 -132.95, -252.89 -136.01, -264.84 -148.22 M-244.82 -126.17 C-249.62 -132.69, -256 -139.62, -263.1 -149" stroke="#1e1e1e" stroke-width="1" fill="none"></path></g></g><mask></mask><g stroke-linecap="round" transform="translate(768.2595926694476 521.2199364195017) rotate(0 106.70016315004477 63.13927930261343)"><path d="M7.7 39.82 C7.7 39.82, 7.7 39.82, 7.7 39.82 M7.7 39.82 C7.7 39.82, 7.7 39.82, 7.7 39.82 M6.93 48.91 C12.1 37.43, 19.79 30.83, 33.36 19.6 M4.81 48.18 C14.64 38.68, 22.57 28.26, 32.26 17.83 M4.05 56.06 C7.98 50.27, 14.94 42.04, 35.43 19.03 M3.8 57.79 C9.93 48.39, 17.41 40.43, 35.48 20.38 M2.66 66.19 C13.26 49.08, 28.31 35.18, 43.42 16.58 M0.51 65.52 C14.73 51.51, 28.69 34.65, 42.71 17.16 M2.91 69.08 C14.29 59.28, 22.89 47.33, 51.53 13.53 M2.95 69.08 C16.09 54.6, 27.79 42.3, 50.37 15.61 M5.56 73.84 C16.14 60.98, 30.6 44.54, 57.98 10.47 M5.02 73.11 C16.45 57.96, 30.2 43.04, 59.61 11.64 M7.1 77.43 C23.54 58.83, 41.52 35.89, 69.83 5.52 M7.5 76.73 C30.56 50.13, 54.43 23.27, 69.04 4.87 M8.52 82.79 C32.11 58.41, 50.74 31.27, 75.87 4.96 M8.83 80.78 C25.44 62.04, 44.18 41.08, 75.57 4.41 M11.38 84.77 C36.19 53.69, 65.48 25.05, 80.94 3.5 M11.09 84.76 C36.7 56.13, 60.73 27.56, 80.66 4.09 M13.19 88.71 C38.46 61.59, 61.28 33.49, 86.93 4.02 M11.29 90.49 C37.32 60.51, 62.29 32.73, 87.28 3.34 M14.73 93.06 C29.98 76.28, 44.43 57.13, 93.41 2.14 M12.7 93.86 C34.09 72.31, 52.4 49.28, 92.46 2.77 M16.82 98.55 C44.91 63.03, 75.08 29.86, 97.7 4.12 M17.44 96.93 C42.49 65.58, 69.19 35.87, 99.26 3.18 M20.34 98.53 C48.1 63.58, 77.25 33.3, 103.54 0.49 M20.58 99.44 C44.72 68.17, 72.05 38.97, 103.46 2.19 M22.95 100.11 C49.44 67.43, 79.48 35.32, 108.47 0.11 M22.68 100.98 C46.24 76.62, 67.49 49.31, 110.83 1.46 M25.76 103.02 C54.99 74.85, 78.8 42.89, 115.91 0.66 M26.48 102.91 C52.05 73.55, 76.64 46.89, 115.12 2.12 M32.09 103.51 C62.14 68.26, 93.62 31.29, 120.48 4.88 M31.5 105.3 C57.6 74.27, 85.55 40.88, 119.37 2.19 M32.79 106.69 C57.2 80.05, 79.33 56.24, 124.04 2.57 M33.45 108.39 C62.67 75.1, 90.96 42.09, 123.88 3.52 M35.66 110.93 C68.1 71.79, 102.16 35.75, 127.15 5.62 M37.4 109.98 C54.52 88.01, 72.8 66.88, 129.56 4.03 M40.15 111.73 C70.65 79.8, 98.36 43.43, 133.01 5.45 M40.58 112.44 C64.48 87.09, 85.5 61.42, 133.86 6.08 M46.68 113.58 C71.45 85.07, 96.77 55.83, 136.89 5.84 M45.54 113.58 C81.5 70.12, 118.04 27.71, 138.13 6.44 M49.46 116.13 C74.83 80.86, 105.2 50.63, 143.52 7.83 M48.95 113.87 C79.42 81.02, 108.08 45.66, 142.9 6.21 M51.78 116.26 C74.8 89.15, 96.78 64.58, 146.41 7.86 M52.81 115.63 C81.18 81.69, 110.93 48.41, 147.2 8.03 M58.7 117.24 C86.8 84.32, 113.18 51.58, 153.23 6.58 M57.09 117.2 C83.09 89.37, 108.84 59.4, 151.86 8.02 M60.51 119.83 C96.32 78.31, 128.64 40.49, 155.94 9.07 M61.11 119.13 C88.61 86.02, 116.67 53.73, 155.54 8.93 M66.06 118.69 C96.52 84.44, 129 46.19, 159.39 9.87 M64.82 119.66 C88.32 94.18, 110.9 69.02, 161.32 10.37 M68.08 122.72 C109.33 78.33, 145.17 36.17, 165.43 10.93 M70.08 122.07 C94.38 93.79, 119.81 64.56, 164.7 11.72 M74 122.94 C103.43 89.8, 133.09 57.88, 168.22 12.18 M73.37 123.71 C95.55 96.8, 117.56 71.7, 168.91 13.83 M78.56 125.15 C104.64 90.77, 134.45 59.25, 172.35 15.7 M78.35 123.62 C101.1 96.66, 124.57 66.92, 170.88 16.2 M81.94 126.5 C100.88 99.77, 124.95 74.05, 176.82 15.55 M81.96 126.27 C110.17 94.33, 139.38 61.34, 175.23 17.92 M87.01 127.41 C119.94 88.41, 155.51 46.77, 178.46 20.45 M85.58 126.44 C112.95 94.3, 140.37 61.99, 179.6 19.37 M92.85 124.92 C115.83 99.19, 136.24 75.68, 183.91 19.59 M92.49 125.72 C124.41 89.21, 157.03 52.24, 182.6 21.14 M96.05 125.1 C135.32 83.79, 171.01 42.9, 186.44 20.31 M97.12 125.9 C124.87 95.46, 153.2 63, 186.47 22.73 M101.39 125.86 C131.51 91.28, 163.88 54.58, 189.18 22.21 M101.65 126.93 C131.43 93.02, 161.01 60.06, 190.4 23.72 M107.96 125.65 C135.94 94.97, 158.79 64.14, 192.64 28.26 M108.08 126.61 C124.8 105.72, 143.03 85.65, 193.82 27.99 M113.78 128.02 C137.28 100.56, 162.32 72.39, 195.26 29.41 M112.77 126.24 C129.21 106.96, 147.98 86.09, 197.04 29.36 M117.93 126.3 C138.3 101.21, 160.74 76.67, 198.29 34.79 M118.54 126.37 C135.52 106.41, 152.69 86.68, 197.95 32.82 M125.83 123.41 C146.24 102.71, 165.45 75.34, 203 35.47 M123.87 125.68 C144.91 100.81, 163.41 79.44, 201.25 35.44 M130.06 126.06 C144.9 106.22, 160.12 90.57, 204.88 41.22 M129.62 124.21 C154.72 95.6, 179.97 67.32, 204.53 40.1 M138.96 121.34 C156.33 101.64, 170.99 83, 206.21 41 M137.66 123.02 C160.77 94.37, 185.03 68.92, 206.81 43.11 M144.1 119.82 C161.97 98.96, 185.06 73.75, 210.2 43.7 M144.16 120.4 C162.99 99.08, 180.11 78.41, 208.62 45.95 M151.57 121.72 C164.57 103.23, 183.11 84.14, 213.64 46.67 M150.94 119.01 C173.79 90.69, 199.19 61.6, 212.55 48.94 M155.4 117.74 C176.05 95.47, 193.14 76.4, 211.01 54.68 M156.71 117.9 C177.71 95.92, 197.31 72.02, 213.34 53.21 M162.95 117.99 C172.65 103.63, 184.17 93.47, 212.39 58.48 M162.48 116.35 C174.41 104.94, 184.34 93.36, 213.72 60.29 M167.62 117.08 C178.14 105.76, 187.69 94.48, 214.3 63.2 M166.19 118.17 C185.15 98.52, 201.57 79.11, 213.15 65.68 M176.67 110.41 C191.04 99.27, 203.2 81.81, 211.72 74.22 M178.44 112.95 C183.95 104.6, 191.88 96.36, 211.83 73.68 M188.98 106.76 C191.88 101.57, 196.66 96.72, 200.78 93.13 M188.3 105.86 C191.9 102.31, 194.98 97.71, 199.44 92.52" stroke="#ffc9c9" stroke-width="0.5" fill="none"></path><path d="M111.99 -0.48 C125.77 -0.96, 142.92 3.87, 155.74 7.76 C168.56 11.65, 179.91 16.51, 188.91 22.88 C197.92 29.24, 206 37.57, 209.77 45.95 C213.53 54.33, 213.65 64.58, 211.5 73.16 C209.34 81.75, 204.72 90.27, 196.86 97.44 C189 104.6, 176.53 111.58, 164.33 116.14 C152.14 120.7, 137.89 123.39, 123.69 124.78 C109.49 126.17, 93.06 126.74, 79.12 124.48 C65.17 122.21, 51.25 116.5, 40.04 111.19 C28.83 105.88, 18.4 100.02, 11.87 92.61 C5.34 85.2, 1.61 75.47, 0.86 66.73 C0.12 57.99, 2.26 48.23, 7.39 40.18 C12.51 32.13, 21.54 24.47, 31.6 18.42 C41.67 12.37, 53.08 6.85, 67.77 3.87 C82.45 0.89, 110.24 0.83, 119.72 0.56 C129.2 0.3, 125.1 1.14, 124.65 2.25 M82.39 2.3 C95.07 -0.25, 110.45 0.07, 124.78 1.71 C139.11 3.35, 156.42 7.41, 168.39 12.12 C180.36 16.84, 189.21 22.73, 196.6 30.01 C203.98 37.28, 210.59 47.54, 212.71 55.8 C214.83 64.06, 213.42 71.74, 209.32 79.59 C205.22 87.44, 197.63 96.4, 188.12 102.91 C178.61 109.42, 165.26 114.67, 152.24 118.66 C139.22 122.64, 124.33 126.59, 110 126.84 C95.68 127.09, 79.85 123.76, 66.28 120.17 C52.72 116.59, 38.45 111.22, 28.62 105.35 C18.8 99.49, 11.97 93, 7.33 84.99 C2.7 76.99, -0.34 65.89, 0.82 57.3 C1.97 48.72, 7.25 40.86, 14.27 33.48 C21.28 26.11, 31.48 18.44, 42.9 13.06 C54.31 7.69, 76.04 2.69, 82.73 1.23 C89.42 -0.24, 82.6 3.24, 83.02 4.28" stroke="#1e1e1e" stroke-width="1" fill="none"></path></g><g transform="translate(814.811388101115 571.7130031680058) rotate(0 60.19995880126953 12.5)"><text x="60.19995880126953" y="0" font-family="Virgil, Segoe UI Emoji" font-size="20px" fill="#1e1e1e" text-anchor="middle" style="white-space: pre;" direction="ltr" dominant-baseline="text-before-edge">OLAP_SCAN</text></g><g stroke-linecap="round" transform="translate(1064.038251050676 533.68158781949) rotate(0 106.70016315004477 63.13927930261343)"><path d="M2.91 46.25 C2.91 46.25, 2.91 46.25, 2.91 46.25 M2.91 46.25 C2.91 46.25, 2.91 46.25, 2.91 46.25 M1.2 51.49 C8.04 45.87, 13.89 38.85, 26.56 27.26 M2.47 52.07 C8.44 47.13, 12.95 40.4, 27.2 25.43 M2.08 58.33 C10.42 47.99, 24.1 37.17, 35.75 19.94 M3.28 58.68 C13.26 48.55, 21.78 37.01, 36.08 20.94 M3.27 64.74 C14.5 51, 27.38 37.55, 45.06 15.05 M1.73 64.67 C18.7 48.77, 33.21 30.99, 44.39 16.95 M-0.12 73.64 C15.42 59.21, 27.37 44.98, 54.56 10.65 M1.06 72.54 C15.97 55.06, 28.97 39.08, 54.07 12 M3.82 77.19 C19.62 54.96, 36.24 38.71, 60.88 8.74 M4.96 75.26 C18.64 59.79, 32.46 42.45, 60.69 11.29 M7.3 80.45 C21.75 60.69, 37.17 43.08, 67.2 10.75 M6.98 78.99 C18.5 64.96, 30.58 51.29, 67.4 9.32 M10.1 82.99 C28.15 56.04, 50.4 33.91, 72 7.28 M9.73 81.7 C29.98 58.07, 51.68 33.15, 73.58 6.65 M12.3 84.49 C37.45 54.49, 63.57 25.4, 81.85 7.68 M11.61 85.9 C28.7 65.12, 45.18 46.73, 79.55 6.55 M13.67 87.4 C39.78 57.2, 66.13 27.74, 87.31 5.43 M14.03 88.32 C42.44 56.06, 69.97 24.26, 86.5 5.45 M17.05 91.53 C35.29 70.01, 56.18 46.45, 91.73 3.75 M16.82 91.57 C44.03 59.85, 73.58 26.9, 93.13 3.61 M19.67 96.71 C36.49 73.35, 55.68 49.57, 101.25 -0.77 M17.47 95.89 C47.09 63.02, 77 27.86, 101.61 -0.19 M19.97 98.15 C43.27 73.03, 63.97 49.47, 106.97 -0.97 M19.85 99.53 C39.99 76.41, 57.85 55.46, 105.72 1.6 M24.82 100.53 C55.24 65.61, 80.99 33.48, 112.08 1.37 M23.39 101.93 C52.25 69.39, 80.36 35.47, 111.89 0.88 M29.06 101.7 C53.96 72.15, 77.88 44.64, 115.4 -0.25 M26.57 102.47 C52.56 73.93, 78 44.83, 116.71 1.16 M29.43 103.76 C56.98 77.77, 80.65 48.88, 121.43 2.53 M30.78 104.63 C60.45 71.56, 89.93 36.24, 120.87 2.22 M33.33 106.67 C63.56 72.27, 96.77 36.57, 126.31 4.6 M35 108.64 C61.42 76.08, 85.95 46.27, 125.08 2.82 M36.81 107.9 C66.05 81.23, 89.51 52.17, 129.28 2.46 M37.75 110.2 C69.72 73.13, 101.6 36.72, 129.47 2.87 M40.02 113.56 C65.95 80.23, 92.32 54.34, 134.66 1.87 M42.45 110.69 C61.36 89.66, 81.63 66.6, 135.51 4.12 M45.17 114 C76.94 76.24, 108.57 39.36, 138.58 5.23 M45.37 113.8 C72.84 81.95, 99.77 49.06, 140.69 4.6 M46.65 115.96 C78.4 81.52, 109.88 47.12, 144.35 6.17 M47.62 116.78 C74 85.6, 100.54 56.44, 145.78 4.3 M52.99 118.16 C84.03 84.49, 110.16 47.24, 148.53 5.74 M51.1 117.06 C76.27 90.43, 101.79 62.54, 148.89 6.39 M54.98 117.73 C91.63 79.52, 121.17 41.4, 152.26 6.45 M56.53 119.75 C90.73 79.97, 122.7 41.97, 152.69 8.36 M61.66 120.03 C99.04 76.77, 135.63 32.33, 157.29 10.7 M61.4 120.56 C82.85 94.19, 105.32 68.49, 156.43 9.46 M65.07 119.83 C101.31 78.6, 136.92 40.85, 160.11 12.9 M64.62 121.95 C97.4 83.17, 131.66 45.69, 159.99 11.96 M70.9 120.62 C90.54 96.56, 113.44 74.05, 163.89 12.85 M69.15 121.62 C89.63 100.78, 109.15 77.83, 165.73 11.48 M73.93 125.28 C100.37 91.01, 128.8 58.84, 168.62 12.33 M73.33 124.16 C94.28 97.1, 118.21 72.25, 168.55 14.76 M77.35 122.71 C99.34 99.83, 122.71 74.26, 171.71 15.77 M78.22 124.77 C106.07 94.33, 132.75 61.82, 172.53 15.32 M84.16 126.41 C112.94 89.12, 142.62 53.61, 178.11 18.85 M82.83 124.92 C103.79 99.98, 123.72 74.61, 176.9 17.15 M84.55 125.16 C109.56 101.91, 134.41 74.39, 181 17.11 M85.53 126.03 C118.01 92.68, 148.81 56.25, 180.66 18.37 M91.93 128.85 C128.14 85.54, 162.49 46.59, 183.84 18.62 M91.94 126.44 C127.68 84.78, 162.73 42.97, 184.61 20.96 M96.99 128.63 C124.09 93.85, 150.72 60.35, 187.7 22.06 M96.99 126.59 C127.93 90.69, 158.64 55.95, 188.63 21.94 M103.05 127.53 C124.37 100.55, 146.74 75.36, 190.02 24.13 M102.19 126.68 C120.38 105.14, 139.65 82.76, 190.3 25.78 M106.14 126.36 C130.46 100.31, 152.24 76.3, 194.61 27.64 M107.62 127.65 C132.12 98.12, 155.89 72.5, 192.96 27.59 M112.29 128 C136.04 103.23, 155.97 76.75, 195.74 31.42 M113.19 126.57 C133.38 103.6, 155.74 79.72, 197.59 30.11 M121.02 124.63 C145.99 96.32, 174.45 62.42, 201.49 32.92 M120.06 126.88 C137.59 104.03, 156.12 81.79, 200.2 33.33 M123.31 125.31 C143.72 104.84, 164.04 81.72, 201.09 34.85 M124.53 125.01 C148.72 96.91, 172.49 68.77, 203.12 36.22 M132.31 123.32 C160.5 92.91, 188.63 56.78, 204.36 39.79 M130.71 124.9 C150.02 101.74, 170.7 79.69, 206.3 38.4 M134.09 123.61 C157.52 98.21, 182.82 74.36, 209.05 40.83 M135.19 126.36 C152.01 105.92, 168.08 86.64, 208.61 41.83 M142.91 124.84 C160.63 104.36, 179.43 79.82, 210.24 46.46 M142.28 124.29 C168.59 94.11, 191.61 67.38, 209.22 46.76 M149.43 122.33 C169.42 98.17, 186.47 80.18, 209.63 52.38 M150.11 120.66 C167.68 99.34, 187.25 77.57, 210.82 50.65 M155.98 118.15 C167.86 106.41, 182.45 88.75, 213.69 54.18 M157.85 119.63 C171.39 102.51, 187.78 84.75, 211.63 55.84 M161.91 117.5 C178.48 98.76, 197.86 82.13, 212.31 58.75 M163.05 117 C176.96 101.4, 191.36 86.73, 214.12 60.05 M172.36 114.32 C183.88 100.16, 197.36 85.02, 213.55 67.04 M170.27 114.95 C182.19 102.14, 194.72 88.96, 213.55 66.27 M176.96 114.71 C185.14 107.63, 189.47 99.81, 207.71 77.11 M175.76 114.4 C187.17 104.31, 196.71 92.89, 208.1 78.73" stroke="#b2f2bb" stroke-width="0.5" fill="none"></path><path d="M143.57 3.5 C157.3 5.46, 172.34 12.47, 182.83 18.5 C193.31 24.52, 201.31 31.85, 206.48 39.67 C211.66 47.49, 214.68 56.72, 213.86 65.41 C213.05 74.11, 208.26 83.99, 201.59 91.85 C194.91 99.7, 185.08 107.15, 173.82 112.53 C162.56 117.92, 147.97 121.9, 134.03 124.16 C120.09 126.42, 104.25 127.51, 90.18 126.1 C76.12 124.7, 61.69 120.52, 49.65 115.72 C37.61 110.92, 25.96 104.47, 17.93 97.32 C9.91 90.18, 4.01 81.37, 1.5 72.85 C-1 64.34, -0.9 54.45, 2.91 46.25 C6.72 38.05, 15.2 30.1, 24.35 23.66 C33.51 17.22, 45.26 11.69, 57.83 7.61 C70.4 3.54, 83.62 -0.75, 99.79 -0.79 C115.95 -0.82, 144.08 5.47, 154.8 7.41 C165.52 9.35, 164.85 10.14, 164.1 10.86 M108.75 0.06 C122.34 -0.86, 138.14 2.16, 151.03 5.8 C163.93 9.44, 176.58 15.36, 186.11 21.91 C195.65 28.46, 204.03 37.06, 208.24 45.11 C212.46 53.16, 213.21 61.57, 211.4 70.2 C209.58 78.83, 204.55 89.32, 197.35 96.88 C190.14 104.44, 179.86 110.67, 168.17 115.57 C156.48 120.47, 141.47 124.83, 127.22 126.3 C112.97 127.76, 96.93 126.62, 82.68 124.34 C68.42 122.07, 53.21 117.89, 41.67 112.65 C30.13 107.41, 20.3 100.29, 13.42 92.9 C6.54 85.51, 1.82 76.61, 0.39 68.3 C-1.04 59.99, -0.06 50.81, 4.85 43.04 C9.77 35.28, 19.7 27.96, 29.88 21.7 C40.07 15.44, 52.93 8.99, 65.94 5.51 C78.95 2.02, 100.85 1.36, 107.93 0.78 C115.01 0.21, 108.27 1.27, 108.42 2.04" stroke="#1e1e1e" stroke-width="1" fill="none"></path></g><g transform="translate(1122.5800367167185 584.1746545679941) rotate(0 48.20996856689453 12.5)"><text x="48.20996856689453" y="0" font-family="Virgil, Segoe UI Emoji" font-size="20px" fill="#1e1e1e" text-anchor="middle" style="white-space: pre;" direction="ltr" dominant-baseline="text-before-edge">PROJECT</text></g><g stroke-linecap="round" transform="translate(1391.7770396671795 537.8758327999051) rotate(0 106.70016315004477 63.13927930261343)"><path d="M4.29 44.8 C4.29 44.8, 4.29 44.8, 4.29 44.8 M4.29 44.8 C4.29 44.8, 4.29 44.8, 4.29 44.8 M4.25 53.34 C12.31 41.35, 20.9 30.51, 26.29 23.95 M3.6 52.8 C8.76 45.21, 14.91 38.47, 27.64 24.18 M3.42 58.2 C14.41 46.2, 24.95 33.9, 36.15 20.75 M2.42 59.79 C14.71 45.36, 28.82 29.52, 35.08 21.41 M0.46 65.78 C16.88 49.44, 31.71 33.87, 43.2 17.58 M0.29 67.57 C11.32 55.27, 19.7 44.87, 43.93 18.16 M0.09 71.87 C18.47 53.92, 35.2 31.97, 53.89 12.64 M0.41 71.87 C13.69 58.19, 26.86 41.97, 53.7 12.56 M5.31 76.78 C17.08 61.76, 32.25 43.14, 63.97 7.51 M3.76 76.31 C16.29 60.65, 28.18 47.34, 62.18 9.04 M5.52 79.2 C25.03 59.08, 42.02 38.37, 69.95 5.83 M5.13 79.27 C24.99 59.17, 41.9 36.36, 68.78 8.01 M7.06 83.1 C31.5 55.19, 54.19 25.93, 75.61 7.55 M7.67 83.86 C27.83 60.9, 46.7 37.07, 74.99 7.27 M9.32 87.51 C32.51 60.35, 56.42 31.72, 78.91 5.39 M10.89 86.82 C38.42 55.78, 66.67 24.13, 81.26 5.45 M12.16 89.78 C26.95 71.64, 43.7 51.74, 88.56 5.47 M12 90.75 C35.76 65.24, 57.58 38.89, 87.47 5.72 M13.9 93.11 C43.86 60.51, 73.69 25.87, 91.51 2.4 M13.89 92.78 C35.09 68.26, 58.46 42.91, 92.37 3.97 M18.04 97.94 C44.16 67.23, 68.26 39, 98.25 3.68 M17.75 97 C36.09 76.26, 54.62 54.7, 98.83 4.25 M21.29 99.88 C38.75 75.83, 58.56 53.31, 104.19 2.04 M21.06 99.39 C49.77 67.05, 77.35 34.41, 105.12 2.17 M23.65 101.74 C53.58 66.29, 85.99 30.12, 111.75 4.12 M23.59 101.05 C41.07 81.32, 58.64 60.67, 109 2.68 M27.12 105.02 C56.12 69.01, 87.43 31.87, 116.33 1.54 M26.02 104.6 C45.21 83.7, 64.42 63.21, 115.54 2.14 M30.99 107.92 C57.37 76.11, 81.77 49.38, 121.07 2.8 M31.26 105.37 C58.06 75.5, 85.41 44.99, 119.93 3.33 M34.64 109.29 C63.51 75.63, 94.21 38.27, 125.53 2.43 M35.11 108.34 C64.91 71.7, 97.18 35.18, 123.99 3.62 M38.91 109.01 C70.8 72.66, 108.27 29.54, 129.11 3.56 M37.54 109.6 C67.35 74.05, 99.87 37.2, 129.58 4.69 M39.39 112.29 C66.9 83.98, 90.83 56.16, 134.36 4.58 M40.03 111.75 C70.03 80.06, 97.84 47.3, 133.87 4.14 M45.25 113.64 C78.27 74.38, 115.88 29.32, 138.4 5.76 M44.21 114.88 C73.03 81.19, 103.23 47.65, 140.64 5.26 M47.81 117.4 C82.42 77.65, 119.87 38.41, 144.31 3.89 M48.48 116.2 C71.8 90.73, 93.92 63.81, 145.62 4.65 M52.05 116.95 C72.29 92.4, 93.31 67.47, 148.43 6.87 M51.39 118.29 C81.99 81.58, 112.26 46.26, 149.81 5.98 M56.59 120.55 C84.39 86.55, 116 53.46, 154.51 5.87 M55.54 120 C90.5 81.32, 124.93 40.77, 153.42 7.11 M62.37 120.44 C83.44 99.09, 101.46 75.79, 156.97 9.42 M60.28 120.65 C83.34 95.82, 104.94 69.54, 157.21 9.31 M64.07 119.51 C93.36 87.14, 123.76 53.32, 160.35 10.55 M64.99 119.71 C96.87 85.9, 127.14 50.32, 159.77 11.43 M70.82 120.9 C96.65 90.14, 124.17 58.49, 164.65 11.2 M69.76 121.5 C93.51 93.49, 118.6 65.66, 164.89 11.36 M73.54 122.12 C101.39 91.93, 125.16 64.23, 170.1 15.79 M74.67 122.35 C99.56 93.57, 124.02 65.67, 168.17 14.71 M78.32 123.94 C115.38 80.11, 152.96 37.57, 172.45 17.36 M79.1 122.58 C114.77 82.93, 149.29 44.61, 172.34 15.99 M83.84 123.26 C104.72 99.45, 124.63 74.98, 175.71 19.24 M83.08 124.41 C114.11 90.1, 144.89 53.48, 175.89 17.31 M88.71 127.23 C111.11 97.83, 136.38 70.9, 180.23 20.86 M88.57 125.13 C112.41 98.09, 136.7 70.75, 179.06 19.3 M93.46 125.37 C116 95.18, 139.53 67.22, 182.68 19.65 M93.42 124.32 C122.53 89.73, 152.56 56.63, 183.82 20.04 M100.05 124.74 C119.29 106.44, 135.89 85.41, 188.17 25.44 M98.78 126.06 C133.16 85.61, 168.8 46.08, 187.9 22.56 M105.78 124.98 C121.67 105.14, 138.86 85.52, 191.51 24.31 M104.94 125.03 C131.18 94.77, 157.36 63.57, 189.99 25.69 M108.76 123.77 C144.09 88.02, 176.06 47.57, 192.04 30.46 M108.76 125.04 C139.93 89.59, 171.59 55.76, 192.46 29.07 M116.52 125.4 C143.82 90.38, 174.5 55.46, 194.24 31.33 M114.24 124.67 C144.57 91.12, 173.77 55.64, 196.02 31.26 M120.15 125.43 C149.67 91.43, 180.91 54.74, 199.19 34.27 M120.55 124.96 C144.18 95.85, 169.09 67.7, 198.97 33.54 M126.94 123.28 C154.94 90.12, 186.76 55.74, 203.87 37.12 M124.63 125.11 C144.08 102, 164.28 78.78, 202.6 37.47 M130.48 126.89 C151.44 99.19, 172.87 74.81, 204.59 38.85 M131.23 126.16 C157.96 94.81, 183.87 65.45, 204.4 38.68 M133.97 126.83 C163.33 94.82, 193.52 59.99, 208.34 42.17 M134.15 126.18 C161.79 94.36, 188.97 64, 207.46 42.5 M143.59 124.63 C162.81 100.58, 183.04 76.23, 210.19 46.45 M141.54 123.69 C160.57 101.36, 182.46 77.37, 209.76 45.93 M146.66 122.01 C172.99 96.36, 193.29 72.3, 210.59 51.54 M148.04 121.9 C168.69 99.83, 189.88 77.26, 209.42 52.54 M155.57 121.67 C176.78 99.28, 192.18 78.22, 212.82 55.16 M156.59 120.58 C176.37 98.55, 196.77 73.89, 212.08 56.93 M164.52 116.94 C178.63 102.28, 190.78 84.7, 213.03 60.56 M163.13 118.8 C174.32 104.4, 187.03 91.05, 212.86 61.43 M171.5 115.38 C190.2 95.91, 205.28 76.16, 212.91 66.1 M172.54 113.57 C184.48 100.48, 193.83 88.1, 215.04 64.77 M187.74 103.67 C197.43 89.57, 209.93 76.86, 215.75 70.65 M187.98 101.8 C193.14 94.55, 199.18 87.66, 215.95 70.52" stroke="#ffc9c9" stroke-width="0.5" fill="none"></path><path d="M147.5 3.91 C160.69 6.1, 173.63 14.06, 183.5 20.24 C193.36 26.42, 201.66 33, 206.72 40.98 C211.77 48.97, 214.91 59.62, 213.81 68.15 C212.7 76.67, 207.09 84.58, 200.09 92.13 C193.09 99.67, 183.19 108.06, 171.82 113.43 C160.45 118.8, 146.02 122.5, 131.88 124.36 C117.73 126.22, 101.2 125.91, 86.96 124.57 C72.73 123.23, 58.43 121.18, 46.48 116.32 C34.53 111.47, 22.94 102.84, 15.25 95.46 C7.57 88.08, 2.19 80.49, 0.38 72.03 C-1.43 63.58, 0.31 52.89, 4.37 44.7 C8.43 36.52, 15.44 29.18, 24.75 22.9 C34.07 16.62, 47.13 10.73, 60.25 7.02 C73.36 3.3, 85.9 0.06, 103.44 0.61 C120.99 1.17, 152.99 7.38, 165.52 10.34 C178.05 13.3, 179.57 17.56, 178.62 18.36 M147.62 3.89 C161.29 5.68, 173.41 11.4, 183.5 17.66 C193.6 23.93, 203.07 33.44, 208.21 41.48 C213.36 49.51, 215.43 57.59, 214.36 65.88 C213.3 74.16, 208.66 83.27, 201.83 91.18 C194.99 99.08, 184.89 107.73, 173.35 113.3 C161.8 118.88, 146.85 122.41, 132.55 124.65 C118.25 126.9, 101.62 128.25, 87.55 126.78 C73.47 125.32, 59.91 120.7, 48.11 115.87 C36.32 111.04, 24.63 104.95, 16.78 97.82 C8.94 90.68, 3.04 81.85, 1.04 73.06 C-0.97 64.28, 1.07 53.48, 4.76 45.12 C8.45 36.76, 14.08 29.57, 23.2 22.9 C32.32 16.23, 46.24 8.83, 59.46 5.09 C72.68 1.35, 87.82 0.73, 102.52 0.48 C117.23 0.23, 140.35 2.81, 147.7 3.61 C155.05 4.4, 147.42 4.06, 146.62 5.25" stroke="#1e1e1e" stroke-width="1" fill="none"></path></g><g transform="translate(1438.3288350988469 588.3688995484092) rotate(0 60.19995880126953 12.5)"><text x="60.19995880126953" y="0" font-family="Virgil, Segoe UI Emoji" font-size="20px" fill="#1e1e1e" text-anchor="middle" style="white-space: pre;" direction="ltr" dominant-baseline="text-before-edge">OLAP_SCAN</text></g><g stroke-linecap="round" transform="translate(1681.623259361897 538.8723043639998) rotate(0 106.70016315004477 63.13927930261343)"><path d="M9.45 36.04 C9.45 36.04, 9.45 36.04, 9.45 36.04 M9.45 36.04 C9.45 36.04, 9.45 36.04, 9.45 36.04 M4.74 46.77 C10.72 40.98, 12.53 38.08, 23.62 26.76 M5.77 46.48 C12.66 38.76, 17.25 32.24, 24.8 25.21 M0.28 58.75 C13.08 44.89, 24 29.16, 38.84 15.91 M1.86 57.06 C12.01 45, 21.59 33.98, 36.83 15.52 M-0.32 61.74 C14.23 49.82, 26.72 35.77, 45.47 13.83 M0.6 62.8 C13.83 50.43, 25.12 36.61, 44.63 14.45 M1.81 67.2 C19.21 50.87, 35.39 29.43, 52.73 11.08 M2.09 67.83 C18.42 49.25, 36.22 30.04, 52.19 12.64 M5.92 74.11 C22.08 52.35, 34.35 35.05, 58.79 8.89 M3.7 71.65 C20.83 55.54, 34.99 38.22, 58.79 8.73 M5.77 77.64 C27.95 53.76, 48.77 30.34, 64.55 6.37 M5.17 77.67 C21.84 56.72, 38.67 39.58, 65.94 6.36 M9.52 79 C21.01 65.46, 36.12 48.6, 74.28 5.48 M7.62 81.09 C29.8 54.86, 52.05 29.02, 73.02 5.2 M9.06 86.38 C29.31 63.65, 47.77 38.6, 78.98 6.83 M7.9 85.65 C30.44 61.02, 52.68 36.34, 77.74 6.6 M9.23 91.22 C30.3 66.58, 50.74 45.82, 84.83 5.13 M10.94 89.95 C34.22 64.15, 54.99 36.66, 83.64 5.06 M11.86 90.67 C31.55 70.88, 53.15 48.98, 89.35 5.18 M12.79 91.8 C40.91 61.69, 65.21 31.67, 89.31 4.08 M17.08 96.45 C45.51 62.09, 70.41 31, 95.24 4.98 M16.98 95.02 C47.44 59.84, 77.73 23.82, 95.3 5.25 M21.18 98.45 C38.45 75.69, 57.56 53.99, 99.71 4.56 M19.54 96.98 C50.12 61.92, 80.26 28.85, 100.52 5.03 M22.62 100.87 C50.55 66.25, 82.06 33.87, 105.13 5.42 M23.97 98.69 C41.92 77.31, 61.28 56.94, 105.89 4.05 M26.04 100.6 C44.29 83.41, 61.6 62.5, 113.57 1.83 M26.33 103.09 C50.53 72.8, 76.04 43.73, 112.06 2.46 M28.77 106.09 C48 79.31, 72.52 56.46, 119.49 2.01 M28.9 103.87 C50.19 80.81, 71.76 56.65, 119.05 0.97 M32.9 107.7 C60.36 78.6, 85.75 45.77, 123.12 2.01 M33.15 107.79 C62.26 72.46, 91.58 38.04, 124.75 2.68 M36.48 108.38 C57.43 84.09, 75.29 58.65, 128.84 3.04 M34.2 109.23 C58.52 84.83, 82.27 58.05, 128.36 2.37 M37.55 109.49 C70.91 77.65, 101.4 40.57, 132.67 3.6 M39.73 112.01 C75.83 70, 110.51 30.39, 132.92 2.55 M44.08 111.47 C79.94 69.69, 114.52 26.93, 137.56 6.17 M43.11 113.96 C71.34 78.58, 99.89 44.31, 137.68 4.08 M47.22 113.66 C79.81 76.46, 111.77 40.85, 143.88 3.99 M47.66 114.73 C70.92 86.71, 94.48 59.88, 141.65 4.91 M50 116.51 C69.5 93.06, 91.26 67.62, 146.19 6.77 M50.38 115.83 C76.72 87.19, 101.27 59.47, 147.43 5.72 M55.21 118.85 C82.52 84.36, 108.98 57.38, 149.79 6.28 M54.97 117.96 C80.63 89.46, 104.89 59.79, 150.82 7.41 M58.75 119.35 C81.85 93.09, 108.94 65.6, 157.35 7.18 M60.19 118.35 C91.35 82.62, 124.47 43.93, 156.51 7.96 M65.53 121.86 C85.94 93.48, 107.87 66.42, 162.18 7.98 M62.84 120 C87.61 93.12, 112.28 64.87, 160.44 7.22 M66.85 120.79 C96.94 85.86, 126.24 50.56, 165 11.14 M68.19 121.07 C105.63 79.57, 142.84 34.88, 163.59 11 M72.26 122.46 C96.19 92.77, 122.88 65.55, 168.98 12.11 M70.92 122.15 C101.79 88.21, 133.35 54.53, 168.1 12.08 M74.27 127.29 C96.42 99.19, 117.17 73.74, 171.24 15.59 M74.87 126.34 C99.91 96.18, 126.21 64.46, 171.84 14.32 M79.53 127.33 C117.3 83.64, 148.93 46.75, 174.05 17.55 M79.31 126.77 C108.69 92.19, 136.71 60.77, 174.69 16.7 M84.94 125.74 C111.82 92.92, 142.41 59.2, 178.16 18.17 M84.09 126 C104.34 103.09, 126.15 77.55, 178.88 18.16 M91.51 127.84 C113.4 99.39, 141.08 69.73, 180.05 22.15 M88.57 126.98 C119.32 92.65, 150.74 59.35, 181.34 19.87 M93.64 126.01 C119.02 97.69, 145.34 71.2, 186.59 22.67 M95.96 125.95 C122.56 94.33, 150.31 62.58, 185.44 23.07 M99.15 126.06 C123.7 99.69, 149.45 72.52, 188.34 25.69 M100.43 126.7 C120.95 104.99, 139.08 82.72, 189.28 23.38 M103.84 126.13 C134.85 96.88, 161.84 64.94, 193.46 26.1 M104.69 127.39 C138.35 88.8, 172.52 49.68, 192.75 26.85 M111.47 127.01 C140.96 88.87, 177.42 50.01, 197.71 27.89 M111.09 126.88 C137.86 95.41, 166.02 63.82, 196.56 28.06 M117.06 126.82 C136.16 103.33, 160.76 77.11, 200.41 33.93 M115.94 127.27 C140.32 98.42, 165.38 69.89, 199.22 31.88 M121.51 128.37 C139.54 105.71, 157.65 85.63, 199.03 33.43 M119.2 129.24 C141.66 103.24, 163.61 77.65, 200.72 34.81 M127.53 128.99 C142.78 108.16, 163.23 85.85, 203.14 38.01 M125.49 127.83 C153.25 95.18, 180.12 64.52, 203.62 39.02 M134.34 124.49 C154.86 101.75, 174.56 76.77, 207.14 43.38 M131.83 126.27 C147.43 108.01, 162.02 89.98, 206.7 41.98 M140.88 123.22 C160.19 102.12, 183.16 77.69, 208.74 44.16 M139.94 124.07 C164.15 94.25, 190.23 63.34, 208.62 45.19 M144.51 121.97 C164.63 101.58, 182.18 81.13, 209.02 48.29 M145.95 122.78 C170.88 95.36, 194.49 67.63, 210.97 48.54 M151.54 120.82 C168.83 105.16, 186.76 86.65, 211.69 51.63 M152.06 120.82 C168 103.7, 183.74 85.6, 212.63 50.83 M159.25 119.29 C181.2 94.98, 203.24 69.53, 211.73 55.64 M159.59 117.57 C177.06 98.83, 193.88 78.45, 213.46 57.43 M170.52 112.21 C185.06 95.1, 200.74 80.13, 215.3 64.65 M170.66 113.13 C181.28 100.17, 192.68 87.31, 213.29 63.45 M178.47 106.87 C185.5 101.28, 194 90.99, 214.37 69.84 M179.9 109.47 C189.13 97.54, 200.77 84.85, 213.6 69.66 M191.04 104.09 C198.54 91.81, 208.55 82.81, 212.12 78.07 M190.12 103.39 C195.49 96.42, 202.79 89.39, 211.94 77.28" stroke="#ffc9c9" stroke-width="0.5" fill="none"></path><path d="M75.31 3.43 C87.71 0.09, 104.01 -0.84, 118.28 -0.08 C132.55 0.68, 148.23 3.44, 160.92 8 C173.61 12.56, 185.88 20.28, 194.4 27.27 C202.92 34.26, 209.23 41.57, 212.03 49.94 C214.83 58.3, 214.4 68.9, 211.19 77.44 C207.99 85.99, 201.3 94.53, 192.81 101.21 C184.31 107.88, 172.75 113.34, 160.24 117.51 C147.72 121.68, 132.38 125.24, 117.72 126.23 C103.06 127.22, 85.99 126.2, 72.26 123.47 C58.54 120.73, 45.97 115.67, 35.36 109.82 C24.74 103.97, 14.57 96.28, 8.56 88.35 C2.56 80.43, -0.77 70.94, -0.67 62.28 C-0.57 53.62, 3.01 44.04, 9.16 36.38 C15.32 28.71, 24.26 21.89, 36.26 16.28 C48.26 10.67, 72.58 5.07, 81.14 2.72 C89.69 0.36, 87.13 1.31, 87.58 2.12 M140.42 3.31 C154.23 4.83, 168.82 10.27, 179.67 15.99 C190.51 21.71, 199.76 29.73, 205.51 37.63 C211.26 45.52, 214.42 54.72, 214.15 63.37 C213.88 72.02, 209.84 81.8, 203.89 89.54 C197.93 97.27, 189.46 104.16, 178.44 109.8 C167.43 115.43, 151.62 120.82, 137.79 123.34 C123.96 125.86, 109.51 125.71, 95.44 124.92 C81.38 124.14, 66.15 123.06, 53.4 118.65 C40.64 114.24, 27.25 105.52, 18.9 98.45 C10.55 91.39, 5.92 84.36, 3.3 76.26 C0.67 68.16, 0.23 58.47, 3.13 49.85 C6.04 41.23, 12.04 31.55, 20.74 24.56 C29.44 17.56, 42.51 11.78, 55.33 7.88 C68.14 3.99, 83.52 1.91, 97.63 1.19 C111.75 0.47, 133.13 3.13, 140.02 3.59 C146.91 4.04, 139.38 3.13, 138.96 3.93" stroke="#1e1e1e" stroke-width="1" fill="none"></path></g><g transform="translate(1728.1750547935644 589.3653711125039) rotate(0 60.19995880126953 12.5)"><text x="60.19995880126953" y="0" font-family="Virgil, Segoe UI Emoji" font-size="20px" fill="#1e1e1e" text-anchor="middle" style="white-space: pre;" direction="ltr" dominant-baseline="text-before-edge">OLAP_SCAN</text></g><g stroke-linecap="round"><g transform="translate(873.6471358674544 520.3095063782425) rotate(0 83.70363437576202 -59.27600794207774)"><path d="M1.13 -0.91 C28.58 -21.01, 137.27 -100.08, 164.77 -119.78 M0.27 1.23 C28.1 -18.78, 139.56 -98.67, 167.14 -118.5" stroke="#1e1e1e" stroke-width="1" fill="none"></path></g><g transform="translate(873.6471358674544 520.3095063782425) rotate(0 83.70363437576202 -59.27600794207774)"><path d="M148.7 -94.83 C154.45 -100.36, 160.75 -108.08, 166.77 -119.12 M149.62 -94.63 C155.75 -101.3, 160.7 -109.48, 166.2 -118.25" stroke="#1e1e1e" stroke-width="1" fill="none"></path></g><g transform="translate(873.6471358674544 520.3095063782425) rotate(0 83.70363437576202 -59.27600794207774)"><path d="M136.74 -111.5 C146.29 -112.01, 156.27 -114.59, 166.77 -119.12 M137.66 -111.3 C147.57 -112.53, 156.4 -115.32, 166.2 -118.25" stroke="#1e1e1e" stroke-width="1" fill="none"></path></g></g><mask></mask><g stroke-linecap="round"><g transform="translate(1170.036676611292 532.2109184794226) rotate(0 -58.97372823298815 -64.75559965264483)"><path d="M-0.79 1.04 C-20.57 -20.85, -98.55 -108.71, -117.92 -130.55 M1 0.54 C-19.03 -21.29, -99.23 -107.85, -118.95 -129.4" stroke="#1e1e1e" stroke-width="1" fill="none"></path></g><g transform="translate(1170.036676611292 532.2109184794226) rotate(0 -58.97372823298815 -64.75559965264483)"><path d="M-90.57 -115.9 C-103.4 -119.53, -112.23 -123.9, -117.24 -129.51 M-91.85 -115.49 C-100.62 -119.85, -108.05 -124.53, -119.11 -129.58" stroke="#1e1e1e" stroke-width="1" fill="none"></path></g><g transform="translate(1170.036676611292 532.2109184794226) rotate(0 -58.97372823298815 -64.75559965264483)"><path d="M-105.66 -101.99 C-113.05 -110.63, -116.35 -120.09, -117.24 -129.51 M-106.94 -101.58 C-111.14 -110.02, -114.11 -118.82, -119.11 -129.58" stroke="#1e1e1e" stroke-width="1" fill="none"></path></g></g><mask></mask><g stroke-linecap="round"><g transform="translate(1503.6104907533063 532.6954866638184) rotate(0 50.172738322788064 -57.87849135664078)"><path d="M-0.43 -0.96 C16.43 -20.46, 83.74 -97.73, 100.78 -116.91 M1.54 1.15 C18.25 -18.16, 82.99 -95.55, 99.62 -115.4" stroke="#1e1e1e" stroke-width="1" fill="none"></path></g><g transform="translate(1503.6104907533063 532.6954866638184) rotate(0 50.172738322788064 -57.87849135664078)"><path d="M87.78 -87.85 C92.02 -93.7, 96.25 -101.96, 98.24 -113.7 M88.41 -86.44 C92.17 -93.7, 94.86 -99.16, 99.36 -116.21" stroke="#1e1e1e" stroke-width="1" fill="none"></path></g><g transform="translate(1503.6104907533063 532.6954866638184) rotate(0 50.172738322788064 -57.87849135664078)"><path d="M72.05 -101.03 C80.51 -103.29, 88.95 -108.02, 98.24 -113.7 M72.68 -99.62 C79.9 -103.89, 86.06 -106.45, 99.36 -116.21" stroke="#1e1e1e" stroke-width="1" fill="none"></path></g></g><mask></mask><g stroke-linecap="round"><g transform="translate(1785.8142012468306 537.889714342027) rotate(0 -91.8952308218079 -61.08928689625486)"><path d="M0.26 1.11 C-30.32 -19.6, -152.86 -102.4, -183.69 -123.29 M-1.07 0.65 C-31.69 -19.35, -153.31 -101.14, -184.05 -121.83" stroke="#1e1e1e" stroke-width="1" fill="none"></path></g><g transform="translate(1785.8142012468306 537.889714342027) rotate(0 -91.8952308218079 -61.08928689625486)"><path d="M-153.07 -112.73 C-163.42 -116.45, -173.17 -118.26, -183.62 -123.14 M-154.81 -113.87 C-161.78 -116.79, -167.96 -117.74, -183.47 -122.63" stroke="#1e1e1e" stroke-width="1" fill="none"></path></g><g transform="translate(1785.8142012468306 537.889714342027) rotate(0 -91.8952308218079 -61.08928689625486)"><path d="M-164.52 -95.7 C-171.79 -104.23, -178.34 -110.81, -183.62 -123.14 M-166.26 -96.84 C-170.69 -103.62, -174.31 -108.36, -183.47 -122.63" stroke="#1e1e1e" stroke-width="1" fill="none"></path></g></g><mask></mask><g stroke-linecap="round" transform="translate(768.2595926694476 521.3122956897269) rotate(0 106.70016315004477 63.13927930261343)"><path d="M21.05 26.25 C21.05 26.25, 21.05 26.25, 21.05 26.25 M21.05 26.25 C21.05 26.25, 21.05 26.25, 21.05 26.25 M5.59 50.31 C15.62 40.4, 26.29 27.2, 29.35 21.44 M3.65 52.27 C14.07 40.35, 24.77 27.96, 31.15 20.94 M5.58 56.29 C14.42 44.67, 22.3 37.4, 42.54 14.78 M3.75 58.18 C12.61 48.23, 21.37 37.38, 41.93 14.7 M3.69 63.8 C21.72 41.68, 38.7 24.18, 52.54 8.36 M4.18 64.08 C22.43 43.54, 39.62 23.33, 52.44 8.88 M4.38 69.17 C20.34 50.36, 37.76 31.42, 54.42 9.8 M5.48 69.05 C17.06 55.27, 27.88 41.12, 55.38 10.23 M2.89 76.66 C19.42 63.08, 32.58 46.24, 62.08 10.22 M3.4 77.33 C23.06 54.32, 41.64 33.49, 62.28 9.64 M7.12 81.57 C23.13 63.37, 36.86 43.06, 68 6.47 M5.83 79.42 C19.73 65.64, 31.41 49.58, 68.24 8.41 M10.5 81.42 C23.2 67.2, 38.5 46.75, 76.29 7.97 M8.67 83.14 C29.76 58.12, 49.61 35.22, 74.1 6.93 M9.06 87.27 C36.69 53.33, 68.2 21.57, 82.68 7.04 M10.05 86.96 C25.74 66.94, 43.76 48.13, 81.46 5.05 M11.45 91.85 C40.45 56.79, 69.72 23.29, 89.15 6.34 M13.35 90 C34.22 66.2, 54.07 42.35, 88.4 5.36 M13.59 93.49 C45.26 59.22, 71.35 27.75, 96.55 -0.07 M14.93 93.9 C31.71 73.29, 49.43 55.27, 95.12 0.25 M15.94 96.41 C38.27 74.14, 58.66 51.33, 102 3.24 M18.49 97.11 C45.2 65.6, 71.56 36.67, 100.43 1.78 M21.47 98.91 C37.56 78.51, 55.08 60.76, 105.27 2.31 M20.03 100.97 C39.16 77.82, 58.64 55.87, 105.23 0.92 M22.92 103.96 C52.05 71.78, 78.84 41.14, 111.62 2.79 M22.29 104.24 C55.37 66.43, 89.52 27.25, 110.33 2.37 M28.14 104.1 C46.69 82.41, 67.05 58.69, 117.68 1.48 M27.01 105.94 C59.67 67.26, 92.82 28.66, 115.45 2.19 M30.71 108.81 C51.21 81.57, 73.85 56.2, 122.08 1.75 M30.74 106.67 C60.02 73.51, 88.9 40.2, 120.9 3.04 M33.85 110.36 C68.05 70.74, 105.72 28.17, 124.1 4.92 M33.72 108.37 C65.74 72.24, 97.26 36.71, 125.28 3.52 M36.43 111.97 C60 85.65, 78.23 63.16, 130.26 5.6 M37.01 110.47 C68.44 75.88, 98.75 39.66, 131.15 3.49 M40.2 110.41 C64.37 85.97, 88.19 56.41, 136.94 3.09 M42.77 112.35 C63.73 87.28, 86.76 60.2, 136.72 3.37 M45.86 114.39 C66.32 88.53, 85.45 67.25, 141.05 4.75 M45.36 113.74 C73.12 83.2, 98.94 52.9, 141.55 3.47 M47.54 115.42 C78.75 84.94, 104.04 49.13, 145.97 6.12 M48.96 115.49 C83.52 75.18, 117.41 34.62, 145.56 6.02 M52.89 118.2 C82.08 85.44, 108.57 50.72, 149.48 8.8 M52.58 117.88 C84.79 80.79, 116.91 43.28, 148.06 7.01 M58.27 119.23 C95.63 77.16, 134.93 33.66, 155.06 7.07 M56.49 119.19 C76.89 95.49, 98.11 70.75, 154.07 8.74 M60.1 121.46 C91.89 88.44, 119.64 54.01, 159.22 11.02 M60.51 120.28 C97.38 78.58, 134.81 35.36, 156.72 8.89 M64.14 119.12 C90.18 89.47, 119.89 58.35, 160.1 11.69 M66.39 121.37 C96.66 86.35, 125.71 52.68, 160.95 11.59 M71.47 121.91 C92.85 97.87, 114.25 72.78, 166.06 14.15 M70.84 122.14 C92.03 95.59, 114.39 70, 165.1 12.46 M76.39 122.57 C108.47 86.6, 138.37 50.39, 170.37 13.41 M74.51 123.25 C107.72 83.66, 142.71 43.97, 170.72 14.44 M78.41 123.26 C97.22 101.57, 116.76 78.21, 172.47 14.82 M79.07 124.69 C111.56 86.06, 145.18 46.81, 174.84 14.08 M82.24 125.47 C102.98 102.86, 124.58 81.23, 179.93 14.13 M84.15 125.56 C111.62 93.86, 137.53 64.71, 179.05 15.65 M89.7 124.38 C117.14 94.07, 146.38 62.34, 181.74 18.41 M88.47 126.43 C118.74 91.7, 149.88 54.86, 181.81 17.91 M94.37 127.7 C123.22 90.45, 156.22 53.69, 182.9 20.91 M93.43 126.1 C126.44 88.55, 162.27 47.33, 184.12 20.92 M98.19 125.34 C126 91.26, 158.38 55.13, 187.13 24.94 M96.82 127.16 C121.84 99.56, 145.22 72.53, 187.27 23.87 M102.1 124.75 C131.38 96.75, 156.22 66.63, 188.75 25.75 M104.53 125.37 C135.59 88.84, 169.13 49.36, 189.82 26.91 M110.07 125.36 C134.78 95.55, 161.92 66.73, 195.34 29.88 M109.62 125.92 C139.95 91.69, 171.29 57.55, 193.3 28.42 M116.92 123.88 C136.51 103.7, 154.72 79.81, 198.36 30.58 M115.22 124.75 C132.72 104.32, 150.24 83.78, 195.88 32.35 M119.71 125.43 C144.48 94.37, 168.21 66.07, 199.77 35.14 M120.97 125.59 C144.17 98.19, 169.11 71.14, 200.11 33.54 M124.99 126.23 C153.16 95.77, 180.8 62.1, 202.67 36.29 M127.33 124.59 C143.91 107.24, 158.73 88.9, 202.52 37 M131.45 124.9 C149.64 106.47, 165.69 85.13, 205.91 39.57 M131.33 123.55 C153.76 97.93, 176.96 71.82, 205.39 39.26 M136.54 121.9 C160.51 98.82, 181.98 72.6, 205.39 44.2 M138.19 123.29 C157.67 100.7, 177.77 77.58, 207.08 43.16 M142.42 123.61 C158.25 104.95, 176.42 86.1, 208.67 45.96 M142.37 123.7 C161.44 102.62, 178.66 82.64, 209.67 48.65 M150.53 121.18 C166.61 102.11, 181.51 85.45, 209.6 53.06 M149.22 122.53 C173.25 94.03, 197.66 66.29, 210.72 52.64 M157.02 118.26 C179.24 95.47, 200.14 74.21, 212.29 56.03 M157.43 118.97 C169.91 104.7, 181.89 90.14, 212.22 56.78 M163.28 117.77 C180.57 99.88, 197.03 78.51, 213.74 59.06 M164.65 118.5 C176.87 102.66, 190.48 88.08, 214.35 60.78 M172.55 115.09 C182.88 101.85, 195.1 89.01, 213.78 64.17 M171.16 115.86 C182.09 101.17, 193.51 87.59, 214.46 64.51 M179.89 110.1 C189.95 98.14, 200.41 88.99, 211.11 73.6 M180.88 111.2 C187.79 105.01, 193.5 97.47, 212.15 76.27" stroke="#ffc9c9" stroke-width="0.5" fill="none"></path><path d="M94.6 0.2 C108.07 -1.64, 125.44 0.69, 139.24 3.24 C153.05 5.8, 166.81 9.87, 177.42 15.52 C188.04 21.16, 197.01 29.18, 202.95 37.12 C208.9 45.07, 212.87 54.62, 213.1 63.19 C213.33 71.76, 209.93 80.65, 204.33 88.55 C198.73 96.45, 190.13 105, 179.5 110.6 C168.88 116.19, 154.37 119.55, 140.58 122.1 C126.79 124.65, 111.14 126.68, 96.76 125.9 C82.38 125.12, 67.07 121.6, 54.28 117.39 C41.49 113.19, 28.54 107.51, 20.03 100.65 C11.53 93.8, 6.35 84.57, 3.25 76.27 C0.15 67.98, -1.48 59.18, 1.44 50.89 C4.36 42.61, 12.18 33.71, 20.78 26.56 C29.37 19.42, 40.04 12.48, 53.03 8.02 C66.02 3.56, 90.55 0.94, 98.69 -0.2 C106.83 -1.33, 101.9 0.05, 101.87 1.21 M108.06 -0.38 C121.64 -1.54, 136.6 1.31, 149.86 5.07 C163.11 8.82, 177.91 15.57, 187.62 22.13 C197.32 28.68, 204.06 36.35, 208.11 44.39 C212.16 52.42, 213.41 61.66, 211.93 70.32 C210.45 78.99, 206.22 89.24, 199.23 96.39 C192.23 103.53, 181.56 108.31, 169.94 113.19 C158.32 118.07, 143.66 123.69, 129.5 125.67 C115.34 127.64, 99.22 126.89, 84.98 125.04 C70.73 123.18, 55.92 119.41, 44.03 114.55 C32.13 109.69, 20.63 103.27, 13.61 95.88 C6.59 88.5, 3.25 79.19, 1.89 70.23 C0.53 61.26, 1.27 50.46, 5.46 42.09 C9.64 33.71, 17.31 26.16, 26.98 19.98 C36.66 13.8, 50.14 8.23, 63.5 5.01 C76.87 1.79, 100.07 1.43, 107.15 0.65 C114.23 -0.12, 106.17 -0.8, 105.97 0.34" stroke="#1e1e1e" stroke-width="1" fill="none"></path></g><g transform="translate(814.811388101115 571.805362438231) rotate(0 60.19995880126953 12.5)"><text x="60.19995880126953" y="0" font-family="Virgil, Segoe UI Emoji" font-size="20px" fill="#1e1e1e" text-anchor="middle" style="white-space: pre;" direction="ltr" dominant-baseline="text-before-edge">OLAP_SCAN</text></g><g stroke-linecap="round" transform="translate(186.2011333816231 263.96554358311073) rotate(0 127.44971225443237 70.14060519369025)"><path d="M80.58 5.52 C93.34 1.6, 110.97 0.7, 126.59 0.45 C142.22 0.21, 159.95 0.95, 174.32 4.04 C188.69 7.13, 201.68 13.25, 212.83 18.99 C223.98 24.74, 234.32 30.92, 241.21 38.48 C248.1 46.05, 252.79 55.84, 254.19 64.4 C255.6 72.95, 253.72 81.96, 249.64 89.81 C245.55 97.66, 239.02 104.73, 229.68 111.5 C220.34 118.27, 206.82 125.97, 193.6 130.45 C180.39 134.92, 165.49 136.76, 150.39 138.36 C135.3 139.95, 118 141.48, 103.04 140.01 C88.09 138.54, 73.41 134.12, 60.69 129.51 C47.97 124.9, 36.01 119.05, 26.7 112.35 C17.38 105.64, 9.02 97.32, 4.8 89.27 C0.59 81.23, -0.14 72.42, 1.43 64.06 C3 55.71, 7.64 46.62, 14.22 39.15 C20.8 31.68, 29.13 25.09, 40.92 19.23 C52.71 13.37, 76.7 6.42, 84.94 3.97 C93.19 1.51, 89.48 3.46, 90.37 4.51 M159.86 0.77 C174.52 1.7, 190.04 7.37, 202.58 12.42 C215.12 17.47, 227.04 23.76, 235.08 31.06 C243.13 38.35, 247.91 47.99, 250.84 56.19 C253.78 64.39, 254.79 72.05, 252.68 80.28 C250.58 88.52, 246 98.14, 238.2 105.62 C230.4 113.11, 217.76 120.04, 205.87 125.18 C193.99 130.32, 181.59 133.95, 166.88 136.47 C152.17 138.99, 132.92 140.81, 117.61 140.29 C102.31 139.78, 88.5 136.96, 75.06 133.39 C61.62 129.83, 47.62 124.69, 36.99 118.89 C26.36 113.09, 17.4 106.56, 11.28 98.6 C5.16 90.63, 1.08 79.57, 0.27 71.12 C-0.55 62.67, 1.09 55.73, 6.4 47.9 C11.71 40.08, 21.84 31.01, 32.13 24.16 C42.43 17.32, 54.87 10.76, 68.18 6.82 C81.5 2.88, 96.78 1.2, 112.02 0.52 C127.27 -0.16, 152.09 2.06, 159.66 2.72 C167.23 3.39, 158.14 3.65, 157.43 4.49" stroke="#1e1e1e" stroke-width="1" fill="none"></path></g><g transform="translate(231.03033561703933 321.50925120781426) rotate(0 82.49995422363281 12.5)"><text x="82.49995422363281" y="0" font-family="Virgil, Segoe UI Emoji" font-size="20px" fill="#1e1e1e" text-anchor="middle" style="white-space: pre;" direction="ltr" dominant-baseline="text-before-edge">PATTERN_LEAF</text></g><g stroke-linecap="round" transform="translate(36.6980968886387 520.9957581381275) rotate(0 127.44971225443237 70.14060519369025)"><path d="M17.88 35.42 C17.88 35.42, 17.88 35.42, 17.88 35.42 M17.88 35.42 C17.88 35.42, 17.88 35.42, 17.88 35.42 M2.91 58.08 C10.32 50.23, 20.97 37.87, 31.4 25.95 M1.12 60.87 C10.78 49.81, 19.14 40.59, 31.57 25.98 M0.55 67.15 C16.82 48.28, 32.76 29.52, 41.83 19.33 M2.26 66.27 C11.33 53.22, 21.98 43.69, 44.4 17.75 M0.81 71.85 C13.6 58.08, 20.44 47.71, 49.77 16.5 M2.27 72.06 C19.34 53.04, 36.81 33.71, 50.23 17.62 M2.06 78.65 C13.75 63.93, 26.98 47.25, 57.21 13.17 M2.73 76.51 C22.24 53.18, 42.87 30.01, 57.83 15.12 M1.96 83.14 C19.79 62.36, 37.98 43.79, 63.93 14.84 M3.47 81.91 C15.74 67.56, 29.44 52.93, 64.11 12.08 M6.19 87.16 C32.45 58.27, 56.5 26.75, 71.47 9.64 M5.19 86.79 C25.85 60.93, 46.77 36.79, 70.06 10.48 M8.53 89.19 C35.84 60.09, 61.43 29.23, 77.77 7.71 M7.49 89.33 C30.3 66.27, 51.58 40.03, 77.34 8.88 M8.81 91.96 C28.87 70.37, 48.14 48.47, 84.57 7.81 M10.84 92.03 C28.98 71.19, 47.79 49.35, 85.59 8.12 M14.4 95.33 C35.63 72.39, 55.77 47.38, 92.83 3.97 M13.88 95.71 C37.32 68.24, 61.94 39.18, 91.81 5.01 M14.8 99.18 C47.68 64.65, 77.26 26.68, 96.73 5.59 M16.04 99.38 C37.8 73.01, 61 44.96, 96.29 5.53 M18.4 100.98 C33.53 84.25, 51.43 63.23, 103.01 3.56 M18.22 102.94 C46.6 68.48, 75.89 33.38, 103.87 3.97 M20.55 105.74 C50.53 69.35, 82.15 36.31, 110.41 5.42 M20.77 106.17 C44.07 78.6, 69.92 48.28, 109.35 5.16 M22.89 108.58 C53.04 75.78, 81.11 39.87, 114.36 4.45 M22.76 110.34 C59.07 69.23, 93.37 28.9, 114.09 4.66 M26.07 111.86 C56.24 76.98, 86.3 41.62, 118.99 1.56 M26.68 110.46 C49.39 82.17, 75.52 52.72, 119.99 3.67 M29.17 112.36 C57.27 82.02, 84.88 50.56, 125.92 2.92 M29.74 113.44 C52.69 88.82, 75.36 62.63, 126.16 1.75 M32.34 116.1 C60.43 81.75, 92.38 48.57, 133.52 2.08 M32.51 116.03 C52.23 91.13, 73.51 67.84, 132.17 1.97 M37.54 119.44 C61.53 89, 90.03 57.72, 137.69 1.58 M35.52 117.02 C72.99 78.91, 106.85 38.78, 136.78 1.62 M39.93 120.29 C66.02 91.98, 88.55 62.97, 143.26 3.62 M40.66 119.4 C80.83 74.16, 121.63 26.82, 143.2 1.91 M41.86 121.68 C74.85 91.4, 99.1 56.2, 148.62 3.13 M43.1 121.07 C70.35 93.63, 95.18 64.62, 147.73 2.13 M47.01 123.88 C82.82 81.84, 121.22 37.96, 149.79 1.65 M47.27 124.03 C78.36 85.98, 111.66 48.82, 151.75 2.58 M50.29 124.05 C84.79 88.24, 115 48.53, 155.86 2.51 M50.86 125.05 C80.3 91.54, 109.4 56.43, 157.06 4.82 M53.35 127.34 C76.38 99.43, 100.03 70.45, 161.59 3.4 M54.13 127.87 C90.06 86.44, 126.16 44.89, 160.49 5.27 M59.19 129.79 C83.95 101.06, 111.44 67.86, 165.54 5.03 M58.53 129.12 C86.15 98.06, 111.67 66.67, 165.91 4.97 M60.97 131.95 C87.18 100.08, 115.53 70.03, 170.74 7.72 M63.39 131.05 C87.27 101.65, 111.24 73.15, 170.83 7.24 M67.27 131.24 C89.92 102.31, 114.04 74.44, 174.73 8.05 M67.21 130.92 C90.59 105.3, 112.66 77.44, 174.45 7.35 M72.88 133.34 C94.7 108.12, 112.8 81.15, 178.27 7.48 M72.29 131.47 C104.26 96.29, 135.75 59.57, 180.2 8.23 M74.15 134.79 C114.91 92.19, 151.05 49.62, 183.43 8.98 M76.05 132.58 C103.3 103.39, 130.35 71.75, 183.85 8.17 M79.69 134.42 C112.6 99.57, 143.75 60.83, 188.86 11.14 M79.73 135.73 C120.25 89.02, 159.29 45.72, 186.74 9.96 M84.39 136.89 C120.16 94.21, 161.23 49.63, 193.26 10.81 M84.24 136.67 C117.38 95.54, 152.3 56.05, 191.05 12.62 M88.88 135.91 C124.49 95.64, 161.45 50.59, 194.72 14.22 M87.62 137.63 C112.67 106.81, 136.95 79.09, 195.25 13.59 M93.48 137.8 C133.81 93.74, 173.03 48.71, 199.42 13.58 M92.95 137.98 C135.18 89.43, 177.37 40.44, 200.6 14.37 M97.59 140.12 C132.63 97.7, 169.62 56.71, 203.7 15.77 M97.61 139.95 C121.82 110.17, 148.84 79.6, 203.26 16.26 M101.15 140.58 C137.43 97.7, 171.84 56.82, 206.72 18.9 M102.72 138.53 C137.6 100.19, 171.46 62.5, 208.8 18.02 M105.89 141.39 C138.58 104.71, 165.86 72.49, 212.58 20.95 M108.35 138.95 C136.27 105.79, 165.25 72.91, 212.31 19.58 M114.79 139.88 C148.23 94.7, 188.01 54.52, 214.92 20.43 M112.84 140.31 C152.22 94.79, 192.32 49.2, 216.96 21.68 M116.77 138.15 C140.87 114.44, 159.22 91.4, 219.74 20.2 M117.53 140.34 C153.65 98.5, 190.31 55.57, 220.66 22.87 M122.71 140.41 C143.21 113.32, 166.87 87.8, 222.05 24.66 M124.61 139.77 C154.73 103.87, 184.33 69.43, 222.77 23.67 M127.53 141.63 C156.99 104.27, 191.02 66.35, 224.56 26.55 M129.23 140.07 C155.61 108.18, 182.7 76.72, 226.63 26.47 M134.17 140.93 C154.42 116.78, 170.3 92.07, 229.74 29.38 M133.36 139.85 C158.7 110.14, 183.5 81.49, 229.63 29.02 M139.03 138.38 C157.65 114.68, 179.65 90.25, 233.91 31.55 M139.2 138.8 C170.6 100.68, 203.7 63.06, 233.16 31.6 M145.33 140 C171.28 108.94, 203.38 74.35, 234.55 32.45 M144.43 139.67 C169.49 109.85, 195.41 79.88, 235.93 34.22 M151.76 138.25 C183.27 102.15, 211.99 65.66, 239.02 38.1 M150.88 137.9 C172.63 114.24, 195.74 87.97, 238.61 37.28 M157.28 138.26 C178.47 112.15, 198.37 88.18, 240.64 39.04 M157.18 136.85 C178.01 114.9, 198.54 91.53, 241.79 40.51 M165.11 135.15 C190.26 107.46, 218.51 75.05, 246.02 40.9 M162.75 136.21 C180.3 116.7, 195.72 98.58, 245.34 42.69 M168.77 134.17 C186.87 118.43, 203.75 95.5, 246.46 43.12 M169.73 135.21 C187.57 114.25, 206.08 92.62, 247.67 45.31 M175.47 133.32 C202.67 100.26, 234.12 68.7, 248 46.98 M176.35 134.3 C202.99 102.09, 230.86 72.07, 249.78 49.77 M181.47 133.99 C203.47 108.45, 224.68 84.4, 250.75 53.76 M182.19 132.82 C199.99 112.24, 217.39 91.33, 252.46 52.55 M187.47 131.56 C211.29 107.36, 233.53 81.97, 252.31 55.89 M187.55 132.71 C204.62 114, 221.03 94.47, 253.71 57.41 M196.59 127.03 C217.54 107.5, 232.8 86.59, 255.8 62.8 M197.34 127.16 C213.78 109.27, 231.68 88.12, 254.67 62.35 M205.92 122.68 C217.78 109.35, 228.54 99.3, 254.57 66.04 M206.53 123.39 C221.93 105.28, 238.3 87.39, 254.27 67.73 M213.68 119.67 C230.3 105.05, 242.35 88.31, 252.27 77.69 M215.35 119.23 C224.13 108.83, 231.62 99, 251.26 77.82 M224.07 115.65 C233.2 105.8, 238.57 96.69, 251.42 86.42 M223.97 115.87 C229.79 108.96, 234.33 102.89, 248.7 85.84" stroke="#a5d8ff" stroke-width="0.5" fill="none"></path><path d="M181.04 6.87 C195.02 9, 208.39 14.82, 219.13 20.7 C229.88 26.57, 239.61 34.38, 245.53 42.12 C251.45 49.85, 254.45 58.59, 254.65 67.12 C254.85 75.64, 251.83 85.27, 246.71 93.28 C241.59 101.29, 233.63 108.77, 223.92 115.19 C214.2 121.62, 201.75 127.71, 188.42 131.83 C175.09 135.95, 159.15 138.69, 143.95 139.91 C128.74 141.12, 112.34 141.23, 97.19 139.12 C82.05 137, 65.62 132.24, 53.08 127.2 C40.54 122.16, 30.33 115.98, 21.96 108.87 C13.6 101.75, 6.37 92.85, 2.9 84.52 C-0.57 76.19, -1.35 67.06, 1.14 58.87 C3.64 50.69, 10.02 42.75, 17.86 35.44 C25.7 28.13, 36.23 20.23, 48.16 15.01 C60.1 9.79, 74.81 6.68, 89.47 4.14 C104.13 1.59, 118.71 -1.21, 136.11 -0.26 C153.52 0.69, 182.43 6.9, 193.91 9.84 C205.39 12.78, 206.01 16.11, 204.98 17.38 M79.8 4.36 C92.86 0.51, 112.11 0.73, 127.81 0.65 C143.5 0.56, 159.98 0.7, 173.97 3.83 C187.95 6.95, 200.55 13.68, 211.72 19.4 C222.89 25.13, 233.72 30.81, 240.99 38.17 C248.27 45.53, 253.88 55.24, 255.38 63.56 C256.88 71.88, 254.36 80.03, 250 88.11 C245.64 96.19, 238.23 105.26, 229.22 112.02 C220.2 118.79, 208.69 123.99, 195.91 128.7 C183.12 133.41, 167.7 138.39, 152.52 140.28 C137.35 142.18, 120.34 141.65, 104.87 140.05 C89.4 138.46, 72.97 135.31, 59.72 130.7 C46.46 126.1, 34.27 119.4, 25.33 112.42 C16.4 105.45, 10.28 96.95, 6.11 88.85 C1.95 80.75, -0.84 72.29, 0.35 63.83 C1.53 55.37, 6.59 45.74, 13.23 38.08 C19.87 30.42, 28.98 23.27, 40.2 17.85 C51.41 12.42, 73.52 7.57, 80.54 5.52 C87.56 3.47, 81.53 4.45, 82.31 5.57" stroke="#1e1e1e" stroke-width="1" fill="none"></path></g><g transform="translate(138.53727074270728 578.539465762831) rotate(0 25.48998260498047 12.5)"><text x="25.48998260498047" y="0" font-family="Virgil, Segoe UI Emoji" font-size="20px" fill="#1e1e1e" text-anchor="middle" style="white-space: pre;" direction="ltr" dominant-baseline="text-before-edge">JOIN</text></g><g stroke-linecap="round" transform="translate(404.6777620769899 533.5173683901148) rotate(0 127.44971225443237 70.14060519369025)"><path d="M96.49 1.79 C109.84 -1.07, 126.84 -0.52, 141.83 0.68 C156.81 1.87, 172.67 4.96, 186.42 8.98 C200.16 13, 214.17 18.57, 224.3 24.78 C234.42 30.99, 242.21 38.38, 247.17 46.23 C252.13 54.08, 254.48 63.39, 254.06 71.87 C253.63 80.36, 250.25 89.32, 244.62 97.16 C238.98 105, 230.88 112.79, 220.26 118.92 C209.63 125.06, 195.03 130.54, 180.87 133.95 C166.71 137.36, 150.51 138.86, 135.29 139.38 C120.08 139.91, 104.29 139.36, 89.59 137.12 C74.89 134.88, 59.28 131.2, 47.12 125.93 C34.95 120.66, 24.07 113.11, 16.63 105.5 C9.19 97.89, 4.75 88.67, 2.47 80.27 C0.19 71.88, -0.14 63.34, 2.94 55.13 C6.02 46.92, 12.62 38.12, 20.96 31.03 C29.31 23.95, 39.18 17.64, 53.02 12.61 C66.86 7.58, 94.2 2.8, 103.98 0.86 C113.76 -1.07, 111.22 -0.12, 111.69 0.99 M141.02 1.6 C155.47 1.27, 170.86 4.21, 184.51 7.65 C198.17 11.09, 212.53 15.86, 222.96 22.22 C233.38 28.58, 241.55 37.7, 247.07 45.8 C252.59 53.9, 256.21 62.54, 256.05 70.83 C255.89 79.12, 252.16 87.88, 246.1 95.55 C240.05 103.22, 230.31 110.75, 219.71 116.86 C209.11 122.96, 196.3 128.1, 182.52 132.16 C168.74 136.22, 152.28 140.11, 137.02 141.21 C121.75 142.31, 105.35 141.44, 90.93 138.76 C76.5 136.07, 62.35 130.32, 50.47 125.1 C38.58 119.88, 27.61 114.45, 19.6 107.44 C11.58 100.44, 5.23 91.74, 2.37 83.08 C-0.49 74.41, -0.48 63.94, 2.43 55.45 C5.34 46.96, 11.71 39.09, 19.82 32.13 C27.93 25.18, 38.94 18.44, 51.09 13.73 C63.23 9.03, 77.59 5.96, 92.68 3.89 C107.77 1.83, 133.87 1.79, 141.62 1.34 C149.38 0.88, 139.72 0.28, 139.21 1.18" stroke="#1e1e1e" stroke-width="1" fill="none"></path></g><g transform="translate(449.5069643124061 591.0610760148184) rotate(0 82.49995422363281 12.5)"><text x="82.49995422363281" y="0" font-family="Virgil, Segoe UI Emoji" font-size="20px" fill="#1e1e1e" text-anchor="middle" style="white-space: pre;" direction="ltr" dominant-baseline="text-before-edge">PATTERN_LEAF</text></g><g stroke-linecap="round"><g transform="translate(165.1474286822595 519.0062148612876) rotate(0 78.33273754882066 -57.426395883810414)"><path d="M-0.33 0.32 C25.98 -18.51, 130.54 -94.42, 156.99 -113.26 M1.7 -0.56 C27.91 -19.74, 129.83 -96.17, 155.93 -115.17" stroke="#1e1e1e" stroke-width="1" fill="none"></path></g><g transform="translate(165.1474286822595 519.0062148612876) rotate(0 78.33273754882066 -57.426395883810414)"><path d="M139.91 -90.53 C143.87 -93.87, 148.55 -101.59, 155.52 -113.28 M139.85 -91.07 C145.09 -97.98, 149.61 -105.56, 155.34 -114.49" stroke="#1e1e1e" stroke-width="1" fill="none"></path></g><g transform="translate(165.1474286822595 519.0062148612876) rotate(0 78.33273754882066 -57.426395883810414)"><path d="M127.7 -107.02 C134.43 -106.56, 141.9 -110.5, 155.52 -113.28 M127.64 -107.56 C136.36 -109.52, 144.47 -112.26, 155.34 -114.49" stroke="#1e1e1e" stroke-width="1" fill="none"></path></g></g><mask></mask><g stroke-linecap="round"><g transform="translate(519.9852084523391 531.5559380524917) rotate(0 -92.46322389535771 -62.94435005293724)"><path d="M-0.38 0.72 C-31.48 -20.14, -155.5 -103.71, -186.54 -124.88 M1.62 0.05 C-29.1 -21.17, -153.29 -105.7, -184.26 -126.61" stroke="#1e1e1e" stroke-width="1" fill="none"></path></g><g transform="translate(519.9852084523391 531.5559380524917) rotate(0 -92.46322389535771 -62.94435005293724)"><path d="M-153.97 -120.63 C-162.73 -123.09, -173.94 -124.44, -182.48 -124.9 M-154.47 -119.46 C-165.35 -122.75, -175.41 -125, -184.7 -127.21" stroke="#1e1e1e" stroke-width="1" fill="none"></path></g><g transform="translate(519.9852084523391 531.5559380524917) rotate(0 -92.46322389535771 -62.94435005293724)"><path d="M-165.49 -103.65 C-170.81 -111.21, -178.53 -117.69, -182.48 -124.9 M-165.99 -102.48 C-172.5 -111.86, -178.35 -120.32, -184.7 -127.21" stroke="#1e1e1e" stroke-width="1" fill="none"></path></g></g><mask></mask><g stroke-linecap="round" transform="translate(11.165359757495025 244.7444724967104) rotate(0.2933213613567193 330.0534432072295 228.48079567255536)"><path d="M32 0 M32 0 C211.02 -2.95, 388.92 -1.44, 628.11 0 M32 0 C169.24 -1.77, 306.61 -2.11, 628.11 0 M628.11 0 C647.47 0.27, 661.83 9.82, 660.11 32 M628.11 0 C648.67 1.67, 659.83 9.77, 660.11 32 M660.11 32 C659.47 180.42, 659.45 328.23, 660.11 424.96 M660.11 32 C661 125.24, 660.31 219.04, 660.11 424.96 M660.11 424.96 C658.94 447.39, 647.82 457.48, 628.11 456.96 M660.11 424.96 C659.69 445.28, 649.7 454.74, 628.11 456.96 M628.11 456.96 C427.52 458.03, 224.93 457.99, 32 456.96 M628.11 456.96 C477.17 454.46, 325.26 454.23, 32 456.96 M32 456.96 C11.99 456.76, 0.26 447.44, 0 424.96 M32 456.96 C10.79 456.95, -1.93 447.97, 0 424.96 M0 424.96 C0.29 292.9, 0.38 160.56, 0 32 M0 424.96 C-0.35 289.36, -0.85 154.34, 0 32 M0 32 C-0.79 12.22, 9.05 0.24, 32 0 M0 32 C-0.64 11.69, 9.3 -0.6, 32 0" stroke="#1e1e1e" stroke-width="1" fill="none"></path></g><g transform="translate(275.4008755946861 780.8466298025583) rotate(0 49.20996856689453 12.5)"><text x="0" y="0" font-family="Virgil, Segoe UI Emoji" font-size="20px" fill="#1e1e1e" text-anchor="start" style="white-space: pre;" direction="ltr" dominant-baseline="text-before-edge">PATTERN</text></g><g transform="translate(1232.0996673080926 781.9828516454486) rotate(0 68.15992736816406 12.5)"><text x="0" y="0" font-family="Virgil, Segoe UI Emoji" font-size="20px" fill="#1e1e1e" text-anchor="start" style="white-space: pre;" direction="ltr" dominant-baseline="text-before-edge">OptExpression</text></g><g stroke-linecap="round" transform="translate(928.8172025879294 10) rotate(0 398.5941677089986 222.63512489112645)"><path d="M32 0 M32 0 C232.99 -2.27, 435.88 -2.12, 765.19 0 M765.19 0 C788.11 -0.05, 797.73 12.22, 797.19 32 M797.19 32 C796.36 113.22, 797.18 191.92, 797.19 413.27 M797.19 413.27 C797.65 435.11, 785.85 445.63, 765.19 445.27 M765.19 445.27 C555.31 444.01, 347.35 444.61, 32 445.27 M32 445.27 C10.45 444.46, 1.22 433.63, 0 413.27 M0 413.27 C-0.85 285.43, 0.38 154.91, 0 32 M0 32 C0.03 12.11, 9.25 -1.97, 32 0" stroke="#1e1e1e" stroke-width="1.5" fill="none" stroke-dasharray="8 9"></path></g></svg>