<svg version="1.1" xmlns="http://www.w3.org/2000/svg" viewBox="0 0 3155.6613917101636 1557.9355027387464" width="6311.322783420327" height="3115.871005477493">
  <!-- svg-source:excalidraw -->
  
  <defs>
    <style class="style-fonts">
      @font-face {
        font-family: "Virgil";
        src: url("https://excalidraw.com/Virgil.woff2");
      }
      @font-face {
        font-family: "Cascadia";
        src: url("https://excalidraw.com/Cascadia.woff2");
      }
    </style>
    
  </defs>
  <rect x="0" y="0" width="3155.6613917101636" height="1557.9355027387464" fill="#ffffff"></rect><g stroke-linecap="round" transform="translate(387.70143773796315 198.7086860744921) rotate(0 45.5 37)"><path d="M4.92 4.28 C4.92 4.28, 4.92 4.28, 4.92 4.28 M4.92 4.28 C4.92 4.28, 4.92 4.28, 4.92 4.28 M0.73 15.21 C3.42 8.81, 8.76 6.23, 11.88 2.38 M0.73 15.21 C4.07 11.67, 7.42 7.82, 11.88 2.38 M1.12 20.85 C5.42 17.37, 11.26 10.04, 18.83 0.47 M1.12 20.85 C6.76 15.13, 9.59 10.94, 18.83 0.47 M0.86 27.25 C10.02 17.16, 13.62 9.22, 24.48 0.08 M0.86 27.25 C9.8 16.04, 20.05 5.53, 24.48 0.08 M1.25 32.89 C7.63 22.75, 15.98 12.16, 29.46 0.44 M1.25 32.89 C6.72 25.23, 14.21 18.1, 29.46 0.44 M0.99 39.29 C13.26 28.23, 20.71 15.15, 34.45 0.8 M0.99 39.29 C7.95 30.32, 16.67 22.35, 34.45 0.8 M0.73 45.69 C14.05 32.15, 24.08 18.04, 40.09 0.4 M0.73 45.69 C10.69 33.08, 21.1 21.81, 40.09 0.4 M1.13 51.33 C11.86 38.16, 26.6 24.16, 45.08 0.76 M1.13 51.33 C16.69 34.01, 31.59 16.64, 45.08 0.76 M0.86 57.73 C11.33 48.09, 20.89 33.51, 50.72 0.37 M0.86 57.73 C14.01 42.69, 25.61 30.3, 50.72 0.37 M2.57 61.86 C24.71 37.04, 42.14 14.17, 55.71 0.73 M2.57 61.86 C16.03 45.98, 30.28 30.12, 55.71 0.73 M4.28 65.99 C24.81 45.31, 44.1 23.16, 61.36 0.33 M4.28 65.99 C17.65 51.41, 30.49 36.49, 61.36 0.33 M5.98 70.13 C26.98 46.99, 47.33 25.63, 66.34 0.69 M5.98 70.13 C22.23 50.58, 37.88 31.74, 66.34 0.69 M9.66 72 C23.42 54.15, 38.66 38.15, 71.99 0.3 M9.66 72 C25.54 54.03, 42.15 35.6, 71.99 0.3 M13.33 73.87 C34.47 48.99, 55.71 25.29, 76.97 0.66 M13.33 73.87 C29.79 52.48, 47.64 33.67, 76.97 0.66 M17.01 75.74 C38.22 53, 56.53 29.43, 80.65 2.53 M17.01 75.74 C42.04 47.02, 64.69 19.44, 80.65 2.53 M22 76.1 C42.27 52.38, 61.17 29.4, 84.98 3.64 M22 76.1 C46.77 47.03, 71.15 20.37, 84.98 3.64 M27.64 75.7 C46.05 55.29, 66.55 34.11, 88 6.27 M27.64 75.7 C43.1 59.47, 57.62 42.48, 88 6.27 M32.63 76.06 C49.35 55.28, 67.63 35.91, 90.36 9.65 M32.63 76.06 C49.02 56.61, 64.13 38.82, 90.36 9.65 M37.61 76.42 C48.26 60.58, 62.79 47.52, 92.72 13.03 M37.61 76.42 C54.19 58.62, 69.13 40.57, 92.72 13.03 M43.26 76.03 C53.03 63.08, 65.15 50.89, 92.46 19.42 M43.26 76.03 C54.11 62.92, 66.61 48.96, 92.46 19.42 M48.24 76.39 C65.9 55.6, 80.1 37.19, 92.2 25.82 M48.24 76.39 C62.58 58.8, 76.7 43.18, 92.2 25.82 M53.89 75.99 C63.23 62.56, 74.99 53.02, 91.94 32.22 M53.89 75.99 C66.35 61.73, 78.43 48.22, 91.94 32.22 M58.87 76.35 C64.84 68.11, 72.84 59.12, 92.33 37.86 M58.87 76.35 C64.97 68.9, 71.39 61.01, 92.33 37.86 M64.52 75.96 C72.16 69.4, 77.49 60.57, 92.07 44.26 M64.52 75.96 C69.8 69.21, 76.67 61.2, 92.07 44.26 M69.5 76.32 C78.73 67.02, 86.04 60.6, 91.81 50.66 M69.5 76.32 C76.65 67.84, 83.85 60.91, 91.81 50.66 M75.15 75.92 C79.5 69.46, 87.02 60.62, 92.2 56.3 M75.15 75.92 C78.98 72.59, 81.89 67.04, 92.2 56.3 M82.1 74.02 C83.94 71.13, 89.23 65.88, 92.6 61.94 M82.1 74.02 C85.51 71.19, 88.29 67.59, 92.6 61.94" stroke="#ffc9c9" stroke-width="0.5" fill="none"></path><path d="M18.5 0 M18.5 0 C38.56 0.66, 60.9 -1.12, 72.5 0 M18.5 0 C36.92 0.63, 54.26 -1.05, 72.5 0 M72.5 0 C85.6 0.36, 91.9 4.9, 91 18.5 M72.5 0 C86.88 0.11, 92.91 6.24, 91 18.5 M91 18.5 C90.5 31.73, 91.33 45.96, 91 55.5 M91 18.5 C91.01 27.18, 90.94 35.79, 91 55.5 M91 55.5 C91.42 69.66, 83.32 73.39, 72.5 74 M91 55.5 C88.96 67.59, 84.38 73.25, 72.5 74 M72.5 74 C51.04 72.52, 30.99 72.1, 18.5 74 M72.5 74 C57.74 73.18, 43.58 73.17, 18.5 74 M18.5 74 C5.46 74.18, 1.88 69.6, 0 55.5 M18.5 74 C4.6 74.71, 1.15 67.78, 0 55.5 M0 55.5 C1.41 42.53, -0.3 29.53, 0 18.5 M0 55.5 C0.81 46.17, 0.51 37.7, 0 18.5 M0 18.5 C-0.99 6.61, 6.4 -1.26, 18.5 0 M0 18.5 C-1.21 6.21, 5.94 0.82, 18.5 0" stroke="#1e1e1e" stroke-width="1" fill="none"></path></g><g transform="translate(412.56144597770924 223.2086860744921) rotate(0 20.639991760253906 12.5)"><text x="20.639991760253906" y="0" font-family="Virgil, Segoe UI Emoji" font-size="20px" fill="#1e1e1e" text-anchor="middle" style="white-space: pre;" direction="ltr" dominant-baseline="text-before-edge">NEW</text></g><g stroke-linecap="round" transform="translate(572.6076877379631 197.5446235744921) rotate(0 45.5 37)"><path d="M18.5 0 M18.5 0 C34.09 -1.38, 50.91 1.08, 72.5 0 M18.5 0 C36.54 1.38, 56.32 1.13, 72.5 0 M72.5 0 C84.76 1.14, 91.58 5.51, 91 18.5 M72.5 0 C85.78 1.04, 90.95 7.76, 91 18.5 M91 18.5 C91.55 32.85, 89.46 45.57, 91 55.5 M91 18.5 C90.39 25.56, 90.49 33.27, 91 55.5 M91 55.5 C91.88 66.89, 83.99 73.15, 72.5 74 M91 55.5 C90.59 67.57, 86.39 73.05, 72.5 74 M72.5 74 C54.58 73.31, 36.29 74.21, 18.5 74 M72.5 74 C56.47 73.31, 41.31 75.04, 18.5 74 M18.5 74 C6.7 75.84, -0.41 68.93, 0 55.5 M18.5 74 C7.36 72.42, 1.58 69.65, 0 55.5 M0 55.5 C-1.18 43.55, -0.83 34.7, 0 18.5 M0 55.5 C-0.39 41.8, -0.36 29.4, 0 18.5 M0 18.5 C0.69 7.5, 7.38 -1.11, 18.5 0 M0 18.5 C1.3 8.19, 6.33 0.3, 18.5 0" stroke="#1e1e1e" stroke-width="1" fill="none"></path></g><g transform="translate(612.1276920104241 222.0446235744921) rotate(0 5.9799957275390625 12.5)"><text x="5.9799957275390625" y="0" font-family="Virgil, Segoe UI Emoji" font-size="20px" fill="#1e1e1e" text-anchor="middle" style="white-space: pre;" direction="ltr" dominant-baseline="text-before-edge">X</text></g><g stroke-linecap="round" transform="translate(749.2365939879631 193.3883735744921) rotate(0 45.5 37)"><path d="M18.5 0 M18.5 0 C36.38 -0.59, 52.43 -0.53, 72.5 0 M18.5 0 C40.05 -0.92, 60.94 0.52, 72.5 0 M72.5 0 C84.98 0.26, 92.86 6.13, 91 18.5 M72.5 0 C86.54 2.19, 92.88 4.91, 91 18.5 M91 18.5 C92.4 30.45, 92.5 40.83, 91 55.5 M91 18.5 C90.06 26.49, 90.27 34.19, 91 55.5 M91 55.5 C91.56 69.04, 85.89 72.71, 72.5 74 M91 55.5 C90.05 67.91, 82.81 73.68, 72.5 74 M72.5 74 C52.78 72, 29.32 71.91, 18.5 74 M72.5 74 C56.32 74.56, 40.28 73.81, 18.5 74 M18.5 74 C7.69 73.53, -1.02 69.44, 0 55.5 M18.5 74 C4.26 72.46, 1.61 69.07, 0 55.5 M0 55.5 C-0.94 46.68, -0.02 36.89, 0 18.5 M0 55.5 C-0.26 42.3, -0.12 28.43, 0 18.5 M0 18.5 C-0.82 4.41, 4.48 0.48, 18.5 0 M0 18.5 C-0.63 5.18, 6.85 -1.4, 18.5 0" stroke="#1e1e1e" stroke-width="1" fill="none"></path></g><g transform="translate(789.5765979552483 217.8883735744921) rotate(0 5.159996032714844 12.5)"><text x="5.159996032714844" y="0" font-family="Virgil, Segoe UI Emoji" font-size="20px" fill="#1e1e1e" text-anchor="middle" style="white-space: pre;" direction="ltr" dominant-baseline="text-before-edge">Y</text></g><g stroke-linecap="round"><g transform="translate(481.74668093669663 234.86056494468392) rotate(0 45.42352001501513 -0.14422683421460647)"><path d="M0.87 0.07 C15.88 0.27, 76.3 0.87, 90.98 0.77 M-0.13 -0.95 C14.73 -1.03, 75.4 -1.18, 90.64 -0.94" stroke="#1e1e1e" stroke-width="1" fill="none"></path></g></g><mask></mask><g stroke-linecap="round"><g transform="translate(664.2760546282865 232.61388171395066) rotate(0 43.00162968756115 1.316018481841155)"><path d="M-0.39 1.19 C13.68 1.32, 69.97 0.8, 84.28 0.57 M1.6 0.77 C16.03 1.12, 72.54 2.08, 86.4 2.06" stroke="#1e1e1e" stroke-width="1" fill="none"></path></g></g><mask></mask><g stroke-linecap="round" transform="translate(215.05997293616645 97.88316117705551) rotate(0 45.5 37)"><path d="M4.92 4.28 C4.92 4.28, 4.92 4.28, 4.92 4.28 M4.92 4.28 C4.92 4.28, 4.92 4.28, 4.92 4.28 M0.73 15.21 C3.96 9.73, 9.38 6.18, 11.88 2.38 M0.73 15.21 C3.25 11.53, 7.23 8.82, 11.88 2.38 M1.12 20.85 C6.95 13.57, 14.05 4.99, 18.83 0.47 M1.12 20.85 C6 16.6, 10.1 12.51, 18.83 0.47 M0.86 27.25 C11.42 18.92, 16.38 5.55, 24.48 0.08 M0.86 27.25 C8.13 19.43, 15.34 11.75, 24.48 0.08 M1.25 32.89 C11.23 23.52, 18.66 9.67, 29.46 0.44 M1.25 32.89 C9.37 24.43, 16.73 14.85, 29.46 0.44 M0.99 39.29 C11.23 29.57, 18.55 18.71, 34.45 0.8 M0.99 39.29 C11.93 27.55, 20.99 15.95, 34.45 0.8 M0.73 45.69 C10.3 35.47, 18.59 26.86, 40.09 0.4 M0.73 45.69 C15.24 27.83, 31.44 10.65, 40.09 0.4 M1.13 51.33 C14.62 38.95, 26.02 22.09, 45.08 0.76 M1.13 51.33 C9.92 39.99, 20.2 29.76, 45.08 0.76 M0.86 57.73 C16.16 42.42, 29.1 27.56, 50.72 0.37 M0.86 57.73 C17.45 37.67, 35.89 18.78, 50.72 0.37 M2.57 61.86 C21.83 42.09, 36.86 20.38, 55.71 0.73 M2.57 61.86 C21.77 39.21, 40.15 18.55, 55.71 0.73 M4.28 65.99 C19.5 49, 32.42 33.59, 61.36 0.33 M4.28 65.99 C18.66 49.28, 32.53 33.16, 61.36 0.33 M5.98 70.13 C20.26 55.8, 34.96 38.32, 66.34 0.69 M5.98 70.13 C28.72 45.53, 49.76 20.23, 66.34 0.69 M9.66 72 C26.31 54.86, 42.72 34.73, 71.99 0.3 M9.66 72 C28.63 48.31, 49.24 25.79, 71.99 0.3 M13.33 73.87 C28.64 55.84, 45.76 37.92, 76.97 0.66 M13.33 73.87 C33.7 50.08, 53.41 26.39, 76.97 0.66 M17.01 75.74 C41.17 47.99, 65.69 20.01, 80.65 2.53 M17.01 75.74 C33.84 56.38, 52.58 37.23, 80.65 2.53 M22 76.1 C36.03 58.2, 50.68 43.18, 84.98 3.64 M22 76.1 C38.21 56.16, 53.9 37.31, 84.98 3.64 M27.64 75.7 C45.51 57.72, 62.21 37.33, 88 6.27 M27.64 75.7 C48.15 51.75, 66.85 29.74, 88 6.27 M32.63 76.06 C53.98 48.5, 76.57 25.34, 90.36 9.65 M32.63 76.06 C51.05 54.84, 69.78 33.59, 90.36 9.65 M37.61 76.42 C51.93 62.45, 67.09 47.02, 92.72 13.03 M37.61 76.42 C50.92 61.03, 64.76 45.41, 92.72 13.03 M43.26 76.03 C59.21 55.83, 79.19 36.82, 92.46 19.42 M43.26 76.03 C61.13 58.01, 77.68 37.46, 92.46 19.42 M48.24 76.39 C67.11 55.6, 83.51 36.89, 92.2 25.82 M48.24 76.39 C58.4 63.97, 68.85 52.16, 92.2 25.82 M53.89 75.99 C67.29 57.83, 81.04 41.29, 91.94 32.22 M53.89 75.99 C62.94 66.41, 73.02 55.33, 91.94 32.22 M58.87 76.35 C69.29 63.39, 82.99 48.99, 92.33 37.86 M58.87 76.35 C67.06 66.21, 75.94 58.15, 92.33 37.86 M64.52 75.96 C71.23 66.98, 79.53 58.59, 92.07 44.26 M64.52 75.96 C72.45 67.63, 80.88 58.46, 92.07 44.26 M69.5 76.32 C79.75 65.38, 85.43 57.54, 91.81 50.66 M69.5 76.32 C78.31 67.97, 84.18 59.38, 91.81 50.66 M75.15 75.92 C82.44 70.5, 86.84 60.49, 92.2 56.3 M75.15 75.92 C78.69 72.44, 81.32 68.44, 92.2 56.3 M82.1 74.02 C84.87 71.06, 88.32 65.11, 92.6 61.94 M82.1 74.02 C85.05 69.85, 87.91 67.93, 92.6 61.94" stroke="#a5d8ff" stroke-width="0.5" fill="none"></path><path d="M18.5 0 M18.5 0 C40.09 1.67, 58.61 1.28, 72.5 0 M18.5 0 C34.36 0.33, 50.06 -0.12, 72.5 0 M72.5 0 C85.54 -0.28, 89.33 5.08, 91 18.5 M72.5 0 C83.74 -0.33, 92.92 6.28, 91 18.5 M91 18.5 C91.41 29.52, 90.95 41.52, 91 55.5 M91 18.5 C90.29 25.31, 90.08 33.41, 91 55.5 M91 55.5 C91.75 69.38, 86.65 72.58, 72.5 74 M91 55.5 C88.98 67.5, 85.98 72.15, 72.5 74 M72.5 74 C59.19 74.4, 41.84 72.84, 18.5 74 M72.5 74 C61.07 73.5, 51.17 73.14, 18.5 74 M18.5 74 C5.79 74.66, 1.78 67.47, 0 55.5 M18.5 74 C6.86 74.05, 1.72 68.43, 0 55.5 M0 55.5 C1.15 45.39, -0.71 39.09, 0 18.5 M0 55.5 C0.07 42.46, 0.62 30.88, 0 18.5 M0 18.5 C0.61 4.35, 7.01 -1.5, 18.5 0 M0 18.5 C1 5.74, 4.72 -0.93, 18.5 0" stroke="#1e1e1e" stroke-width="1" fill="none"></path></g><g transform="translate(250.38997476722113 122.38316117705551) rotate(0 10.169998168945312 12.5)"><text x="10.169998168945312" y="0" font-family="Virgil, Segoe UI Emoji" font-size="20px" fill="#1e1e1e" text-anchor="middle" style="white-space: pre;" direction="ltr" dominant-baseline="text-before-edge">W1</text></g><g stroke-linecap="round" transform="translate(212.55539229263388 307.3392460808377) rotate(0 45.5 37)"><path d="M4.92 4.28 C4.92 4.28, 4.92 4.28, 4.92 4.28 M4.92 4.28 C4.92 4.28, 4.92 4.28, 4.92 4.28 M0.73 15.21 C4.15 10.26, 7.74 6.25, 11.88 2.38 M0.73 15.21 C4.42 9.25, 9.67 5.66, 11.88 2.38 M1.12 20.85 C7.91 14.97, 15.95 6.71, 18.83 0.47 M1.12 20.85 C6.13 15.99, 9.63 10.48, 18.83 0.47 M0.86 27.25 C8.36 15.86, 16.14 9.59, 24.48 0.08 M0.86 27.25 C6.42 20.23, 12.01 13.24, 24.48 0.08 M1.25 32.89 C12.69 22.26, 21.31 8.48, 29.46 0.44 M1.25 32.89 C8.58 25.07, 15.61 16.25, 29.46 0.44 M0.99 39.29 C12.86 25.54, 26.12 9.97, 34.45 0.8 M0.99 39.29 C11.31 28.53, 20.76 17.58, 34.45 0.8 M0.73 45.69 C16 29.52, 27.05 15.29, 40.09 0.4 M0.73 45.69 C13.02 30.75, 24.95 16.28, 40.09 0.4 M1.13 51.33 C13.02 39.63, 21.33 25.57, 45.08 0.76 M1.13 51.33 C15.96 33.65, 30.68 16.15, 45.08 0.76 M0.86 57.73 C15.37 40.93, 30.42 24.83, 50.72 0.37 M0.86 57.73 C12.65 43.32, 24.7 29.79, 50.72 0.37 M2.57 61.86 C15.92 48.95, 25.24 34.5, 55.71 0.73 M2.57 61.86 C16.88 45.97, 31.69 28.71, 55.71 0.73 M4.28 65.99 C20.39 44.89, 37.55 25.54, 61.36 0.33 M4.28 65.99 C16.44 51.72, 26.57 39.63, 61.36 0.33 M5.98 70.13 C22.87 51.33, 40.12 34.39, 66.34 0.69 M5.98 70.13 C25.34 48.5, 43.36 27.85, 66.34 0.69 M9.66 72 C30.43 47.38, 53.74 22.41, 71.99 0.3 M9.66 72 C34.22 46.3, 57.67 18.45, 71.99 0.3 M13.33 73.87 C31.9 54.92, 48.95 34.48, 76.97 0.66 M13.33 73.87 C31.73 53.13, 47.83 32.73, 76.97 0.66 M17.01 75.74 C37.86 51.57, 57.26 30.85, 80.65 2.53 M17.01 75.74 C38.56 50.9, 60.95 25.17, 80.65 2.53 M22 76.1 C37.98 60.18, 49.29 41.74, 84.98 3.64 M22 76.1 C45.38 48.08, 69.65 19.81, 84.98 3.64 M27.64 75.7 C50.51 47.38, 73.26 22.7, 88 6.27 M27.64 75.7 C43.17 58.67, 58.38 40.75, 88 6.27 M32.63 76.06 C45.34 59.54, 59.09 43, 90.36 9.65 M32.63 76.06 C47.3 58.7, 63.2 40.23, 90.36 9.65 M37.61 76.42 C51.01 57.52, 68.81 39.81, 92.72 13.03 M37.61 76.42 C55.04 57.23, 70.46 39.2, 92.72 13.03 M43.26 76.03 C56.71 57.92, 72.21 41.06, 92.46 19.42 M43.26 76.03 C57.92 59.47, 72.07 40.97, 92.46 19.42 M48.24 76.39 C66.02 57.88, 81.61 36.78, 92.2 25.82 M48.24 76.39 C66 57.81, 81.95 37.15, 92.2 25.82 M53.89 75.99 C65.7 59.66, 80.65 47.71, 91.94 32.22 M53.89 75.99 C66.12 63.58, 76.96 48.72, 91.94 32.22 M58.87 76.35 C66.15 66.96, 74.86 59.7, 92.33 37.86 M58.87 76.35 C70.35 65.33, 79.07 52.45, 92.33 37.86 M64.52 75.96 C75.2 64.8, 85.26 53.63, 92.07 44.26 M64.52 75.96 C71.83 67.85, 79.31 58.01, 92.07 44.26 M69.5 76.32 C76.77 70.14, 81.09 65.16, 91.81 50.66 M69.5 76.32 C77.8 66.16, 85.44 57.08, 91.81 50.66 M75.15 75.92 C78.07 70.68, 85.49 66.72, 92.2 56.3 M75.15 75.92 C81.81 68.9, 87.82 60.38, 92.2 56.3 M82.1 74.02 C85.68 68.34, 87.94 64.38, 92.6 61.94 M82.1 74.02 C85.5 70.49, 88.82 65.58, 92.6 61.94" stroke="#a5d8ff" stroke-width="0.5" fill="none"></path><path d="M18.5 0 M18.5 0 C37.1 0.14, 55.98 0.62, 72.5 0 M18.5 0 C32.25 -0.65, 44.35 0.66, 72.5 0 M72.5 0 C85.55 0.98, 89.38 6.67, 91 18.5 M72.5 0 C83.43 1.84, 91.55 6.87, 91 18.5 M91 18.5 C92.03 25.87, 89.89 33.18, 91 55.5 M91 18.5 C91.07 30.86, 92.34 42.62, 91 55.5 M91 55.5 C89.2 67.46, 83.71 72.78, 72.5 74 M91 55.5 C91.75 68.92, 86.91 75.28, 72.5 74 M72.5 74 C62.06 73.14, 50.03 74.58, 18.5 74 M72.5 74 C55.83 73.57, 40.67 73.48, 18.5 74 M18.5 74 C6.02 74.07, -0.06 66.72, 0 55.5 M18.5 74 C7.39 72.5, -1.19 67.16, 0 55.5 M0 55.5 C1.63 45.17, -1.33 33.4, 0 18.5 M0 55.5 C0.12 44.03, -0.92 33.71, 0 18.5 M0 18.5 C1.22 6.55, 4.81 0.74, 18.5 0 M0 18.5 C2.15 7.75, 8.29 1.59, 18.5 0" stroke="#1e1e1e" stroke-width="1" fill="none"></path></g><g transform="translate(243.47539809097373 331.8392460808377) rotate(0 14.579994201660156 12.5)"><text x="14.579994201660156" y="0" font-family="Virgil, Segoe UI Emoji" font-size="20px" fill="#1e1e1e" text-anchor="middle" style="white-space: pre;" direction="ltr" dominant-baseline="text-before-edge">W2</text></g><g stroke-linecap="round"><g transform="translate(310.862367346126 138.3201401591706) rotate(0 37.76686247077538 34.8047602898159)"><path d="M0.38 0.42 C12.58 12.05, 61.64 58.67, 74.05 70.01 M-0.87 -0.4 C11.64 10.89, 63.9 56.81, 76.41 68.46" stroke="#1e1e1e" stroke-width="1" fill="none"></path></g></g><mask></mask><g stroke-linecap="round"><g transform="translate(306.0168717248757 341.40195382462) rotate(0 38.8077236684324 -36.61844218377985)"><path d="M0.52 0.38 C13.76 -11.9, 65.36 -61.21, 78.28 -73.62 M-0.66 -0.47 C12.5 -12.56, 64.29 -60.05, 77.23 -72.14" stroke="#1e1e1e" stroke-width="1" fill="none"></path></g></g><mask></mask><g stroke-linecap="round" transform="translate(414.709664398731 9.999999999999972) rotate(0 24.5696881347734 20.52764214570597)"><path d="M30.09 0.91 C35.03 1.56, 41.66 5.21, 44.95 8.6 C48.25 11.98, 50.41 16.76, 49.86 21.21 C49.32 25.66, 45.28 31.92, 41.68 35.31 C38.08 38.7, 33.35 41.21, 28.25 41.54 C23.15 41.88, 15.76 39.9, 11.08 37.34 C6.39 34.77, 1.58 30.27, 0.14 26.15 C-1.3 22.03, 0.15 16.65, 2.46 12.63 C4.77 8.61, 8.86 3.83, 14.01 2.03 C19.16 0.24, 29.68 1.55, 33.36 1.87 C37.03 2.19, 36.25 3.83, 36.05 3.95 M20.3 1.9 C24.95 0.72, 30.34 1.62, 34.91 3.49 C39.47 5.36, 45.45 9.09, 47.7 13.14 C49.95 17.19, 50.03 23.54, 48.41 27.8 C46.79 32.06, 42.28 36.55, 37.99 38.7 C33.71 40.84, 28.09 41.33, 22.67 40.66 C17.25 39.99, 9.17 37.65, 5.48 34.69 C1.8 31.73, 0.53 27.47, 0.54 22.89 C0.55 18.32, 2.6 10.73, 5.54 7.23 C8.47 3.72, 15.68 2.72, 18.16 1.88 C20.64 1.03, 20.3 1.86, 20.39 2.17" stroke="#f08c00" stroke-width="1" fill="none"></path></g><g stroke-linecap="round"><g transform="translate(442.9607172111454 51.83099860899716) rotate(0 0.6218323678912157 69.91769246996444)"><path d="M0.7 -0.09 C1.05 23.31, 1.7 117.69, 1.63 141.02 M-0.39 -1.18 C-0.12 21.83, 0.38 115.66, 0.9 139.35" stroke="#1e1e1e" stroke-width="1" fill="none"></path></g><g transform="translate(442.9607172111454 51.83099860899716) rotate(0 0.6218323678912157 69.91769246996444)"><path d="M-9.86 111.99 C-5.33 117.06, -4.52 125.59, 2.87 137.53 M-9.8 110.64 C-6.56 119.43, -4.8 125.89, 0.75 139.4" stroke="#1e1e1e" stroke-width="1" fill="none"></path></g><g transform="translate(442.9607172111454 51.83099860899716) rotate(0 0.6218323678912157 69.91769246996444)"><path d="M10.66 111.73 C9.82 116.99, 5.27 125.59, 2.87 137.53 M10.72 110.38 C8.78 119.1, 5.37 125.64, 0.75 139.4" stroke="#1e1e1e" stroke-width="1" fill="none"></path></g></g><mask></mask><g stroke-linecap="round" transform="translate(375.5550241861421 800.4393634340595) rotate(0 45.5 37)"><path d="M4.92 4.28 C4.92 4.28, 4.92 4.28, 4.92 4.28 M4.92 4.28 C4.92 4.28, 4.92 4.28, 4.92 4.28 M0.73 15.21 C2.59 12.57, 5.82 8.02, 11.88 2.38 M0.73 15.21 C4.68 9.77, 8.99 4.9, 11.88 2.38 M1.12 20.85 C9.2 14.25, 15.46 6.02, 18.83 0.47 M1.12 20.85 C6.73 13.68, 13.38 6.54, 18.83 0.47 M0.86 27.25 C4.13 21.47, 10.23 14.9, 24.48 0.08 M0.86 27.25 C5.82 20.48, 11.08 15.53, 24.48 0.08 M1.25 32.89 C9.83 24.76, 14.88 15.37, 29.46 0.44 M1.25 32.89 C11.09 22.5, 19.67 10.21, 29.46 0.44 M0.99 39.29 C8.34 30.09, 19.59 16.07, 34.45 0.8 M0.99 39.29 C13.35 24.29, 26.24 9.96, 34.45 0.8 M0.73 45.69 C15.73 31.93, 28.21 13.37, 40.09 0.4 M0.73 45.69 C15.86 28.73, 31.74 9.67, 40.09 0.4 M1.13 51.33 C16.75 33.48, 35.77 10.73, 45.08 0.76 M1.13 51.33 C11.72 39.06, 20.57 28.51, 45.08 0.76 M0.86 57.73 C14.73 38.68, 34.13 22.39, 50.72 0.37 M0.86 57.73 C17.45 38.25, 33.94 19.53, 50.72 0.37 M2.57 61.86 C16.91 43.85, 29.57 26.96, 55.71 0.73 M2.57 61.86 C19.16 42.15, 36.32 23.08, 55.71 0.73 M4.28 65.99 C17.31 54.51, 28.04 40.42, 61.36 0.33 M4.28 65.99 C24.8 42.42, 44.08 20.7, 61.36 0.33 M5.98 70.13 C26.96 43.89, 48.2 20.45, 66.34 0.69 M5.98 70.13 C26.25 44.95, 48.82 19.34, 66.34 0.69 M9.66 72 C29.24 49.99, 50.7 25.09, 71.99 0.3 M9.66 72 C25.54 56.16, 38.38 38.68, 71.99 0.3 M13.33 73.87 C36.17 49.88, 55.55 24.11, 76.97 0.66 M13.33 73.87 C34.81 49.85, 54.8 25.13, 76.97 0.66 M17.01 75.74 C37.37 51.21, 58.51 25.26, 80.65 2.53 M17.01 75.74 C40.22 48.5, 64.07 21.88, 80.65 2.53 M22 76.1 C40.04 57.09, 58.02 35.12, 84.98 3.64 M22 76.1 C43.17 52.89, 62.96 28.46, 84.98 3.64 M27.64 75.7 C47.47 52.88, 68.35 28.42, 88 6.27 M27.64 75.7 C45.73 53.73, 65.08 33.03, 88 6.27 M32.63 76.06 C50.06 58.67, 65.36 36.04, 90.36 9.65 M32.63 76.06 C48.49 56.57, 64.43 38.1, 90.36 9.65 M37.61 76.42 C57.86 54.05, 81.19 27.48, 92.72 13.03 M37.61 76.42 C51.91 59.45, 66.95 43.77, 92.72 13.03 M43.26 76.03 C54.8 61.02, 66.92 46.83, 92.46 19.42 M43.26 76.03 C58.79 58.55, 75.16 40.18, 92.46 19.42 M48.24 76.39 C60.42 66.75, 70.48 52, 92.2 25.82 M48.24 76.39 C64.95 58.15, 80.38 38.52, 92.2 25.82 M53.89 75.99 C65.48 64.6, 75.51 50.16, 91.94 32.22 M53.89 75.99 C66.05 60.67, 78.47 47.52, 91.94 32.22 M58.87 76.35 C70.34 63.71, 78.98 52.55, 92.33 37.86 M58.87 76.35 C72.08 61.65, 83.25 47.65, 92.33 37.86 M64.52 75.96 C72.75 66.36, 77.68 60.89, 92.07 44.26 M64.52 75.96 C71.8 67.31, 77.38 60.66, 92.07 44.26 M69.5 76.32 C73.68 69.85, 78.03 64.52, 91.81 50.66 M69.5 76.32 C75.11 69.99, 80.35 63.51, 91.81 50.66 M75.15 75.92 C81.65 68.08, 88.58 63.04, 92.2 56.3 M75.15 75.92 C80.75 69.24, 85.7 63.56, 92.2 56.3 M82.1 74.02 C87.4 68.19, 91.63 63.17, 92.6 61.94 M82.1 74.02 C85.43 69.34, 89.18 66.12, 92.6 61.94" stroke="#ffc9c9" stroke-width="0.5" fill="none"></path><path d="M18.5 0 M18.5 0 C40.25 0.28, 60.56 -1.72, 72.5 0 M18.5 0 C34.34 -0.66, 52.04 -0.76, 72.5 0 M72.5 0 C83.03 1.05, 89.44 4.24, 91 18.5 M72.5 0 C82.76 1.88, 89.68 8.02, 91 18.5 M91 18.5 C90.54 27.77, 89.63 39.72, 91 55.5 M91 18.5 C90.79 32.76, 90.37 44.64, 91 55.5 M91 55.5 C89.91 66.66, 85.7 74.52, 72.5 74 M91 55.5 C91.74 65.96, 86.1 73.03, 72.5 74 M72.5 74 C56.36 75.42, 41.3 72.23, 18.5 74 M72.5 74 C51.04 73.71, 29.61 73.76, 18.5 74 M18.5 74 C5.44 72.98, -1 66.93, 0 55.5 M18.5 74 C5.79 72.03, -0.72 66.11, 0 55.5 M0 55.5 C-1.94 42.49, -1.32 33.8, 0 18.5 M0 55.5 C0.14 44.97, 1.07 36.2, 0 18.5 M0 18.5 C1.73 5.99, 6.72 -1.77, 18.5 0 M0 18.5 C-0.55 6.95, 8.11 -1.69, 18.5 0" stroke="#1e1e1e" stroke-width="1" fill="none"></path></g><g transform="translate(400.41503242588817 824.9393634340595) rotate(0 20.639991760253906 12.5)"><text x="20.639991760253906" y="0" font-family="Virgil, Segoe UI Emoji" font-size="20px" fill="#1e1e1e" text-anchor="middle" style="white-space: pre;" direction="ltr" dominant-baseline="text-before-edge">NEW</text></g><g stroke-linecap="round" transform="translate(560.4612741861418 799.2753009340595) rotate(0 45.5 37)"><path d="M18.5 0 M18.5 0 C30.33 -1.5, 41.85 1.03, 72.5 0 M18.5 0 C31.56 0.95, 45.58 0.01, 72.5 0 M72.5 0 C84.93 0.38, 89.03 7.67, 91 18.5 M72.5 0 C85.29 -1.58, 90.44 4.26, 91 18.5 M91 18.5 C89.72 30.38, 91.83 41.43, 91 55.5 M91 18.5 C91.83 30.62, 90.37 43.25, 91 55.5 M91 55.5 C89.6 69.3, 83.28 74.7, 72.5 74 M91 55.5 C91.39 65.66, 85.19 72.81, 72.5 74 M72.5 74 C57.8 74.62, 39.49 75.16, 18.5 74 M72.5 74 C57.18 73.86, 41.7 72.62, 18.5 74 M18.5 74 C6.06 74.84, 1.81 66.29, 0 55.5 M18.5 74 C7.26 75.14, -1.36 66.24, 0 55.5 M0 55.5 C-1.91 46.99, 0.07 33.38, 0 18.5 M0 55.5 C-0.29 41.22, -0.04 27.46, 0 18.5 M0 18.5 C0.8 5.49, 4.62 1.45, 18.5 0 M0 18.5 C1.54 6.8, 4.07 2.23, 18.5 0" stroke="#1e1e1e" stroke-width="1" fill="none"></path></g><g transform="translate(599.9812784586032 823.7753009340595) rotate(0 5.9799957275390625 12.5)"><text x="5.9799957275390625" y="0" font-family="Virgil, Segoe UI Emoji" font-size="20px" fill="#1e1e1e" text-anchor="middle" style="white-space: pre;" direction="ltr" dominant-baseline="text-before-edge">X</text></g><g stroke-linecap="round" transform="translate(737.0901804361418 795.1190509340595) rotate(0 45.5 37)"><path d="M18.5 0 M18.5 0 C29.04 0.62, 40.21 -1.85, 72.5 0 M18.5 0 C38.29 0.34, 57 0.9, 72.5 0 M72.5 0 C85.23 -1.37, 90.51 4.51, 91 18.5 M72.5 0 C84.64 -2.06, 92.96 5.07, 91 18.5 M91 18.5 C91.81 32.56, 92.61 46.02, 91 55.5 M91 18.5 C90 30.02, 89.93 40.42, 91 55.5 M91 55.5 C91.34 65.95, 85.14 72.96, 72.5 74 M91 55.5 C90.74 65.8, 86.31 75.02, 72.5 74 M72.5 74 C55.31 73.57, 36.74 74.68, 18.5 74 M72.5 74 C54.27 73.95, 37.05 72.75, 18.5 74 M18.5 74 C7.11 74.99, -1.18 66.45, 0 55.5 M18.5 74 C5.64 76.27, 1.88 66.06, 0 55.5 M0 55.5 C1.48 40.91, 0.84 26.18, 0 18.5 M0 55.5 C0.43 45.17, -0.74 36.25, 0 18.5 M0 18.5 C1.34 6.72, 4.34 1.94, 18.5 0 M0 18.5 C1.78 4.08, 5.8 1.53, 18.5 0" stroke="#1e1e1e" stroke-width="1" fill="none"></path></g><g transform="translate(777.4301844034275 819.6190509340595) rotate(0 5.159996032714844 12.5)"><text x="5.159996032714844" y="0" font-family="Virgil, Segoe UI Emoji" font-size="20px" fill="#1e1e1e" text-anchor="middle" style="white-space: pre;" direction="ltr" dominant-baseline="text-before-edge">Y</text></g><g stroke-linecap="round"><g transform="translate(469.60026738487534 836.5912423042514) rotate(0 45.14482835648835 0.3285652154328318)"><path d="M-0.99 0.79 C13.76 0.84, 73.85 -0.26, 88.99 -0.35 M0.7 0.16 C15.78 0.44, 76.54 0.76, 91.28 1.01" stroke="#1e1e1e" stroke-width="1" fill="none"></path></g></g><mask></mask><g stroke-linecap="round"><g transform="translate(652.1296410764652 834.3445590735182) rotate(0 42.33067965867883 -0.408219806392367)"><path d="M-0.82 -0.34 C13.59 -0.32, 71.3 0.57, 85.48 0.89 M0.95 -1.57 C15.3 -2, 70.3 -1.32, 84.56 -1.11" stroke="#1e1e1e" stroke-width="1" fill="none"></path></g></g><mask></mask><g stroke-linecap="round" transform="translate(202.91355938434538 699.6138385366236) rotate(0 45.5 37)"><path d="M4.92 4.28 C4.92 4.28, 4.92 4.28, 4.92 4.28 M4.92 4.28 C4.92 4.28, 4.92 4.28, 4.92 4.28 M0.73 15.21 C5.11 11.4, 9.74 7.15, 11.88 2.38 M0.73 15.21 C3.49 12.05, 6.67 7.98, 11.88 2.38 M1.12 20.85 C5.89 14.14, 10.77 9.19, 18.83 0.47 M1.12 20.85 C7.6 13.87, 12.97 6.04, 18.83 0.47 M0.86 27.25 C6.63 18.3, 16.85 11.44, 24.48 0.08 M0.86 27.25 C5.4 20.39, 11.02 16.01, 24.48 0.08 M1.25 32.89 C12.71 18.64, 24.6 7.6, 29.46 0.44 M1.25 32.89 C11.04 21.66, 21.3 10.17, 29.46 0.44 M0.99 39.29 C8.71 28.68, 17.54 23.49, 34.45 0.8 M0.99 39.29 C8.14 30.61, 15.95 22.73, 34.45 0.8 M0.73 45.69 C9.5 34.44, 15.82 28.44, 40.09 0.4 M0.73 45.69 C10.66 33.97, 21.55 21.69, 40.09 0.4 M1.13 51.33 C13.9 40.05, 22.96 28.34, 45.08 0.76 M1.13 51.33 C10.99 39.9, 21.05 28.16, 45.08 0.76 M0.86 57.73 C12.55 40.63, 28.34 25.79, 50.72 0.37 M0.86 57.73 C18.31 37.95, 33.58 19.99, 50.72 0.37 M2.57 61.86 C16.14 47.11, 29.57 31.63, 55.71 0.73 M2.57 61.86 C15.71 47.17, 29.92 31.03, 55.71 0.73 M4.28 65.99 C26.4 40.46, 48.4 19.09, 61.36 0.33 M4.28 65.99 C25.74 41.48, 47.59 17.1, 61.36 0.33 M5.98 70.13 C21.47 52.39, 36.45 31.92, 66.34 0.69 M5.98 70.13 C20.03 51.77, 36.86 33.96, 66.34 0.69 M9.66 72 C22.06 55.33, 36.14 40.36, 71.99 0.3 M9.66 72 C32.97 43.69, 57.54 17.69, 71.99 0.3 M13.33 73.87 C36.42 45.74, 61.44 19.89, 76.97 0.66 M13.33 73.87 C38.93 45.22, 62.71 16.7, 76.97 0.66 M17.01 75.74 C43.11 45.93, 66.34 18.74, 80.65 2.53 M17.01 75.74 C40.98 47.02, 65.41 18.77, 80.65 2.53 M22 76.1 C45.73 48.4, 70.4 22.54, 84.98 3.64 M22 76.1 C35.39 61.91, 48.8 45.09, 84.98 3.64 M27.64 75.7 C38.35 59.42, 52.42 48.23, 88 6.27 M27.64 75.7 C49.65 50.17, 72.57 25.12, 88 6.27 M32.63 76.06 C45.92 61.41, 56.24 46.27, 90.36 9.65 M32.63 76.06 C48.25 59.21, 63.23 41.52, 90.36 9.65 M37.61 76.42 C53.18 57.2, 70.4 38.73, 92.72 13.03 M37.61 76.42 C56.92 54.83, 73.6 33.12, 92.72 13.03 M43.26 76.03 C57.85 58.81, 71.09 43.01, 92.46 19.42 M43.26 76.03 C57.29 58.25, 72.06 42.83, 92.46 19.42 M48.24 76.39 C63.96 57.21, 80.82 39.93, 92.2 25.82 M48.24 76.39 C59.73 63.63, 72.06 50.49, 92.2 25.82 M53.89 75.99 C64.15 63.64, 78.38 50.53, 91.94 32.22 M53.89 75.99 C61.7 66.12, 71.23 55.15, 91.94 32.22 M58.87 76.35 C65.68 68.42, 74.45 58.56, 92.33 37.86 M58.87 76.35 C70.34 62.99, 81.3 48.6, 92.33 37.86 M64.52 75.96 C72.25 65.14, 81.93 54.23, 92.07 44.26 M64.52 75.96 C69.73 69.37, 77.02 61.38, 92.07 44.26 M69.5 76.32 C77.5 69.56, 83.14 59.71, 91.81 50.66 M69.5 76.32 C76.8 67.7, 86.76 57.95, 91.81 50.66 M75.15 75.92 C81.59 68.64, 85.69 64.09, 92.2 56.3 M75.15 75.92 C81.05 69.64, 88.47 61.24, 92.2 56.3 M82.1 74.02 C84.88 68.8, 88.95 64.83, 92.6 61.94 M82.1 74.02 C85.71 70.08, 87.19 67.92, 92.6 61.94" stroke="#a5d8ff" stroke-width="0.5" fill="none"></path><path d="M18.5 0 M18.5 0 C32.14 -0.66, 44.12 -0.3, 72.5 0 M18.5 0 C38.87 -0.63, 60.59 0.82, 72.5 0 M72.5 0 C84.77 1.02, 90.61 7.92, 91 18.5 M72.5 0 C83.42 -1.43, 89.74 4.82, 91 18.5 M91 18.5 C89.46 32.3, 90.25 43.65, 91 55.5 M91 18.5 C91.73 26.12, 90.14 34.78, 91 55.5 M91 55.5 C91.45 68.82, 84.08 72.89, 72.5 74 M91 55.5 C89.32 66.66, 83.99 72.82, 72.5 74 M72.5 74 C57.3 73.29, 44.02 73.99, 18.5 74 M72.5 74 C52.92 72.95, 35.5 73.12, 18.5 74 M18.5 74 C4.17 73.92, -0.45 66.01, 0 55.5 M18.5 74 C7.79 73.82, 1.99 67.63, 0 55.5 M0 55.5 C1.01 45.07, -1.14 30.48, 0 18.5 M0 55.5 C0.42 43.03, 0.56 28.14, 0 18.5 M0 18.5 C0.24 8.11, 5.58 -0.16, 18.5 0 M0 18.5 C0.92 4.39, 7.89 0.07, 18.5 0" stroke="#1e1e1e" stroke-width="1" fill="none"></path></g><g transform="translate(238.24356121540006 724.1138385366236) rotate(0 10.169998168945312 12.5)"><text x="10.169998168945312" y="0" font-family="Virgil, Segoe UI Emoji" font-size="20px" fill="#1e1e1e" text-anchor="middle" style="white-space: pre;" direction="ltr" dominant-baseline="text-before-edge">W1</text></g><g stroke-linecap="round" transform="translate(200.40897874081304 909.0699234404051) rotate(0 45.5 37)"><path d="M4.92 4.28 C4.92 4.28, 4.92 4.28, 4.92 4.28 M4.92 4.28 C4.92 4.28, 4.92 4.28, 4.92 4.28 M0.73 15.21 C4.37 9.3, 8.98 5.02, 11.88 2.38 M0.73 15.21 C5.14 9.57, 9.29 5.14, 11.88 2.38 M1.12 20.85 C7.3 15.13, 9.69 9.79, 18.83 0.47 M1.12 20.85 C6.52 15.51, 11.69 8.4, 18.83 0.47 M0.86 27.25 C6.16 19.97, 15.67 9.83, 24.48 0.08 M0.86 27.25 C7.19 19.97, 12.7 14.69, 24.48 0.08 M1.25 32.89 C8.11 25.13, 12.77 18.52, 29.46 0.44 M1.25 32.89 C8.58 24.25, 18.25 14.33, 29.46 0.44 M0.99 39.29 C5.79 30.68, 15.92 23.15, 34.45 0.8 M0.99 39.29 C8.38 28.59, 18.71 19.57, 34.45 0.8 M0.73 45.69 C8.95 37.53, 16.35 25.39, 40.09 0.4 M0.73 45.69 C12.22 30.78, 24.36 18.64, 40.09 0.4 M1.13 51.33 C13.4 35.27, 27.5 18.87, 45.08 0.76 M1.13 51.33 C13.91 36.45, 26.32 20.7, 45.08 0.76 M0.86 57.73 C11.97 45.66, 20.45 35.1, 50.72 0.37 M0.86 57.73 C12.08 45.47, 24.58 32.15, 50.72 0.37 M2.57 61.86 C19.82 41.87, 37.62 19.09, 55.71 0.73 M2.57 61.86 C22.36 39.71, 39.97 17.73, 55.71 0.73 M4.28 65.99 C18.55 48.2, 31.38 34.2, 61.36 0.33 M4.28 65.99 C21.36 44.97, 40.34 24.89, 61.36 0.33 M5.98 70.13 C26.19 48.43, 48.92 21.3, 66.34 0.69 M5.98 70.13 C22.38 50.8, 40.69 29.74, 66.34 0.69 M9.66 72 C25.38 56.74, 38.55 38.98, 71.99 0.3 M9.66 72 C24.92 54.26, 39.26 37.14, 71.99 0.3 M13.33 73.87 C30.19 56.19, 43.76 39.79, 76.97 0.66 M13.33 73.87 C32.89 53.09, 51.11 32.27, 76.97 0.66 M17.01 75.74 C34.01 59.51, 49.33 40.53, 80.65 2.53 M17.01 75.74 C34.72 55.85, 51.67 36.31, 80.65 2.53 M22 76.1 C39.29 52.62, 59.22 31.01, 84.98 3.64 M22 76.1 C44.72 49.37, 70.08 21.34, 84.98 3.64 M27.64 75.7 C43.22 59.55, 54.99 42.85, 88 6.27 M27.64 75.7 C42.04 56.82, 59.72 39.49, 88 6.27 M32.63 76.06 C48.46 56.39, 64.42 38.76, 90.36 9.65 M32.63 76.06 C52.91 52.52, 72.57 29.38, 90.36 9.65 M37.61 76.42 C52.39 60.17, 66.7 45.82, 92.72 13.03 M37.61 76.42 C52.67 60.63, 68.73 43.5, 92.72 13.03 M43.26 76.03 C54.52 63.46, 66.75 48.72, 92.46 19.42 M43.26 76.03 C54.01 64.7, 64.13 52.69, 92.46 19.42 M48.24 76.39 C59.86 61.46, 70.97 46.87, 92.2 25.82 M48.24 76.39 C62.78 59.79, 77.2 41.94, 92.2 25.82 M53.89 75.99 C65.34 62.1, 79.15 43.94, 91.94 32.22 M53.89 75.99 C66.42 61.74, 79.07 45.77, 91.94 32.22 M58.87 76.35 C72.92 63.4, 82.64 46.83, 92.33 37.86 M58.87 76.35 C69.16 65.05, 78.16 53.64, 92.33 37.86 M64.52 75.96 C70.52 66.79, 80.03 57.02, 92.07 44.26 M64.52 75.96 C73.48 65.86, 82.16 55.84, 92.07 44.26 M69.5 76.32 C78.13 67.57, 84.07 57.67, 91.81 50.66 M69.5 76.32 C77.47 67.43, 85.23 57.92, 91.81 50.66 M75.15 75.92 C79.84 70.95, 81.17 67.1, 92.2 56.3 M75.15 75.92 C81.49 68.97, 87.73 61.2, 92.2 56.3 M82.1 74.02 C83.99 70.63, 85.44 70.12, 92.6 61.94 M82.1 74.02 C83.79 70.66, 85.9 69.55, 92.6 61.94" stroke="#a5d8ff" stroke-width="0.5" fill="none"></path><path d="M18.5 0 M18.5 0 C33.21 -0.59, 43.94 -0.16, 72.5 0 M18.5 0 C30.17 0.17, 41.71 0.54, 72.5 0 M72.5 0 C83.6 -1.25, 89.91 4.99, 91 18.5 M72.5 0 C85.83 0.6, 91.74 4.29, 91 18.5 M91 18.5 C89 32.11, 90.23 46.07, 91 55.5 M91 18.5 C90.88 29.82, 90.27 39.6, 91 55.5 M91 55.5 C89.54 66.81, 84.1 72.98, 72.5 74 M91 55.5 C89.85 66.79, 84.46 72.03, 72.5 74 M72.5 74 C58.91 73.39, 41.7 72.25, 18.5 74 M72.5 74 C58.4 73.74, 46.07 72.87, 18.5 74 M18.5 74 C7.57 73.85, 1.73 67.66, 0 55.5 M18.5 74 C6.8 71.96, -0.55 68.61, 0 55.5 M0 55.5 C1.42 42.47, 0.38 28.33, 0 18.5 M0 55.5 C-0.17 42.57, -0.58 27.61, 0 18.5 M0 18.5 C0.8 4.62, 7.67 0.06, 18.5 0 M0 18.5 C2.03 4.97, 6.97 1.93, 18.5 0" stroke="#1e1e1e" stroke-width="1" fill="none"></path></g><g transform="translate(231.32898453915288 933.5699234404051) rotate(0 14.579994201660156 12.5)"><text x="14.579994201660156" y="0" font-family="Virgil, Segoe UI Emoji" font-size="20px" fill="#1e1e1e" text-anchor="middle" style="white-space: pre;" direction="ltr" dominant-baseline="text-before-edge">W2</text></g><g stroke-linecap="round"><g transform="translate(298.71595379430494 740.0508175187387) rotate(0 37.07200483257185 34.251989060556184)"><path d="M-0.1 -1.08 C12.58 10.48, 63.17 56.56, 75.75 68.34 M-1.61 0.97 C11.02 12.77, 62.58 58.47, 75.34 69.58" stroke="#1e1e1e" stroke-width="1" fill="none"></path></g></g><mask></mask><g stroke-linecap="round"><g transform="translate(293.87045817305454 943.1326311841872) rotate(0 39.605407257555555 -36.40530612105533)"><path d="M1.02 -0.57 C14.22 -12.53, 66.07 -60.7, 79.11 -72.8 M0.1 1.74 C13.21 -10.46, 65.37 -61.71, 78.51 -74.55" stroke="#1e1e1e" stroke-width="1" fill="none"></path></g></g><mask></mask><g stroke-linecap="round" transform="translate(226.70337685128845 535.169098760256) rotate(0 24.5696881347734 20.527642145705954)"><path d="M33.35 1.8 C38.11 2.71, 42.95 5.66, 45.59 9.21 C48.23 12.77, 49.87 18.77, 49.17 23.11 C48.46 27.46, 45.34 32.27, 41.36 35.29 C37.37 38.31, 30.8 41.01, 25.26 41.22 C19.72 41.44, 12.32 39.41, 8.1 36.59 C3.87 33.76, 0.89 28.5, -0.08 24.26 C-1.06 20.02, -0.49 14.95, 2.24 11.15 C4.97 7.36, 10.48 2.71, 16.29 1.48 C22.11 0.24, 32.82 2.92, 37.13 3.77 C41.44 4.62, 42.38 6.31, 42.15 6.56 M28.97 0.98 C34.09 1.51, 41.4 2.9, 44.88 6.31 C48.36 9.72, 50.27 17.03, 49.85 21.45 C49.43 25.87, 45.96 29.36, 42.36 32.82 C38.77 36.29, 33.12 41.55, 28.28 42.25 C23.44 42.96, 17.59 39.48, 13.33 37.06 C9.07 34.63, 4.88 31.47, 2.71 27.71 C0.55 23.95, -1.25 18.57, 0.35 14.51 C1.94 10.45, 7.57 5.79, 12.27 3.35 C16.97 0.92, 25.78 0.35, 28.53 -0.11 C31.29 -0.56, 28.71 0.3, 28.82 0.62" stroke="#f08c00" stroke-width="1" fill="none"></path></g><g stroke-linecap="round"><g transform="translate(243.46214188985596 578.1418975839946) rotate(8.951196733872383 8.079560260416486 58.75735899871103)"><path d="M0.8 0.36 C3.43 19.91, 13.76 98.56, 16.39 118.01 M-0.23 -0.5 C2.23 18.66, 13 96.52, 15.75 116.33" stroke="#1e1e1e" stroke-width="1" fill="none"></path></g><g transform="translate(243.46214188985596 578.1418975839946) rotate(8.951196733872383 8.079560260416486 58.75735899871103)"><path d="M2.32 90.77 C8.23 100.42, 11.64 106.9, 16.43 114.93 M1.89 88.87 C6.91 99.15, 11.88 108.69, 16.39 116.78" stroke="#1e1e1e" stroke-width="1" fill="none"></path></g><g transform="translate(243.46214188985596 578.1418975839946) rotate(8.951196733872383 8.079560260416486 58.75735899871103)"><path d="M22.64 87.96 C21.38 98.74, 17.58 106.21, 16.43 114.93 M22.22 86.06 C19.62 97.46, 17 108.05, 16.39 116.78" stroke="#1e1e1e" stroke-width="1" fill="none"></path></g></g><mask></mask><g stroke-linecap="round" transform="translate(371.36526883721274 1389.8381235014033) rotate(0 45.5 37)"><path d="M4.92 4.28 C4.92 4.28, 4.92 4.28, 4.92 4.28 M4.92 4.28 C4.92 4.28, 4.92 4.28, 4.92 4.28 M0.73 15.21 C4.66 10.25, 7.44 7.29, 11.88 2.38 M0.73 15.21 C5.09 9.97, 9.16 4.93, 11.88 2.38 M1.12 20.85 C8.18 13.28, 13.48 9.11, 18.83 0.47 M1.12 20.85 C6.5 13.49, 13.48 5.97, 18.83 0.47 M0.86 27.25 C7.61 21.91, 14.79 11.54, 24.48 0.08 M0.86 27.25 C11.13 17.21, 19.04 5.7, 24.48 0.08 M1.25 32.89 C13.05 20.97, 22.27 5.89, 29.46 0.44 M1.25 32.89 C7.39 24.53, 13.98 17.8, 29.46 0.44 M0.99 39.29 C8 31.48, 15.22 23.14, 34.45 0.8 M0.99 39.29 C12.8 24.29, 25.69 10.23, 34.45 0.8 M0.73 45.69 C12.35 29.91, 27.91 14.47, 40.09 0.4 M0.73 45.69 C11.7 33.46, 22.59 19.17, 40.09 0.4 M1.13 51.33 C14.02 35.85, 24.12 21.91, 45.08 0.76 M1.13 51.33 C13.24 37.9, 24.54 23.56, 45.08 0.76 M0.86 57.73 C11.28 45.4, 24.98 29.48, 50.72 0.37 M0.86 57.73 C13.16 42.39, 26.86 27.89, 50.72 0.37 M2.57 61.86 C19.43 38.91, 38.18 20.23, 55.71 0.73 M2.57 61.86 C22.99 39.1, 41.47 16.17, 55.71 0.73 M4.28 65.99 C22.1 47.22, 40.87 25.4, 61.36 0.33 M4.28 65.99 C17.84 50.73, 30.91 35.68, 61.36 0.33 M5.98 70.13 C27.19 47.9, 47.05 22.63, 66.34 0.69 M5.98 70.13 C20.56 53.45, 35.55 36.75, 66.34 0.69 M9.66 72 C23.35 55.29, 40.29 36.99, 71.99 0.3 M9.66 72 C31.35 46.32, 54.53 18.96, 71.99 0.3 M13.33 73.87 C33.48 49.79, 51.4 30.17, 76.97 0.66 M13.33 73.87 C35.8 47.49, 58.89 22.11, 76.97 0.66 M17.01 75.74 C40.84 47.44, 63.91 19.28, 80.65 2.53 M17.01 75.74 C38.58 49.93, 61.7 24.85, 80.65 2.53 M22 76.1 C43.83 49.76, 67.36 23.61, 84.98 3.64 M22 76.1 C41.14 54.14, 60.64 30.71, 84.98 3.64 M27.64 75.7 C42.88 56.85, 57.55 39.49, 88 6.27 M27.64 75.7 C49.59 48.96, 74.07 22.07, 88 6.27 M32.63 76.06 C51 55.46, 72.83 29.75, 90.36 9.65 M32.63 76.06 C54.2 49.91, 77.86 25.46, 90.36 9.65 M37.61 76.42 C56.78 52.31, 80.59 28.37, 92.72 13.03 M37.61 76.42 C56.76 54.38, 75.37 31.54, 92.72 13.03 M43.26 76.03 C58.32 56.24, 77.26 38.08, 92.46 19.42 M43.26 76.03 C61.74 55.1, 80.92 33.39, 92.46 19.42 M48.24 76.39 C61.35 63.97, 70.22 49.08, 92.2 25.82 M48.24 76.39 C58.35 64.77, 68.95 51.21, 92.2 25.82 M53.89 75.99 C68.52 58.23, 83.17 41.62, 91.94 32.22 M53.89 75.99 C62.12 67.1, 70.51 58.27, 91.94 32.22 M58.87 76.35 C64.79 66.8, 73.68 57.63, 92.33 37.86 M58.87 76.35 C71.76 62.23, 83.69 45.98, 92.33 37.86 M64.52 75.96 C75.1 63.87, 84.37 50.24, 92.07 44.26 M64.52 75.96 C72.73 68.07, 79.82 58.26, 92.07 44.26 M69.5 76.32 C78.33 65.8, 85.19 59.05, 91.81 50.66 M69.5 76.32 C78.38 66.02, 86.75 56.41, 91.81 50.66 M75.15 75.92 C79.7 68.24, 86.97 61.09, 92.2 56.3 M75.15 75.92 C79.53 69.42, 84.07 63.88, 92.2 56.3 M82.1 74.02 C87.22 68.21, 88.79 66.21, 92.6 61.94 M82.1 74.02 C85.06 68.81, 89.63 65.6, 92.6 61.94" stroke="#ffc9c9" stroke-width="0.5" fill="none"></path><path d="M18.5 0 M18.5 0 C33.98 -1.61, 52.17 -0.22, 72.5 0 M18.5 0 C33.84 0.26, 46.88 -0.84, 72.5 0 M72.5 0 C85.08 -1.69, 91.23 7.14, 91 18.5 M72.5 0 C85.06 1.03, 91.7 7.21, 91 18.5 M91 18.5 C89.16 30.49, 92.9 42.87, 91 55.5 M91 18.5 C90.82 27.04, 91.58 35.03, 91 55.5 M91 55.5 C89.26 68.68, 86.36 75.02, 72.5 74 M91 55.5 C91.29 69.26, 84.92 72.61, 72.5 74 M72.5 74 C55.58 72.54, 40.04 73.65, 18.5 74 M72.5 74 C57.76 74.73, 40.85 72.86, 18.5 74 M18.5 74 C5.5 73.6, 1.93 69.32, 0 55.5 M18.5 74 C5.62 71.74, 1.33 66.36, 0 55.5 M0 55.5 C0.65 42.79, -1.73 31.8, 0 18.5 M0 55.5 C0.47 44.3, -0.49 31.65, 0 18.5 M0 18.5 C-1.77 5.89, 6.73 1.82, 18.5 0 M0 18.5 C-2.05 6.44, 8.37 -1.8, 18.5 0" stroke="#1e1e1e" stroke-width="1" fill="none"></path></g><g transform="translate(396.22527707695883 1414.3381235014033) rotate(0 20.639991760253906 12.5)"><text x="20.639991760253906" y="0" font-family="Virgil, Segoe UI Emoji" font-size="20px" fill="#1e1e1e" text-anchor="middle" style="white-space: pre;" direction="ltr" dominant-baseline="text-before-edge">NEW</text></g><g stroke-linecap="round" transform="translate(556.2715188372127 1388.6740610014033) rotate(0 45.5 37)"><path d="M18.5 0 M18.5 0 C37.78 1.35, 55.45 -0.8, 72.5 0 M18.5 0 C39.08 -0.03, 58.17 0.3, 72.5 0 M72.5 0 C84.03 -1.03, 91.82 7.83, 91 18.5 M72.5 0 C85.87 1.82, 91.41 5.54, 91 18.5 M91 18.5 C90.25 31.29, 92.45 39.02, 91 55.5 M91 18.5 C90.74 32.34, 90.24 46.06, 91 55.5 M91 55.5 C90.71 66.62, 84.23 75.53, 72.5 74 M91 55.5 C89.65 68.51, 86.97 75.61, 72.5 74 M72.5 74 C59.21 75.49, 47.5 72.93, 18.5 74 M72.5 74 C58.77 73.98, 45.23 73.02, 18.5 74 M18.5 74 C4.81 72.75, 0.71 68.68, 0 55.5 M18.5 74 C5.15 72.76, -1.27 68.83, 0 55.5 M0 55.5 C-0.15 48.18, -0.1 40.16, 0 18.5 M0 55.5 C-0.4 41.3, 0.28 27.79, 0 18.5 M0 18.5 C0.51 5.53, 7.53 -1.34, 18.5 0 M0 18.5 C-0.88 7.78, 4.49 -0.34, 18.5 0" stroke="#1e1e1e" stroke-width="1" fill="none"></path></g><g transform="translate(595.7915231096737 1413.1740610014033) rotate(0 5.9799957275390625 12.5)"><text x="5.9799957275390625" y="0" font-family="Virgil, Segoe UI Emoji" font-size="20px" fill="#1e1e1e" text-anchor="middle" style="white-space: pre;" direction="ltr" dominant-baseline="text-before-edge">X</text></g><g stroke-linecap="round" transform="translate(732.9004250872127 1384.5178110014033) rotate(0 45.5 37)"><path d="M18.5 0 M18.5 0 C40.78 -1.29, 59.28 0.9, 72.5 0 M18.5 0 C32.93 -0.56, 48.58 0.79, 72.5 0 M72.5 0 C85.73 1.58, 91.36 5.62, 91 18.5 M72.5 0 C84.68 -0.98, 91.11 5.48, 91 18.5 M91 18.5 C92.81 34.04, 92.31 47.06, 91 55.5 M91 18.5 C90.52 28.79, 90.36 41.05, 91 55.5 M91 55.5 C89.83 68.42, 86.69 75.4, 72.5 74 M91 55.5 C89.64 69.89, 83.43 73.66, 72.5 74 M72.5 74 C50.51 75.69, 29.23 74.07, 18.5 74 M72.5 74 C54.26 72.99, 37.73 74.04, 18.5 74 M18.5 74 C5.29 72.92, -1.11 68.7, 0 55.5 M18.5 74 C4.19 74.25, 1.18 67.7, 0 55.5 M0 55.5 C1.3 41.71, 1.54 29.67, 0 18.5 M0 55.5 C0.26 46.71, 0.69 37.89, 0 18.5 M0 18.5 C-0.76 7.57, 4.7 -0.3, 18.5 0 M0 18.5 C-0.36 6.81, 5.42 1.85, 18.5 0" stroke="#1e1e1e" stroke-width="1" fill="none"></path></g><g transform="translate(773.2404290544979 1409.0178110014033) rotate(0 5.159996032714844 12.5)"><text x="5.159996032714844" y="0" font-family="Virgil, Segoe UI Emoji" font-size="20px" fill="#1e1e1e" text-anchor="middle" style="white-space: pre;" direction="ltr" dominant-baseline="text-before-edge">Y</text></g><g stroke-linecap="round"><g transform="translate(465.410512035946 1425.9900023715957) rotate(0 45.236593192674036 0.0779886216888599)"><path d="M0.47 -0.3 C15.43 -0.21, 74.15 0.13, 88.96 0.08 M-0.75 -1.51 C14.67 -1.16, 76.38 1.35, 91.22 1.66" stroke="#1e1e1e" stroke-width="1" fill="none"></path></g></g><mask></mask><g stroke-linecap="round"><g transform="translate(647.9398857275361 1423.743319140862) rotate(0 42.042154282954925 0.17414664230625476)"><path d="M-0.85 0.09 C13.22 0.15, 70.48 -0.22, 84.94 0.04 M0.9 -0.91 C14.74 -0.67, 69.65 1.13, 83.74 1.26" stroke="#1e1e1e" stroke-width="1" fill="none"></path></g></g><mask></mask><g stroke-linecap="round" transform="translate(186.08049138710294 1384.8155303784106) rotate(0 45.5 37)"><path d="M4.92 4.28 C4.92 4.28, 4.92 4.28, 4.92 4.28 M4.92 4.28 C4.92 4.28, 4.92 4.28, 4.92 4.28 M0.73 15.21 C6.34 10.9, 10.34 4.38, 11.88 2.38 M0.73 15.21 C4 10.94, 7.15 8.33, 11.88 2.38 M1.12 20.85 C6.74 14.58, 11.4 9.63, 18.83 0.47 M1.12 20.85 C5.62 14.52, 11.98 8.63, 18.83 0.47 M0.86 27.25 C6.78 17.27, 14.34 10.82, 24.48 0.08 M0.86 27.25 C8.51 18.5, 16.3 8.87, 24.48 0.08 M1.25 32.89 C11.12 21.91, 22.38 8.44, 29.46 0.44 M1.25 32.89 C12.09 20.15, 22.96 8.36, 29.46 0.44 M0.99 39.29 C14.98 23.78, 25.61 10.75, 34.45 0.8 M0.99 39.29 C11.43 25.81, 22.83 12.97, 34.45 0.8 M0.73 45.69 C12.38 29.2, 26.81 15.35, 40.09 0.4 M0.73 45.69 C11.53 32.2, 22.45 20.66, 40.09 0.4 M1.13 51.33 C14.08 36.42, 26.26 22.86, 45.08 0.76 M1.13 51.33 C18.9 31.98, 35.73 12.86, 45.08 0.76 M0.86 57.73 C18.95 37.85, 40.97 14.2, 50.72 0.37 M0.86 57.73 C17.32 37.6, 35.15 18.05, 50.72 0.37 M2.57 61.86 C14.93 48.42, 22.63 35.6, 55.71 0.73 M2.57 61.86 C22.12 39.45, 40.92 17.78, 55.71 0.73 M4.28 65.99 C18.84 48.02, 31.52 31.44, 61.36 0.33 M4.28 65.99 C16.65 51.93, 28.07 39.37, 61.36 0.33 M5.98 70.13 C20.87 53.7, 34.5 40.38, 66.34 0.69 M5.98 70.13 C30.41 41.53, 54.01 14.28, 66.34 0.69 M9.66 72 C27.1 52.05, 49.01 27.91, 71.99 0.3 M9.66 72 C23.84 56.46, 38.99 40.08, 71.99 0.3 M13.33 73.87 C28.4 54.2, 47.59 37.54, 76.97 0.66 M13.33 73.87 C36.21 49.07, 58.11 22.43, 76.97 0.66 M17.01 75.74 C37.26 52.27, 56.47 29.5, 80.65 2.53 M17.01 75.74 C32.55 56.62, 48.81 40.04, 80.65 2.53 M22 76.1 C35.24 59.49, 50.74 45.49, 84.98 3.64 M22 76.1 C46.94 48.43, 70.24 21.97, 84.98 3.64 M27.64 75.7 C41.26 59.59, 53.93 46.55, 88 6.27 M27.64 75.7 C43.39 59.65, 58.28 43.24, 88 6.27 M32.63 76.06 C57.35 50.32, 79.13 22.1, 90.36 9.65 M32.63 76.06 C52.09 52.09, 73.19 29.91, 90.36 9.65 M37.61 76.42 C57.45 55.56, 76.63 35.52, 92.72 13.03 M37.61 76.42 C53.23 59.11, 67.79 41.48, 92.72 13.03 M43.26 76.03 C55.16 59.73, 68.78 44.28, 92.46 19.42 M43.26 76.03 C54.2 61.94, 67.56 48.49, 92.46 19.42 M48.24 76.39 C57.74 64.46, 68.27 52.03, 92.2 25.82 M48.24 76.39 C63.43 60.16, 76.19 43.44, 92.2 25.82 M53.89 75.99 C67.49 59.53, 82.91 46.41, 91.94 32.22 M53.89 75.99 C64.8 61.53, 78.6 47.98, 91.94 32.22 M58.87 76.35 C66.3 64.78, 76.13 55.5, 92.33 37.86 M58.87 76.35 C68.43 64.63, 77.89 53.93, 92.33 37.86 M64.52 75.96 C72.32 67.63, 83.03 55.97, 92.07 44.26 M64.52 75.96 C74.59 64.35, 85.62 51.41, 92.07 44.26 M69.5 76.32 C76.82 66.85, 83.76 58.25, 91.81 50.66 M69.5 76.32 C75.9 67.41, 84.44 59.37, 91.81 50.66 M75.15 75.92 C77.28 73.04, 83.23 69.71, 92.2 56.3 M75.15 75.92 C80.51 70.59, 86 63.27, 92.2 56.3 M82.1 74.02 C85.52 70.03, 88.76 65.72, 92.6 61.94 M82.1 74.02 C84.79 69.37, 89.24 65.11, 92.6 61.94" stroke="#a5d8ff" stroke-width="0.5" fill="none"></path><path d="M18.5 0 M18.5 0 C36.22 0.55, 53.06 0.37, 72.5 0 M18.5 0 C35.31 1.44, 52.32 -0.35, 72.5 0 M72.5 0 C83.1 1.62, 91.28 7.38, 91 18.5 M72.5 0 C86.91 1.53, 89 7.14, 91 18.5 M91 18.5 C92.43 32.49, 89.98 46.2, 91 55.5 M91 18.5 C90.27 30.26, 90.83 42.7, 91 55.5 M91 55.5 C92.66 67.3, 86.22 75.74, 72.5 74 M91 55.5 C89.19 65.54, 84.07 73.54, 72.5 74 M72.5 74 C49.11 75.03, 28.38 73.74, 18.5 74 M72.5 74 C55.59 73.3, 39.54 74.32, 18.5 74 M18.5 74 C6.19 74.16, 0.94 68.72, 0 55.5 M18.5 74 C5.04 72.73, -2.03 67.52, 0 55.5 M0 55.5 C-0.1 45.28, -1.9 32.34, 0 18.5 M0 55.5 C-0.54 43.75, 0.25 34.03, 0 18.5 M0 18.5 C-0.1 4.23, 6.03 1.29, 18.5 0 M0 18.5 C-0.44 4.03, 4.82 -2.13, 18.5 0" stroke="#1e1e1e" stroke-width="1" fill="none"></path></g><g transform="translate(221.41049321815763 1409.3155303784106) rotate(0 10.169998168945312 12.5)"><text x="10.169998168945312" y="0" font-family="Virgil, Segoe UI Emoji" font-size="20px" fill="#1e1e1e" text-anchor="middle" style="white-space: pre;" direction="ltr" dominant-baseline="text-before-edge">W1</text></g><g stroke-linecap="round" transform="translate(210.42670745969963 1228.6222933656684) rotate(0 24.5696881347734 20.527642145705954)"><path d="M17.89 0.49 C22.44 -1.21, 29.38 -1.05, 34.11 0.72 C38.83 2.48, 43.93 7.04, 46.23 11.06 C48.53 15.08, 48.92 20.63, 47.91 24.84 C46.89 29.05, 44.18 33.48, 40.13 36.33 C36.07 39.19, 28.85 42.19, 23.58 41.96 C18.32 41.73, 12.27 38.21, 8.52 34.95 C4.76 31.7, 1.86 26.54, 1.08 22.42 C0.29 18.31, -0.26 14.06, 3.81 10.26 C7.89 6.46, 20.82 0.93, 25.52 -0.37 C30.22 -1.67, 32.2 2.04, 32.03 2.47 M26.64 -0.78 C31.62 -0.23, 39.5 3.97, 43.13 7.22 C46.77 10.47, 48.42 14.33, 48.45 18.72 C48.48 23.12, 46.59 29.93, 43.3 33.59 C40.02 37.26, 33.58 39.86, 28.71 40.71 C23.85 41.56, 18.49 40.74, 14.1 38.7 C9.71 36.65, 4.47 32.31, 2.37 28.43 C0.27 24.55, 0.19 19.42, 1.48 15.42 C2.77 11.42, 5.9 7.13, 10.09 4.41 C14.28 1.69, 23.7 -0.08, 26.62 -0.9 C29.53 -1.73, 27.4 -0.97, 27.59 -0.53" stroke="#f08c00" stroke-width="1" fill="none"></path></g><g stroke-linecap="round"><g transform="translate(227.74042134256536 1271.5300573680076) rotate(8.951196733872383 7.045899542631446 55.01287874573711)"><path d="M-0.71 0.91 C1.56 19.03, 12.39 91.67, 14.8 109.69 M1.11 0.34 C3.17 18.02, 12.18 89.56, 14.12 107.89" stroke="#1e1e1e" stroke-width="1" fill="none"></path></g><g transform="translate(227.74042134256536 1271.5300573680076) rotate(8.951196733872383 7.045899542631446 55.01287874573711)"><path d="M2.16 81.93 C7.23 90.98, 11.45 100.62, 13.67 107.6 M0.06 81.38 C4.72 88.1, 6.43 94.71, 13.51 107.74" stroke="#1e1e1e" stroke-width="1" fill="none"></path></g><g transform="translate(227.74042134256536 1271.5300573680076) rotate(8.951196733872383 7.045899542631446 55.01287874573711)"><path d="M22.54 79.54 C19.53 89.42, 15.67 100.01, 13.67 107.6 M20.45 78.99 C20.22 86.44, 17.04 93.62, 13.51 107.74" stroke="#1e1e1e" stroke-width="1" fill="none"></path></g></g><mask></mask><g stroke-linecap="round" transform="translate(10 1371.066739378995) rotate(0 45.5 37)"><path d="M4.92 4.28 C4.92 4.28, 4.92 4.28, 4.92 4.28 M4.92 4.28 C4.92 4.28, 4.92 4.28, 4.92 4.28 M0.73 15.21 C2.3 11.36, 8.06 6.45, 11.88 2.38 M0.73 15.21 C5.17 10.74, 8.59 5.68, 11.88 2.38 M1.12 20.85 C5.41 15.15, 10.42 13.42, 18.83 0.47 M1.12 20.85 C7.29 13.26, 11.97 8.21, 18.83 0.47 M0.86 27.25 C8.95 16.29, 16.56 6.44, 24.48 0.08 M0.86 27.25 C9.27 18.51, 16.87 9.34, 24.48 0.08 M1.25 32.89 C6.99 27.39, 12.16 20.16, 29.46 0.44 M1.25 32.89 C11.41 20.83, 22.55 7.17, 29.46 0.44 M0.99 39.29 C15.87 23.98, 25.96 11.33, 34.45 0.8 M0.99 39.29 C8.59 30.57, 18.15 19.99, 34.45 0.8 M0.73 45.69 C12.07 32.88, 23.35 20.14, 40.09 0.4 M0.73 45.69 C14.83 28.3, 30.39 10.2, 40.09 0.4 M1.13 51.33 C11.14 39.67, 20.01 26.82, 45.08 0.76 M1.13 51.33 C10.96 38.2, 23 25.4, 45.08 0.76 M0.86 57.73 C19.52 36.61, 35.67 16.9, 50.72 0.37 M0.86 57.73 C15.91 40.69, 29.7 23.47, 50.72 0.37 M2.57 61.86 C23.23 38.82, 39.34 16.41, 55.71 0.73 M2.57 61.86 C17.49 44.57, 31.98 26.18, 55.71 0.73 M4.28 65.99 C20.12 49.51, 36.25 29.12, 61.36 0.33 M4.28 65.99 C16.71 50.23, 30.84 34.83, 61.36 0.33 M5.98 70.13 C20.32 53.5, 35.32 39.92, 66.34 0.69 M5.98 70.13 C25.26 46.11, 46.62 22.72, 66.34 0.69 M9.66 72 C33.23 42.26, 56.89 15.49, 71.99 0.3 M9.66 72 C23.47 55.15, 37.19 39.52, 71.99 0.3 M13.33 73.87 C31.97 55.4, 50.83 31.14, 76.97 0.66 M13.33 73.87 C32.99 51.27, 53.48 26.97, 76.97 0.66 M17.01 75.74 C43.18 46.98, 66.75 17.07, 80.65 2.53 M17.01 75.74 C41.1 47.82, 64.32 20.57, 80.65 2.53 M22 76.1 C46.18 52.02, 66.5 25.26, 84.98 3.64 M22 76.1 C39.64 54.79, 58.26 35.33, 84.98 3.64 M27.64 75.7 C50.87 51.18, 70.85 27.55, 88 6.27 M27.64 75.7 C47.34 54.01, 64.61 33.27, 88 6.27 M32.63 76.06 C49.84 56.1, 63.93 36.92, 90.36 9.65 M32.63 76.06 C50.94 53.82, 70.37 32.58, 90.36 9.65 M37.61 76.42 C56.09 54.83, 78.51 27.47, 92.72 13.03 M37.61 76.42 C57.86 52.11, 79.81 29.18, 92.72 13.03 M43.26 76.03 C57.97 59.53, 74.07 42.91, 92.46 19.42 M43.26 76.03 C58.01 57.91, 73.06 40.06, 92.46 19.42 M48.24 76.39 C60.42 61.16, 74.69 44.89, 92.2 25.82 M48.24 76.39 C65.1 56.56, 81.56 37.8, 92.2 25.82 M53.89 75.99 C62.37 66.56, 73.22 55.3, 91.94 32.22 M53.89 75.99 C67.86 59.14, 80.75 43.83, 91.94 32.22 M58.87 76.35 C67.18 69.01, 77.21 58.07, 92.33 37.86 M58.87 76.35 C70 63.75, 79.18 51.43, 92.33 37.86 M64.52 75.96 C71.81 66.23, 81.35 57.49, 92.07 44.26 M64.52 75.96 C72.65 65.88, 82.07 55.07, 92.07 44.26 M69.5 76.32 C75.03 71.21, 81.4 66, 91.81 50.66 M69.5 76.32 C74.72 70.93, 79.37 66.66, 91.81 50.66 M75.15 75.92 C81.71 69.54, 83.88 62.58, 92.2 56.3 M75.15 75.92 C81.45 68.29, 86.87 60.89, 92.2 56.3 M82.1 74.02 C86.3 69.44, 88.16 66.99, 92.6 61.94 M82.1 74.02 C86.15 68.94, 91.1 63.85, 92.6 61.94" stroke="#a5d8ff" stroke-width="0.5" fill="none"></path><path d="M18.5 0 M18.5 0 C30.61 1.17, 41.81 0.27, 72.5 0 M18.5 0 C35.9 -0.73, 52.58 -1.07, 72.5 0 M72.5 0 C83.23 1.63, 89.54 7.97, 91 18.5 M72.5 0 C84.71 1.41, 93.03 7.74, 91 18.5 M91 18.5 C89.2 29.15, 88.92 36.97, 91 55.5 M91 18.5 C91.66 28.4, 91.2 40.56, 91 55.5 M91 55.5 C91.76 69.81, 83.89 72.53, 72.5 74 M91 55.5 C91.37 67.06, 84.87 75.51, 72.5 74 M72.5 74 C56.07 73.73, 40.37 74.56, 18.5 74 M72.5 74 C53.66 73.27, 36.68 74.3, 18.5 74 M18.5 74 C4.35 75.12, 0.78 69.5, 0 55.5 M18.5 74 C7.48 72.03, 1.36 69.12, 0 55.5 M0 55.5 C-0.49 43.43, -0.57 33.96, 0 18.5 M0 55.5 C0.81 47.07, -0.43 39.93, 0 18.5 M0 18.5 C-0.54 4.85, 6 -1.88, 18.5 0 M0 18.5 C-1.6 5.6, 4.25 -0.03, 18.5 0" stroke="#1e1e1e" stroke-width="1" fill="none"></path></g><g transform="translate(40.920005798339844 1395.566739378995) rotate(0 14.579994201660156 12.5)"><text x="14.579994201660156" y="0" font-family="Virgil, Segoe UI Emoji" font-size="20px" fill="#1e1e1e" text-anchor="middle" style="white-space: pre;" direction="ltr" dominant-baseline="text-before-edge">W2</text></g><g stroke-linecap="round"><g transform="translate(278.0355941354874 1426.9284384796072) rotate(0 43.888328442511636 -0.1765634497718338)"><path d="M0.51 0.27 C15.12 0.4, 73.68 0.67, 88.45 0.68 M-0.68 -0.64 C13.69 -0.84, 72.56 -0.83, 87.44 -1.03" stroke="#1e1e1e" stroke-width="1" fill="none"></path></g></g><mask></mask><g stroke-linecap="round"><g transform="translate(97.92305389644707 1418.2491845195373) rotate(0 43.53381788267609 -0.5637924955325389)"><path d="M-1.08 0.01 C13.42 -0.13, 73.39 -1.24, 88.15 -1.13 M0.55 -1.03 C14.75 -1.02, 72.1 -0.09, 86.98 -0.13" stroke="#1e1e1e" stroke-width="1" fill="none"></path></g></g><mask></mask><g stroke-linecap="round" transform="translate(2759.11586559956 1172.7003509300844) rotate(0 101.47788101735637 56.40496840202809)"><path d="M55.91 6.27 C66.91 2.25, 82.82 1.15, 96.45 0.85 C110.08 0.55, 124.93 1.78, 137.69 4.49 C150.46 7.2, 163.17 11.79, 173.03 17.11 C182.89 22.42, 191.77 29.36, 196.87 36.39 C201.97 43.41, 204.39 51.73, 203.66 59.23 C202.93 66.74, 198.89 74.4, 192.48 81.42 C186.08 88.43, 175.95 96.28, 165.23 101.33 C154.51 106.38, 141.52 110.06, 128.15 111.72 C114.79 113.39, 98.73 112.57, 85.05 111.31 C71.37 110.06, 57.51 108.26, 46.06 104.18 C34.6 100.09, 23.87 93.35, 16.32 86.82 C8.78 80.29, 2.97 72.43, 0.79 65.01 C-1.4 57.59, -0.61 49.73, 3.2 42.33 C7.02 34.93, 13.21 27, 23.66 20.59 C34.11 14.18, 57.18 6.72, 65.88 3.89 C74.59 1.05, 75.39 2.56, 75.89 3.57 M139.24 3.73 C152.26 5.39, 165.51 10.63, 175.15 16.09 C184.8 21.54, 192.35 29.02, 197.13 36.44 C201.91 43.86, 205.01 53.04, 203.85 60.61 C202.68 68.18, 196.82 75.22, 190.13 81.88 C183.45 88.53, 174.49 95.93, 163.73 100.55 C152.96 105.16, 138.58 107.5, 125.54 109.56 C112.49 111.62, 98.91 113.69, 85.45 112.91 C71.99 112.14, 56.59 109.05, 44.78 104.91 C32.97 100.77, 21.87 94.92, 14.6 88.08 C7.33 81.23, 3 71.69, 1.18 63.82 C-0.64 55.94, -0.17 48.24, 3.68 40.82 C7.54 33.41, 15.76 25.25, 24.31 19.33 C32.86 13.4, 42.78 8.39, 54.98 5.29 C67.17 2.19, 83.47 1.08, 97.49 0.72 C111.52 0.35, 132.46 2.34, 139.12 3.1 C145.78 3.86, 138.08 4.23, 137.46 5.28" stroke="#1e1e1e" stroke-width="1" fill="none"></path></g><g transform="translate(2818.9580897026567 1216.7209836824254) rotate(0 41.87995910644531 12.5)"><text x="41.87995910644531" y="0" font-family="Virgil, Segoe UI Emoji" font-size="20px" fill="#1e1e1e" text-anchor="middle" style="white-space: pre;" direction="ltr" dominant-baseline="text-before-edge">JoinNode</text></g><g stroke-linecap="round" transform="translate(2563.610695611941 1420.1852243156495) rotate(0 106.70016315004477 63.13927930261343)"><path d="M129.55 1.44 C143.52 2.22, 158.65 7.64, 170.42 12.68 C182.19 17.73, 192.98 24.22, 200.18 31.69 C207.38 39.16, 212.45 49.02, 213.61 57.51 C214.77 66, 211.7 74.61, 207.13 82.65 C202.56 90.68, 195.67 99.46, 186.19 105.72 C176.72 111.97, 163.77 116.65, 150.28 120.19 C136.8 123.74, 119.75 126.88, 105.26 127 C90.78 127.12, 76.41 124.64, 63.37 120.92 C50.32 117.21, 36.8 111.05, 26.97 104.69 C17.13 98.34, 8.9 90.75, 4.35 82.77 C-0.19 74.79, -2.16 65.46, -0.3 56.81 C1.56 48.17, 8.2 38.25, 15.49 30.92 C22.78 23.58, 31.7 17.79, 43.45 12.8 C55.2 7.81, 71.14 2.7, 85.99 0.97 C100.84 -0.76, 124.59 1.96, 132.57 2.42 C140.54 2.89, 134.44 2.68, 133.86 3.74 M78.04 2.64 C90.83 -0.54, 107.47 -0.97, 121.99 0.24 C136.52 1.45, 152.89 5.28, 165.19 9.89 C177.5 14.5, 188.09 20.85, 195.83 27.9 C203.56 34.94, 209.47 43.75, 211.59 52.13 C213.71 60.5, 212.06 69.91, 208.53 78.13 C205 86.36, 199.07 94.48, 190.42 101.47 C181.77 108.47, 169.47 116.24, 156.64 120.1 C143.82 123.97, 127.92 124.41, 113.48 124.66 C99.04 124.91, 83.8 124.38, 70 121.57 C56.2 118.77, 41.35 113.52, 30.69 107.85 C20.03 102.18, 11.27 95.36, 6.05 87.55 C0.84 79.74, -1.6 69.8, -0.61 60.98 C0.37 52.16, 5.24 42.63, 11.96 34.63 C18.68 26.62, 28.45 18.35, 39.7 12.95 C50.95 7.55, 72.74 4, 79.44 2.25 C86.14 0.5, 79.58 1.54, 79.92 2.45" stroke="#1e1e1e" stroke-width="1" fill="none"></path></g><g transform="translate(2603.2925035558155 1458.1782910641537) rotate(0 67.0699462890625 25)"><text x="67.0699462890625" y="0" font-family="Virgil, Segoe UI Emoji" font-size="20px" fill="#1e1e1e" text-anchor="middle" style="white-space: pre;" direction="ltr" dominant-baseline="text-before-edge">OlapScanNode</text><text x="67.0699462890625" y="25" font-family="Virgil, Segoe UI Emoji" font-size="20px" fill="#1e1e1e" text-anchor="middle" style="white-space: pre;" direction="ltr" dominant-baseline="text-before-edge">t2</text></g><g stroke-linecap="round" transform="translate(2932.261065410074 1421.6569441335196) rotate(0 106.70016315004477 63.13927930261343)"><path d="M143.55 3.34 C156.95 5.24, 169.54 11.46, 180.02 17.34 C190.5 23.23, 200.81 30.8, 206.43 38.67 C212.05 46.55, 214.41 55.98, 213.76 64.59 C213.11 73.21, 208.99 82.62, 202.52 90.38 C196.05 98.14, 185.93 105.6, 174.92 111.14 C163.92 116.69, 150.11 121.17, 136.48 123.64 C122.85 126.12, 107.54 127.09, 93.14 125.99 C78.74 124.9, 62.55 121.8, 50.07 117.09 C37.59 112.38, 26.4 104.68, 18.25 97.73 C10.1 90.77, 3.58 83.54, 1.18 75.39 C-1.22 67.23, 0.35 57.31, 3.85 48.78 C7.35 40.24, 13.32 31.02, 22.17 24.16 C31.02 17.3, 44.24 11.74, 56.95 7.62 C69.66 3.5, 83.38 -0.21, 98.43 -0.56 C113.48 -0.9, 138.52 4.28, 147.26 5.55 C156 6.83, 151.49 6.41, 150.87 7.09 M152.48 5.86 C165.33 8.59, 179.19 16.59, 188.61 23.31 C198.03 30.03, 204.84 38.14, 209 46.18 C213.16 54.23, 215.46 62.93, 213.57 71.57 C211.69 80.21, 205.64 90.9, 197.67 98 C189.7 105.1, 178.11 109.41, 165.74 114.17 C153.38 118.92, 137.52 124.92, 123.48 126.53 C109.43 128.14, 95.29 126.04, 81.48 123.83 C67.67 121.61, 51.98 118.33, 40.62 113.25 C29.27 108.16, 20.11 100.79, 13.33 93.32 C6.55 85.85, 0.92 76.96, -0.04 68.45 C-1 59.94, 2.54 50.38, 7.57 42.25 C12.6 34.12, 20.01 26.19, 30.14 19.67 C40.27 13.16, 54.89 6.29, 68.34 3.16 C81.8 0.02, 96.41 0.53, 110.88 0.85 C125.34 1.17, 148.06 4.05, 155.14 5.08 C162.21 6.11, 154.33 5.95, 153.32 7.04" stroke="#1e1e1e" stroke-width="1" fill="none"></path></g><g transform="translate(2971.9428733539485 1459.6500108820237) rotate(0 67.0699462890625 25)"><text x="67.0699462890625" y="0" font-family="Virgil, Segoe UI Emoji" font-size="20px" fill="#1e1e1e" text-anchor="middle" style="white-space: pre;" direction="ltr" dominant-baseline="text-before-edge">OlapScanNode</text><text x="67.0699462890625" y="25" font-family="Virgil, Segoe UI Emoji" font-size="20px" fill="#1e1e1e" text-anchor="middle" style="white-space: pre;" direction="ltr" dominant-baseline="text-before-edge">t1</text></g><g stroke-linecap="round"><g transform="translate(2673.2805697486497 1419.209612097585) rotate(0 90.95385534625302 -65.20800355958067)"><path d="M1.14 1.15 C31.02 -20.83, 149.3 -109.64, 179.31 -131.57 M0.29 0.71 C30.54 -21.1, 151.5 -107.9, 181.62 -130.05" stroke="#1e1e1e" stroke-width="1" fill="none"></path></g><g transform="translate(2673.2805697486497 1419.209612097585) rotate(0 90.95385534625302 -65.20800355958067)"><path d="M166.74 -106.46 C169.84 -111.06, 176.9 -122.49, 179.78 -128.9 M164.58 -104.47 C171.12 -112.6, 176.07 -120.47, 182.11 -129.73" stroke="#1e1e1e" stroke-width="1" fill="none"></path></g><g transform="translate(2673.2805697486497 1419.209612097585) rotate(0 90.95385534625302 -65.20800355958067)"><path d="M154.7 -123.07 C161.52 -122.72, 172.26 -129.08, 179.78 -128.9 M152.53 -121.08 C162.99 -123.84, 171.84 -126.34, 182.11 -129.73" stroke="#1e1e1e" stroke-width="1" fill="none"></path></g></g><mask></mask><g stroke-linecap="round"><g transform="translate(3035.882275225146 1420.6831595241779) rotate(0 -91.04198567906633 -67.72847013810235)"><path d="M-1.1 0.31 C-31.22 -21.99, -151.49 -111.39, -181.75 -133.78 M0.52 -0.57 C-29.65 -23.26, -152.5 -113.74, -182.6 -135.77" stroke="#1e1e1e" stroke-width="1" fill="none"></path></g><g transform="translate(3035.882275225146 1420.6831595241779) rotate(0 -91.04198567906633 -67.72847013810235)"><path d="M-153.29 -127.05 C-159.54 -130.59, -166.13 -130.59, -183.35 -134.54 M-154.13 -126.79 C-161.71 -128.89, -170.91 -131.42, -181.62 -135.32" stroke="#1e1e1e" stroke-width="1" fill="none"></path></g><g transform="translate(3035.882275225146 1420.6831595241779) rotate(0 -91.04198567906633 -67.72847013810235)"><path d="M-165.44 -110.51 C-169.1 -117.48, -173.09 -121.02, -183.35 -134.54 M-166.28 -110.25 C-170.18 -117.47, -175.66 -125.09, -181.62 -135.32" stroke="#1e1e1e" stroke-width="1" fill="none"></path></g></g><mask></mask></svg>