<svg version="1.1" xmlns="http://www.w3.org/2000/svg" viewBox="0 0 602.0506960982225 395.23515180866207" width="1204.101392196445" height="790.4703036173241">
  <!-- svg-source:excalidraw -->
  
  <defs>
    <style class="style-fonts">
      @font-face {
        font-family: "Virgil";
        src: url("https://excalidraw.com/Virgil.woff2");
      }
      @font-face {
        font-family: "Cascadia";
        src: url("https://excalidraw.com/Cascadia.woff2");
      }
    </style>
    
  </defs>
  <rect x="0" y="0" width="602.0506960982225" height="395.23515180866207" fill="#ffffff"></rect><g stroke-linecap="round" transform="translate(205.50516998761896 10) rotate(0 101.47788101735637 56.40496840202809)"><path d="M55.91 6.27 C66.91 2.25, 82.82 1.15, 96.45 0.85 C110.08 0.55, 124.93 1.78, 137.69 4.49 C150.46 7.2, 163.17 11.79, 173.03 17.11 C182.89 22.42, 191.77 29.36, 196.87 36.39 C201.97 43.41, 204.39 51.73, 203.66 59.23 C202.93 66.74, 198.89 74.4, 192.48 81.42 C186.08 88.43, 175.95 96.28, 165.23 101.33 C154.51 106.38, 141.52 110.06, 128.15 111.72 C114.79 113.39, 98.73 112.57, 85.05 111.31 C71.37 110.06, 57.51 108.26, 46.06 104.18 C34.6 100.09, 23.87 93.35, 16.32 86.82 C8.78 80.29, 2.97 72.43, 0.79 65.01 C-1.4 57.59, -0.61 49.73, 3.2 42.33 C7.02 34.93, 13.21 27, 23.66 20.59 C34.11 14.18, 57.18 6.72, 65.88 3.89 C74.59 1.05, 75.39 2.56, 75.89 3.57 M139.24 3.73 C152.26 5.39, 165.51 10.63, 175.15 16.09 C184.8 21.54, 192.35 29.02, 197.13 36.44 C201.91 43.86, 205.01 53.04, 203.85 60.61 C202.68 68.18, 196.82 75.22, 190.13 81.88 C183.45 88.53, 174.49 95.93, 163.73 100.55 C152.96 105.16, 138.58 107.5, 125.54 109.56 C112.49 111.62, 98.91 113.69, 85.45 112.91 C71.99 112.14, 56.59 109.05, 44.78 104.91 C32.97 100.77, 21.87 94.92, 14.6 88.08 C7.33 81.23, 3 71.69, 1.18 63.82 C-0.64 55.94, -0.17 48.24, 3.68 40.82 C7.54 33.41, 15.76 25.25, 24.31 19.33 C32.86 13.4, 42.78 8.39, 54.98 5.29 C67.17 2.19, 83.47 1.08, 97.49 0.72 C111.52 0.35, 132.46 2.34, 139.12 3.1 C145.78 3.86, 138.08 4.23, 137.46 5.28" stroke="#1e1e1e" stroke-width="1" fill="none"></path></g><g transform="translate(265.3473940907156 54.020632752341044) rotate(0 41.87995910644531 12.5)"><text x="41.87995910644531" y="0" font-family="Virgil, Segoe UI Emoji" font-size="20px" fill="#1e1e1e" text-anchor="middle" style="white-space: pre;" direction="ltr" dominant-baseline="text-before-edge">JoinNode</text></g><g stroke-linecap="round" transform="translate(10 257.48487338556515) rotate(0 106.70016315004477 63.13927930261343)"><path d="M15.6 30.79 C15.6 30.79, 15.6 30.79, 15.6 30.79 M15.6 30.79 C15.6 30.79, 15.6 30.79, 15.6 30.79 M2.35 53.13 C11.93 41.15, 18.86 32.92, 28.58 23.2 M2.19 51.57 C11.08 42.54, 17.46 36, 27.09 23.31 M0.44 57.38 C13.89 46.7, 21.28 36.88, 38.3 16.32 M1.36 59.58 C15.67 43.49, 29.05 28.17, 40.4 15.81 M2.81 62.89 C16.4 46.67, 31.87 32.17, 44.06 16.38 M3.78 63.36 C18.05 44.56, 33.04 28.19, 45.97 14.41 M4.19 70.51 C19.54 50.64, 32.74 35.21, 51.92 12.25 M2.54 69.14 C20.66 50.63, 36.88 30.77, 51.63 13.04 M5.47 73.76 C21.26 56.67, 38.97 36.69, 61.37 10.21 M3.98 74.09 C17.64 58.39, 31.57 44.57, 60.14 9.91 M5.21 78.23 C27.11 56.8, 46.89 30.1, 65.21 10.43 M6.03 79.86 C20.57 61.84, 35.42 44.79, 65.96 8.05 M6.96 83.97 C29.89 56.79, 51.89 29.4, 73.62 5.18 M6.57 84.96 C19.04 68.93, 33.87 53.16, 74.27 7.59 M8.58 85.54 C25.68 68.48, 43.59 50.5, 79.51 3.39 M9.59 86.93 C29.95 63.55, 51.03 37.85, 81.31 4.38 M13.77 88.02 C34.05 64.09, 54.07 40.06, 88.58 2.58 M11.76 90.35 C37.77 62.45, 60.99 34.26, 87.29 1.97 M13.98 93.74 C35.3 72.2, 53.68 48.01, 92.08 2.73 M15.18 91.73 C45.02 59.49, 73.96 25.15, 92.17 3.55 M19.15 94.02 C42.32 68.51, 64.93 44.44, 98.05 3.58 M17.12 95.19 C40.75 68.31, 64.45 42.97, 97.75 3.33 M18.43 98.47 C45.88 68.88, 68.25 41.21, 104.8 2.35 M19.68 97.91 C43.82 69.37, 68.3 41.49, 104.17 2.29 M24.19 100.64 C49.01 73.53, 72.56 47.09, 110.27 2.33 M22.68 101.82 C53.22 67.2, 83.1 33.81, 108.21 2.85 M25.47 103.16 C61.62 61.61, 96.64 22.57, 114.07 4.21 M26.11 102.79 C55.29 71.25, 85.55 37.61, 114.14 2.28 M27.93 107.34 C65.17 69.54, 97.91 29.9, 117.51 4.81 M28.97 106.31 C62.77 68.51, 95.94 31.18, 118.88 3.45 M31.28 109.81 C69.48 68.32, 102.97 29.54, 126.3 3.59 M33.69 108.18 C58.55 78.65, 83.18 48.05, 125.45 3.45 M36.65 109.38 C54.42 86.34, 76.51 66.15, 131.28 0.6 M36.39 109.46 C58.49 82.96, 82.34 58.28, 130.8 1.55 M41.97 113.47 C71.99 76.08, 106.46 37.89, 135.16 3.59 M41.2 112.86 C63.52 86.01, 85.38 60.68, 135.35 2.42 M43.3 114.62 C78.55 72.24, 110.57 34.1, 141.11 4.84 M44.57 113.51 C83.2 70.48, 119.61 28.98, 138.62 5.02 M49.6 114.26 C68.74 93.32, 88.85 69.17, 142.26 6.35 M48.93 114.57 C86.17 72.19, 121.69 32.88, 143.61 5.82 M52.06 118.71 C90.81 71.91, 124.95 31.45, 148.35 6.93 M53 117.46 C81.48 83.94, 110.24 50.46, 148.41 5.95 M54.83 118.89 C75.68 93.26, 95.25 71.01, 150.47 7.59 M55.4 119.53 C94.09 75.62, 129.09 34.93, 151.86 8.69 M61.06 122.12 C80.06 99.28, 100.56 76.11, 157.03 9.14 M59.68 120.01 C81.17 97.39, 102.01 74.05, 156.49 9.13 M62.91 120.08 C100.26 77.93, 137.83 34.37, 159.24 9.34 M63.27 121.92 C86.71 96.53, 108.62 72.55, 160.91 11.33 M69.65 122.86 C94.79 93.11, 117.93 66.79, 163.06 12.51 M68.46 122.29 C103.63 80.77, 139.95 39.15, 164.7 12.08 M72.35 124.4 C96.3 97.02, 119.92 69.17, 169.99 14.93 M74.09 123.62 C110.64 79.17, 147.16 35.67, 168.13 12.26 M77.2 122.54 C109.02 84.85, 143.02 48.24, 173.7 14.18 M77.77 123.97 C100.02 95.1, 124.99 67.71, 171.77 14.31 M82.29 124.97 C113.68 88.59, 144.23 51.1, 175.43 15.53 M83.62 123.01 C105.46 96.47, 129.91 71.43, 176.78 16.69 M88.98 123.56 C109.59 102.71, 128.44 76.8, 178.76 19.58 M86.54 124.39 C112.27 95.4, 136.96 67.23, 178.61 19.54 M93.17 124.73 C117.73 96.25, 145.28 66.5, 182.18 23.1 M92.5 126.19 C115.57 98.91, 137.6 71.92, 182.59 21.59 M98.19 127.38 C118.42 103.08, 140.62 78.36, 184.64 24.19 M96.25 126.88 C123.28 98.37, 146.68 69.39, 186.31 23.43 M101.31 125.43 C132.57 92.84, 163.11 59.15, 188.79 24.66 M100.88 125.96 C136.01 87.63, 169.02 47.95, 189.86 25.86 M105.97 126.53 C124.16 106.07, 143.82 81.79, 192.39 28.34 M106.9 128.72 C133.63 96.44, 161.37 64.34, 194.18 28.38 M113.64 125.12 C133.28 103.6, 152.96 80.39, 197.08 31.06 M113.08 127.34 C138.4 96.82, 164.6 66.15, 196.73 31.13 M116.7 124.84 C135.47 106.26, 154.45 84.25, 198.97 31.15 M118.28 125.4 C135.62 106.66, 153.14 86.23, 199.07 31.53 M125.71 124.41 C150.03 94.72, 179.75 63.45, 204.16 36.95 M123.64 125.81 C154.24 93.48, 182.81 58.7, 203.24 35.77 M131.44 125.47 C158.75 93.32, 184.36 62.52, 203.99 40.56 M131.54 124.69 C147.21 106.27, 161.97 87.99, 204.04 38.71 M138.34 121.75 C158.29 99.94, 177.55 74.63, 206.44 44.8 M135.99 122.6 C152.28 105.31, 168.23 86.3, 207.29 42.84 M143.82 121.4 C157.85 105.84, 172.99 87.29, 206.25 47.56 M142.91 123.01 C164.97 97.74, 187.21 71.98, 208.95 46.72 M149.65 121.4 C167.61 94.77, 189.38 71.13, 211.52 52.39 M148.41 120.65 C163.62 105.8, 177.64 89.32, 210.6 49.64 M153.41 122.92 C169.18 102.74, 188.27 83.21, 211.86 55.2 M153.21 123.05 C166.84 109.81, 178.11 94.06, 212.56 54.34 M162.32 117.65 C174.17 106.45, 187.37 89.34, 212.99 58.81 M161.37 118.85 C173.86 103.39, 187.65 89.81, 215.44 57.66 M168.26 117.55 C186.13 98.22, 201.59 79.45, 212.93 68.14 M170.3 115.63 C180.31 103.62, 191.01 91.62, 213.25 65.82 M178.27 112.36 C187.68 100.76, 201.85 86.39, 211.82 76 M178.15 113.54 C189.87 98.69, 203.19 82.73, 210.11 76.2" stroke="#ffc9c9" stroke-width="0.5" fill="none"></path><path d="M129.55 1.44 C143.52 2.22, 158.65 7.64, 170.42 12.68 C182.19 17.73, 192.98 24.22, 200.18 31.69 C207.38 39.16, 212.45 49.02, 213.61 57.51 C214.77 66, 211.7 74.61, 207.13 82.65 C202.56 90.68, 195.67 99.46, 186.19 105.72 C176.72 111.97, 163.77 116.65, 150.28 120.19 C136.8 123.74, 119.75 126.88, 105.26 127 C90.78 127.12, 76.41 124.64, 63.37 120.92 C50.32 117.21, 36.8 111.05, 26.97 104.69 C17.13 98.34, 8.9 90.75, 4.35 82.77 C-0.19 74.79, -2.16 65.46, -0.3 56.81 C1.56 48.17, 8.2 38.25, 15.49 30.92 C22.78 23.58, 31.7 17.79, 43.45 12.8 C55.2 7.81, 71.14 2.7, 85.99 0.97 C100.84 -0.76, 124.59 1.96, 132.57 2.42 C140.54 2.89, 134.44 2.68, 133.86 3.74 M78.04 2.64 C90.83 -0.54, 107.47 -0.97, 121.99 0.24 C136.52 1.45, 152.89 5.28, 165.19 9.89 C177.5 14.5, 188.09 20.85, 195.83 27.9 C203.56 34.94, 209.47 43.75, 211.59 52.13 C213.71 60.5, 212.06 69.91, 208.53 78.13 C205 86.36, 199.07 94.48, 190.42 101.47 C181.77 108.47, 169.47 116.24, 156.64 120.1 C143.82 123.97, 127.92 124.41, 113.48 124.66 C99.04 124.91, 83.8 124.38, 70 121.57 C56.2 118.77, 41.35 113.52, 30.69 107.85 C20.03 102.18, 11.27 95.36, 6.05 87.55 C0.84 79.74, -1.6 69.8, -0.61 60.98 C0.37 52.16, 5.24 42.63, 11.96 34.63 C18.68 26.62, 28.45 18.35, 39.7 12.95 C50.95 7.55, 72.74 4, 79.44 2.25 C86.14 0.5, 79.58 1.54, 79.92 2.45" stroke="#1e1e1e" stroke-width="1" fill="none"></path></g><g transform="translate(49.681807943874446 295.4779401340693) rotate(0 67.0699462890625 25)"><text x="67.0699462890625" y="0" font-family="Virgil, Segoe UI Emoji" font-size="20px" fill="#1e1e1e" text-anchor="middle" style="white-space: pre;" direction="ltr" dominant-baseline="text-before-edge">OlapScanNode</text><text x="67.0699462890625" y="25" font-family="Virgil, Segoe UI Emoji" font-size="20px" fill="#1e1e1e" text-anchor="middle" style="white-space: pre;" direction="ltr" dominant-baseline="text-before-edge">t2</text></g><g stroke-linecap="round" transform="translate(378.65036979813294 258.9565932034352) rotate(0 106.70016315004477 63.13927930261343)"><path d="M21.96 24.39 C21.96 24.39, 21.96 24.39, 21.96 24.39 M21.96 24.39 C21.96 24.39, 21.96 24.39, 21.96 24.39 M4.48 49.92 C11.69 41.01, 16.74 35.38, 32.45 21.98 M5.51 50.11 C12.82 40.71, 22.78 30.31, 30.16 20.99 M3.86 58.7 C16.69 45.69, 26.03 29.98, 40.1 16.12 M5.17 56.21 C17.58 41.67, 30.18 27.77, 41.05 14.95 M4.06 62.67 C19.47 47.47, 32.36 29.49, 50.41 10.34 M4.3 64.02 C22.53 43.55, 41.49 20.95, 49.37 12.07 M4.35 70.83 C25.6 46.12, 46.33 22.85, 59.45 8.97 M3.52 70.88 C20.61 47.82, 39.84 27.33, 57.19 7.81 M2.24 75.67 C19.17 59.85, 34.86 40.07, 63.2 8.22 M3.46 77.06 C27.35 48.92, 50.43 22.34, 64.76 7.34 M6.73 81.28 C23.9 55.58, 42.36 35.17, 70.72 4.28 M6.01 80.74 C26.09 55.57, 48.21 30.02, 69.82 4.62 M6.39 82.53 C24.08 62.08, 43.13 41.63, 75.53 4.71 M8.51 84.2 C35.53 51.68, 61.73 20.44, 77 4.68 M9.83 85.41 C39.38 56.15, 67.9 21.24, 82.23 3.6 M10.29 87.04 C25.8 69.06, 41.16 52.04, 82.48 3.74 M12.41 90.63 C38.07 64.26, 60.71 37.48, 91.13 2.87 M13.41 88.77 C38.16 60.42, 65.72 30.01, 88.71 1.48 M14.2 94.04 C37.64 65.89, 62.46 42.34, 95.47 0.95 M14.69 92.11 C33.78 71.8, 51.95 50.24, 95.72 0.61 M16.55 95.48 C35.9 73.6, 57.09 51.7, 101.53 -0.58 M18.38 96.82 C39.3 71.22, 59 48.07, 101.23 0.46 M20.12 99.16 C45.89 69.59, 73.42 41, 103.7 0.32 M20.17 99.01 C52.39 62.64, 82.93 26.44, 105.82 1.23 M23.41 100.78 C47.22 75.4, 68.61 50.09, 110.64 3.56 M23.88 101.19 C54.9 66.33, 84.84 31.65, 111.15 2.35 M27.52 101.43 C56.19 70.16, 82.3 38.04, 114.46 3.06 M28.22 103.1 C62.09 64.33, 97.13 23.18, 115.2 1.56 M32 105.19 C60.79 71.01, 95.04 32.18, 118.74 0.87 M30.72 106.26 C63.14 68.42, 95.28 32.43, 120.35 1.91 M32.84 106.99 C55.3 84.75, 73.88 59.01, 127.09 4.52 M33.76 108.78 C54.56 85.91, 73.47 64.87, 126.03 2.14 M39.09 110.52 C69.63 73.83, 98.55 38.44, 131.19 5.17 M37.32 110.18 C59.79 84.78, 79.62 62.18, 128.74 3.69 M39.51 111.37 C64.23 81.64, 91.12 52.74, 133.98 3.96 M41.62 111.46 C65 84.2, 91.06 53.53, 135.41 4.03 M45.15 116.06 C66.77 91.26, 85 64.97, 138.4 5.92 M43.78 115.14 C78.9 74.19, 114.11 32.96, 140.11 5.5 M50.03 116.05 C82.55 76.03, 115.52 38.96, 147.24 5.58 M48.58 116.1 C84.31 73.19, 123.21 30.38, 146.05 3.82 M49.73 118.77 C89.91 74.33, 124.21 34.61, 147.21 5.58 M51.12 119.62 C73.26 91.95, 97.35 65.14, 149.65 5.71 M57.31 117.23 C84.91 87.07, 112.91 53.97, 154.1 8.29 M56.76 119.93 C85.94 83.48, 118.22 48.06, 153.74 7.4 M59.38 121.25 C83.99 95.87, 102.75 73, 156.19 7.74 M61.3 120.33 C92.78 81.1, 127.35 41.65, 157.13 9.47 M65.3 121 C87.29 94.39, 107.08 69.32, 160.79 12.18 M64.21 121.7 C101.07 77.78, 138.66 34.49, 161.13 10.41 M67.82 120.88 C98.75 87.04, 127.76 54.61, 164.91 11.72 M69.35 123.33 C96.82 91.41, 123.79 59.24, 164.3 13.19 M73.04 123.42 C108.71 83.48, 139.71 46.24, 169.92 13.99 M74.98 123.73 C98.41 94.61, 125.21 64.11, 169.17 13.79 M78.42 125.65 C102.28 98.06, 124.08 68.53, 174.73 16.23 M77.85 123.93 C102.26 96.56, 124.41 70.84, 173.52 14.31 M81.31 123.98 C117.42 84.69, 151.49 44.32, 175.21 16.68 M83.77 125.33 C118.9 85.55, 153.5 45.03, 175.83 17.25 M88.98 126.54 C107.19 102.24, 129.26 77.92, 182.04 17.95 M87.74 126.97 C118.52 91.37, 148.59 57.41, 181.17 17.82 M92.57 125.09 C118.76 95.46, 146.04 64.19, 183.44 19.16 M91.87 126.37 C119.23 96.33, 146.84 65.68, 184.04 21.04 M96.36 128.18 C131.33 84.13, 169.86 45.75, 188.35 21.77 M94.88 127.58 C116.56 102.92, 138.78 77.79, 187.58 22.5 M102.38 129.39 C124.14 102.12, 144.75 78.2, 190.45 24.26 M100.57 128.48 C131.29 93.14, 162.01 58.01, 189.69 25.96 M108.42 128.88 C139.35 90.33, 170.23 54.38, 194.8 29.22 M108.08 127.14 C138.91 89.82, 172.96 51.13, 193.68 27.38 M111.98 126.39 C145.21 90.12, 178.28 51.76, 195.77 31.74 M113.75 127.82 C128.86 106.46, 147.79 86.98, 196.29 30.29 M116.85 124.93 C140.8 101.32, 162.38 72.69, 201.67 32.28 M117.87 127.6 C149.03 92.02, 179.65 56.48, 200.4 33.54 M125.1 128.87 C142.19 104.25, 160.45 83.93, 204.71 37.05 M122.68 127.37 C148.66 97, 176.59 67.23, 203.02 36.64 M128.36 126.3 C155.21 97.22, 179.02 67.02, 206.28 38.63 M129.71 127.18 C152.58 100.97, 176.52 73.16, 206.65 39.33 M138.42 124.71 C163.7 90.93, 193.4 57.99, 209.61 41.34 M136.48 124.82 C158.64 98.06, 180.5 74.42, 207.98 41.88 M144.64 120.09 C161.46 101.9, 179.69 81.14, 211.03 44.15 M143.92 121.86 C166.38 96.94, 188.82 70.91, 211.29 44.91 M151.75 120.29 C170.57 96.32, 189.78 75.85, 211.93 50.22 M152.32 117.96 C168.18 102.44, 182.97 84.79, 212.35 49.93 M157.93 117.41 C171.81 102.27, 185.36 84.71, 213.38 54.63 M159.34 116.19 C171.87 103.05, 182.37 89.6, 213.19 55.95 M165.99 114.17 C178.89 102.06, 189.95 89.63, 212.77 57.68 M167.37 114.34 C179.92 97.83, 192.8 82.03, 214.78 59.72 M172.11 109.78 C185.4 96.93, 196.79 84.72, 213.15 66.06 M174.27 111.73 C182.65 99.97, 193.56 90.07, 214.44 65.89 M177.11 114.86 C182.28 105.47, 190.31 98.95, 211.12 78.47 M176.76 113.05 C185.82 104.32, 194.49 94.41, 209.78 77.51" stroke="#a5d8ff" stroke-width="0.5" fill="none"></path><path d="M143.55 3.34 C156.95 5.24, 169.54 11.46, 180.02 17.34 C190.5 23.23, 200.81 30.8, 206.43 38.67 C212.05 46.55, 214.41 55.98, 213.76 64.59 C213.11 73.21, 208.99 82.62, 202.52 90.38 C196.05 98.14, 185.93 105.6, 174.92 111.14 C163.92 116.69, 150.11 121.17, 136.48 123.64 C122.85 126.12, 107.54 127.09, 93.14 125.99 C78.74 124.9, 62.55 121.8, 50.07 117.09 C37.59 112.38, 26.4 104.68, 18.25 97.73 C10.1 90.77, 3.58 83.54, 1.18 75.39 C-1.22 67.23, 0.35 57.31, 3.85 48.78 C7.35 40.24, 13.32 31.02, 22.17 24.16 C31.02 17.3, 44.24 11.74, 56.95 7.62 C69.66 3.5, 83.38 -0.21, 98.43 -0.56 C113.48 -0.9, 138.52 4.28, 147.26 5.55 C156 6.83, 151.49 6.41, 150.87 7.09 M152.48 5.86 C165.33 8.59, 179.19 16.59, 188.61 23.31 C198.03 30.03, 204.84 38.14, 209 46.18 C213.16 54.23, 215.46 62.93, 213.57 71.57 C211.69 80.21, 205.64 90.9, 197.67 98 C189.7 105.1, 178.11 109.41, 165.74 114.17 C153.38 118.92, 137.52 124.92, 123.48 126.53 C109.43 128.14, 95.29 126.04, 81.48 123.83 C67.67 121.61, 51.98 118.33, 40.62 113.25 C29.27 108.16, 20.11 100.79, 13.33 93.32 C6.55 85.85, 0.92 76.96, -0.04 68.45 C-1 59.94, 2.54 50.38, 7.57 42.25 C12.6 34.12, 20.01 26.19, 30.14 19.67 C40.27 13.16, 54.89 6.29, 68.34 3.16 C81.8 0.02, 96.41 0.53, 110.88 0.85 C125.34 1.17, 148.06 4.05, 155.14 5.08 C162.21 6.11, 154.33 5.95, 153.32 7.04" stroke="#1e1e1e" stroke-width="1" fill="none"></path></g><g transform="translate(418.3321777420074 296.94965995193934) rotate(0 67.0699462890625 25)"><text x="67.0699462890625" y="0" font-family="Virgil, Segoe UI Emoji" font-size="20px" fill="#1e1e1e" text-anchor="middle" style="white-space: pre;" direction="ltr" dominant-baseline="text-before-edge">OlapScanNode</text><text x="67.0699462890625" y="25" font-family="Virgil, Segoe UI Emoji" font-size="20px" fill="#1e1e1e" text-anchor="middle" style="white-space: pre;" direction="ltr" dominant-baseline="text-before-edge">t1</text></g><g stroke-linecap="round"><g transform="translate(119.66987413670859 256.50926116750065) rotate(0 90.95385534625302 -65.20800355958067)"><path d="M1.14 1.15 C31.02 -20.83, 149.3 -109.64, 179.31 -131.57 M0.29 0.71 C30.54 -21.1, 151.5 -107.9, 181.62 -130.05" stroke="#1e1e1e" stroke-width="1" fill="none"></path></g><g transform="translate(119.66987413670859 256.50926116750065) rotate(0 90.95385534625302 -65.20800355958067)"><path d="M166.74 -106.46 C169.84 -111.06, 176.9 -122.49, 179.78 -128.9 M164.58 -104.47 C171.12 -112.6, 176.07 -120.47, 182.11 -129.73" stroke="#1e1e1e" stroke-width="1" fill="none"></path></g><g transform="translate(119.66987413670859 256.50926116750065) rotate(0 90.95385534625302 -65.20800355958067)"><path d="M154.7 -123.07 C161.52 -122.72, 172.26 -129.08, 179.78 -128.9 M152.53 -121.08 C162.99 -123.84, 171.84 -126.34, 182.11 -129.73" stroke="#1e1e1e" stroke-width="1" fill="none"></path></g></g><mask></mask><g stroke-linecap="round"><g transform="translate(482.2715796132047 257.9828085940935) rotate(0 -91.04198567906633 -67.72847013810235)"><path d="M-1.1 0.31 C-31.22 -21.99, -151.49 -111.39, -181.75 -133.78 M0.52 -0.57 C-29.65 -23.26, -152.5 -113.74, -182.6 -135.77" stroke="#1e1e1e" stroke-width="1" fill="none"></path></g><g transform="translate(482.2715796132047 257.9828085940935) rotate(0 -91.04198567906633 -67.72847013810235)"><path d="M-153.29 -127.05 C-159.54 -130.59, -166.13 -130.59, -183.35 -134.54 M-154.13 -126.79 C-161.71 -128.89, -170.91 -131.42, -181.62 -135.32" stroke="#1e1e1e" stroke-width="1" fill="none"></path></g><g transform="translate(482.2715796132047 257.9828085940935) rotate(0 -91.04198567906633 -67.72847013810235)"><path d="M-165.44 -110.51 C-169.1 -117.48, -173.09 -121.02, -183.35 -134.54 M-166.28 -110.25 C-170.18 -117.47, -175.66 -125.09, -181.62 -135.32" stroke="#1e1e1e" stroke-width="1" fill="none"></path></g></g><mask></mask></svg>